<svg width="23" height="23" viewBox="0 0 23 23" fill="none" xmlns="http://www.w3.org/2000/svg">
<path fill-rule="evenodd" clip-rule="evenodd" d="M3.9445 8.49483L3.9445 7.28375C4.31001 7.4821 4.74146 7.69084 5.21839 7.92159L8.35973 9.44169C9.63957 10.0615 10.5593 10.5069 11.4445 10.6731L11.4445 20.1283C10.9689 19.9924 10.348 19.7276 9.33146 19.2839C7.48822 18.4793 6.14196 17.8902 5.22137 17.3485C5.10609 17.2806 4.97475 17.2448 4.84099 17.2448L1.1945 17.2448C0.78029 17.2448 0.444502 17.5806 0.444502 17.9948C0.444502 18.409 0.780289 18.7448 1.1945 18.7448L4.64036 18.7448C5.63599 19.3075 7.00251 19.904 8.68199 20.6371L8.88412 20.7254C10.2993 21.3436 11.2177 21.7448 12.1945 21.7448C13.1713 21.7448 14.0897 21.3436 15.5049 20.7254L15.7202 20.6313C17.6129 19.8052 19.1117 19.151 20.1305 18.5192C21.1441 17.8907 21.9445 17.1263 21.9445 15.9948L21.9445 5.49483C21.9445 4.79278 21.4596 4.34654 21.0131 4.04497C20.5672 3.74379 19.926 3.43353 19.1706 3.06809L17.684 2.34871C17.6671 2.33971 17.6498 2.33136 17.6323 2.32368L16.0293 1.54797C14.3875 0.752941 13.3382 0.244833 12.1945 0.244833C11.0508 0.244834 10.0015 0.75294 8.35973 1.54797L5.21838 3.06807C4.46304 3.43353 3.82178 3.74379 3.37588 4.04497C2.92943 4.34654 2.4445 4.79278 2.4445 5.49483L2.4445 8.49483C2.4445 8.90905 2.78029 9.24483 3.1945 9.24483C3.60872 9.24483 3.9445 8.90905 3.9445 8.49483ZM17.3306 3.84411L18.4631 4.3921C19.2874 4.79097 19.8285 5.05491 20.1735 5.28798C20.3219 5.38821 20.3936 5.45613 20.4268 5.49483C20.3936 5.53353 20.3219 5.60145 20.1735 5.70168C19.8285 5.93476 19.2874 6.19869 18.4631 6.59756L15.5419 8.0111C13.6741 8.91493 12.9521 9.24483 12.1945 9.24483C11.4369 9.24483 10.7149 8.91493 8.8471 8.0111L8.78313 7.98015L17.3306 3.84411ZM7.06127 7.14696L15.6088 3.01092L15.5419 2.97856C13.6741 2.07473 12.9521 1.74483 12.1945 1.74483C11.4369 1.74483 10.7149 2.07474 8.8471 2.97856L5.9259 4.3921C5.1016 4.79097 4.56054 5.05491 4.21548 5.28798C4.06709 5.38821 3.9954 5.45613 3.96222 5.49483C3.9954 5.53353 4.06709 5.60145 4.21548 5.70169C4.56054 5.93476 5.1016 6.19869 5.9259 6.59756L7.06127 7.14696ZM16.0293 9.44169C14.7494 10.0615 13.8297 10.5069 12.9445 10.6731L12.9445 20.1283C13.4201 19.9924 14.041 19.7276 15.0575 19.2839C17.0266 18.4244 18.4245 17.8121 19.34 17.2444C20.272 16.6665 20.4445 16.2919 20.4445 15.9948L20.4445 7.28375C20.079 7.48208 19.6476 7.69082 19.1707 7.92155L16.0293 9.44169Z" fill="#020F4C"/>
<path d="M0.444503 11.9948C0.444503 11.5806 0.780289 11.2448 1.1945 11.2448L4.1945 11.2448C4.60872 11.2448 4.9445 11.5806 4.9445 11.9948C4.9445 12.409 4.60872 12.7448 4.1945 12.7448L1.1945 12.7448C0.780288 12.7448 0.444503 12.409 0.444503 11.9948Z" fill="#020F4C"/>
<path d="M1.1945 14.2448C0.780289 14.2448 0.444502 14.5806 0.444502 14.9948C0.444502 15.409 0.780288 15.7448 1.1945 15.7448L4.1945 15.7448C4.60872 15.7448 4.9445 15.409 4.9445 14.9948C4.9445 14.5806 4.60872 14.2448 4.1945 14.2448L1.1945 14.2448Z" fill="#020F4C"/>
</svg>
