<svg width="16" height="16" viewBox="0 0 16 16" fill="none" xmlns="http://www.w3.org/2000/svg">
<path d="M10 4.71323C10 4.26656 9.78 3.85323 9.40667 3.60656L6.74 1.82656C6.29333 1.52656 5.70667 1.52656 5.26 1.82656L2.59333 3.60656C2.22667 3.85323 2 4.26656 2 4.71323V8.4999C2 8.68656 2.14667 8.83323 2.33333 8.83323H9.66667C9.85333 8.83323 10 8.68656 10 8.4999V4.71323ZM6 7.16656C5.36 7.16656 4.83333 6.6399 4.83333 5.9999C4.83333 5.3599 5.36 4.83323 6 4.83323C6.64 4.83323 7.16667 5.3599 7.16667 5.9999C7.16667 6.6399 6.64 7.16656 6 7.16656Z" fill="#209370"/>
<path d="M14.6667 14.1666H13.82V12.1666C14.4534 11.9599 14.9134 11.3666 14.9134 10.6666V9.33325C14.9134 8.45992 14.2 7.74658 13.3267 7.74658C12.4534 7.74658 11.74 8.45992 11.74 9.33325V10.6666C11.74 11.3599 12.1934 11.9466 12.8134 12.1599V14.1666H10V10.1666C10 9.97992 9.85337 9.83325 9.66671 9.83325H2.33337C2.14671 9.83325 2.00004 9.97992 2.00004 10.1666V14.1666H1.33337C1.06004 14.1666 0.833374 14.3932 0.833374 14.6666C0.833374 14.9399 1.06004 15.1666 1.33337 15.1666H13.2867C13.3 15.1666 13.3067 15.1732 13.32 15.1732C13.3334 15.1732 13.34 15.1666 13.3534 15.1666H14.6667C14.94 15.1666 15.1667 14.9399 15.1667 14.6666C15.1667 14.3932 14.94 14.1666 14.6667 14.1666ZM5.50004 12.1666C5.50004 11.8932 5.72671 11.6666 6.00004 11.6666C6.27337 11.6666 6.50004 11.8932 6.50004 12.1666V14.1666H5.50004V12.1666Z" fill="#209370"/>
</svg>
