<svg width="14" height="14" viewBox="0 0 14 14" fill="none" xmlns="http://www.w3.org/2000/svg">
<path d="M12.8332 12.3965H1.1665C0.927337 12.3965 0.729004 12.5948 0.729004 12.834C0.729004 13.0732 0.927337 13.2715 1.1665 13.2715H12.8332C13.0723 13.2715 13.2707 13.0732 13.2707 12.834C13.2707 12.5948 13.0723 12.3965 12.8332 12.3965Z" fill="#009990"/>
<path d="M9.91667 1.16602H4.08333C2.33333 1.16602 1.75 2.21018 1.75 3.49935V12.8327H12.25V3.49935C12.25 2.21018 11.6667 1.16602 9.91667 1.16602ZM5.83333 10.0618H4.08333C3.84417 10.0618 3.64583 9.86351 3.64583 9.62435C3.64583 9.38518 3.84417 9.18685 4.08333 9.18685H5.83333C6.0725 9.18685 6.27083 9.38518 6.27083 9.62435C6.27083 9.86351 6.0725 10.0618 5.83333 10.0618ZM5.83333 7.43685H4.08333C3.84417 7.43685 3.64583 7.23852 3.64583 6.99935C3.64583 6.76018 3.84417 6.56185 4.08333 6.56185H5.83333C6.0725 6.56185 6.27083 6.76018 6.27083 6.99935C6.27083 7.23852 6.0725 7.43685 5.83333 7.43685ZM5.83333 4.81185H4.08333C3.84417 4.81185 3.64583 4.61352 3.64583 4.37435C3.64583 4.13518 3.84417 3.93685 4.08333 3.93685H5.83333C6.0725 3.93685 6.27083 4.13518 6.27083 4.37435C6.27083 4.61352 6.0725 4.81185 5.83333 4.81185ZM9.91667 10.0618H8.16667C7.9275 10.0618 7.72917 9.86351 7.72917 9.62435C7.72917 9.38518 7.9275 9.18685 8.16667 9.18685H9.91667C10.1558 9.18685 10.3542 9.38518 10.3542 9.62435C10.3542 9.86351 10.1558 10.0618 9.91667 10.0618ZM9.91667 7.43685H8.16667C7.9275 7.43685 7.72917 7.23852 7.72917 6.99935C7.72917 6.76018 7.9275 6.56185 8.16667 6.56185H9.91667C10.1558 6.56185 10.3542 6.76018 10.3542 6.99935C10.3542 7.23852 10.1558 7.43685 9.91667 7.43685ZM9.91667 4.81185H8.16667C7.9275 4.81185 7.72917 4.61352 7.72917 4.37435C7.72917 4.13518 7.9275 3.93685 8.16667 3.93685H9.91667C10.1558 3.93685 10.3542 4.13518 10.3542 4.37435C10.3542 4.61352 10.1558 4.81185 9.91667 4.81185Z" fill="#009990"/>
</svg>
