<svg width="16" height="16" viewBox="0 0 16 16" fill="none" xmlns="http://www.w3.org/2000/svg">
<path d="M5.3335 1.33301V3.33301" stroke="#2B6C9F" stroke-miterlimit="10" stroke-linecap="round" stroke-linejoin="round"/>
<path d="M10.6665 1.33301V3.33301" stroke="#2B6C9F" stroke-miterlimit="10" stroke-linecap="round" stroke-linejoin="round"/>
<path d="M2.3335 6.05957H13.6668" stroke="#2B6C9F" stroke-miterlimit="10" stroke-linecap="round" stroke-linejoin="round"/>
<path d="M14.6668 12.6667C14.6668 13.1667 14.5268 13.64 14.2802 14.04C13.8202 14.8133 12.9735 15.3333 12.0002 15.3333C11.3268 15.3333 10.7135 15.0867 10.2468 14.6667C10.0402 14.4933 9.86016 14.28 9.72016 14.04C9.4735 13.64 9.3335 13.1667 9.3335 12.6667C9.3335 11.1933 10.5268 10 12.0002 10C12.8002 10 13.5135 10.3533 14.0002 10.9067C14.4135 11.38 14.6668 11.9933 14.6668 12.6667Z" stroke="#2B6C9F" stroke-miterlimit="10" stroke-linecap="round" stroke-linejoin="round"/>
<path d="M10.96 12.667L11.62 13.327L13.04 12.0137" stroke="#2B6C9F" stroke-linecap="round" stroke-linejoin="round"/>
<path d="M14 5.66634V10.9063C13.5133 10.353 12.8 9.99967 12 9.99967C10.5267 9.99967 9.33333 11.193 9.33333 12.6663C9.33333 13.1663 9.47333 13.6397 9.72 14.0397C9.86 14.2797 10.04 14.493 10.2467 14.6663H5.33333C3 14.6663 2 13.333 2 11.333V5.66634C2 3.66634 3 2.33301 5.33333 2.33301H10.6667C13 2.33301 14 3.66634 14 5.66634Z" stroke="#2B6C9F" stroke-miterlimit="10" stroke-linecap="round" stroke-linejoin="round"/>
<path d="M7.99715 9.13314H8.00314" stroke="#2B6C9F" stroke-linecap="round" stroke-linejoin="round"/>
<path d="M5.52938 9.13314H5.53537" stroke="#2B6C9F" stroke-linecap="round" stroke-linejoin="round"/>
<path d="M5.52938 11.1331H5.53537" stroke="#2B6C9F" stroke-linecap="round" stroke-linejoin="round"/>
</svg>
