<svg width="16" height="17" viewBox="0 0 16 17" fill="none" xmlns="http://www.w3.org/2000/svg">
<path fill-rule="evenodd" clip-rule="evenodd" d="M3.54452 1.74313C3.92231 1.82121 4.22317 2.07504 4.4101 2.41039L5.00557 3.47868C5.22491 3.87216 5.40949 4.20328 5.53004 4.49113C5.65791 4.79647 5.73385 5.09758 5.69913 5.43049C5.66442 5.76339 5.52798 6.04235 5.33987 6.31474C5.16253 6.57153 4.9136 6.85744 4.6178 7.1972L3.13256 8.90321C4.31045 10.8339 6.04974 12.5739 7.98238 13.753L9.6884 12.2678C10.0282 11.972 10.3141 11.7231 10.5708 11.5457C10.8432 11.3576 11.1222 11.2212 11.4551 11.1865C11.788 11.1517 12.0891 11.2277 12.3945 11.3556C12.6823 11.4761 13.0134 11.6607 13.4069 11.88L14.4752 12.4755C14.8106 12.6624 15.0644 12.9633 15.1425 13.3411C15.2214 13.7228 15.105 14.1065 14.848 14.4219C13.9154 15.5661 12.4212 16.2947 10.8537 15.9785C9.89017 15.7841 8.93952 15.4603 7.78971 14.8009C5.47948 13.476 3.40809 11.4034 2.08471 9.09588C1.4253 7.94608 1.10149 6.99542 0.907125 6.03191C0.590928 4.46443 1.31948 2.97024 2.46373 2.03764C2.77908 1.78061 3.16278 1.66423 3.54452 1.74313ZM8.9138 14.268C9.69139 14.6512 10.3677 14.8603 11.0514 14.9982C12.1821 15.2263 13.3236 14.7093 14.0728 13.7901C14.1712 13.6694 14.1718 13.5852 14.1632 13.5435C14.1537 13.4979 14.1156 13.4199 13.9883 13.349L12.944 12.7668C12.5202 12.5306 12.2381 12.3742 12.0082 12.2779C11.79 12.1866 11.6647 12.17 11.5588 12.1811C11.4529 12.1921 11.3338 12.2341 11.1391 12.3686C10.934 12.5102 10.6902 12.7215 10.3243 13.04L8.9138 14.268ZM2.61758 7.97179L3.84557 6.56126C4.16412 6.19535 4.37537 5.95158 4.51702 5.74648C4.65147 5.55179 4.69349 5.43266 4.70453 5.32677C4.71557 5.22087 4.69904 5.09564 4.60765 4.8774C4.51137 4.64748 4.35496 4.36537 4.11875 3.94161L3.53663 2.89727C3.46571 2.77004 3.38772 2.73186 3.34211 2.72243C3.30044 2.71382 3.21619 2.71442 3.0955 2.81279C2.17632 3.56196 1.65929 4.70347 1.88738 5.83417C2.0253 6.51789 2.23443 7.19421 2.61758 7.97179Z" fill="#1570EF"/>
</svg>
