<svg width="16" height="16" viewBox="0 0 16 16" fill="none" xmlns="http://www.w3.org/2000/svg">
<path d="M14.6468 12.1054C14.6468 12.3454 14.5935 12.5921 14.4802 12.8321C14.3668 13.0721 14.2202 13.2988 14.0268 13.5121C13.7002 13.8721 13.3402 14.1321 12.9335 14.2988C12.5335 14.4654 12.1002 14.5521 11.6335 14.5521C10.9535 14.5521 10.2268 14.3921 9.46016 14.0654C8.6935 13.7388 7.92683 13.2988 7.16683 12.7454C6.40016 12.1854 5.6735 11.5654 4.98016 10.8788C4.2935 10.1854 3.6735 9.45875 3.12016 8.69875C2.5735 7.93875 2.1335 7.17875 1.8135 6.42542C1.4935 5.66542 1.3335 4.93875 1.3335 4.24542C1.3335 3.79208 1.4135 3.35875 1.5735 2.95875C1.7335 2.55208 1.98683 2.17875 2.34016 1.84542C2.76683 1.42542 3.2335 1.21875 3.72683 1.21875C3.9135 1.21875 4.10016 1.25875 4.26683 1.33875C4.44016 1.41875 4.5935 1.53875 4.7135 1.71208L6.26016 3.89208C6.38016 4.05875 6.46683 4.21208 6.52683 4.35875C6.58683 4.49875 6.62016 4.63875 6.62016 4.76542C6.62016 4.92542 6.5735 5.08542 6.48016 5.23875C6.3935 5.39208 6.26683 5.55208 6.10683 5.71208L5.60016 6.23875C5.52683 6.31208 5.4935 6.39875 5.4935 6.50542C5.4935 6.55875 5.50016 6.60542 5.5135 6.65875C5.5335 6.71208 5.5535 6.75208 5.56683 6.79208C5.68683 7.01208 5.8935 7.29875 6.18683 7.64542C6.48683 7.99208 6.80683 8.34542 7.1535 8.69875C7.5135 9.05208 7.86016 9.37875 8.2135 9.67875C8.56016 9.97208 8.84683 10.1721 9.0735 10.2921C9.10683 10.3054 9.14683 10.3254 9.1935 10.3454C9.24683 10.3654 9.30016 10.3721 9.36016 10.3721C9.4735 10.3721 9.56016 10.3321 9.6335 10.2588L10.1402 9.75875C10.3068 9.59208 10.4668 9.46542 10.6202 9.38542C10.7735 9.29208 10.9268 9.24542 11.0935 9.24542C11.2202 9.24542 11.3535 9.27208 11.5002 9.33208C11.6468 9.39208 11.8002 9.47875 11.9668 9.59208L14.1735 11.1588C14.3468 11.2788 14.4668 11.4187 14.5402 11.5854C14.6068 11.7521 14.6468 11.9188 14.6468 12.1054Z" stroke="#8AD0CC" stroke-width="1.2" stroke-miterlimit="10"/>
</svg>
