<svg width="20" height="20" viewBox="0 0 20 20" fill="none" xmlns="http://www.w3.org/2000/svg">
<path d="M14.3667 18.9587H5.63334C3.3 18.9587 1.81667 17.567 1.68334 15.242L1.25 8.36699C1.18334 7.32533 1.54167 6.32533 2.25834 5.56699C2.96667 4.80866 3.96667 4.37533 5 4.37533C5.26667 4.37533 5.525 4.21699 5.65 3.96699L6.25 2.77533C6.74167 1.80033 7.975 1.04199 9.05 1.04199H10.9583C12.0333 1.04199 13.2583 1.80033 13.75 2.76699L14.35 3.98366C14.475 4.21699 14.725 4.37533 15 4.37533C16.0333 4.37533 17.0333 4.80866 17.7417 5.56699C18.4583 6.33366 18.8167 7.32533 18.75 8.36699L18.3167 15.2503C18.1667 17.6087 16.725 18.9587 14.3667 18.9587ZM9.05 2.29199C8.43334 2.29199 7.65 2.77533 7.36667 3.33366L6.76667 4.53366C6.41667 5.20866 5.74167 5.62533 5 5.62533C4.3 5.62533 3.65 5.90866 3.16667 6.41699C2.69167 6.92533 2.45 7.59199 2.5 8.28366L2.93334 15.167C3.03334 16.8503 3.94167 17.7087 5.63334 17.7087H14.3667C16.05 17.7087 16.9583 16.8503 17.0667 15.167L17.5 8.28366C17.5417 7.59199 17.3083 6.92533 16.8333 6.41699C16.35 5.90866 15.7 5.62533 15 5.62533C14.2583 5.62533 13.5833 5.20866 13.2333 4.55033L12.625 3.33366C12.35 2.78366 11.5667 2.30033 10.95 2.30033H9.05V2.29199Z" fill="#433578"/>
<path d="M11.25 7.29199H8.75C8.40833 7.29199 8.125 7.00866 8.125 6.66699C8.125 6.32533 8.40833 6.04199 8.75 6.04199H11.25C11.5917 6.04199 11.875 6.32533 11.875 6.66699C11.875 7.00866 11.5917 7.29199 11.25 7.29199Z" fill="#433578"/>
<path d="M9.99999 15.6247C8.15832 15.6247 6.66666 14.133 6.66666 12.2913C6.66666 10.4497 8.15832 8.95801 9.99999 8.95801C11.8417 8.95801 13.3333 10.4497 13.3333 12.2913C13.3333 14.133 11.8417 15.6247 9.99999 15.6247ZM9.99999 10.208C8.84999 10.208 7.91666 11.1413 7.91666 12.2913C7.91666 13.4413 8.84999 14.3747 9.99999 14.3747C11.15 14.3747 12.0833 13.4413 12.0833 12.2913C12.0833 11.1413 11.15 10.208 9.99999 10.208Z" fill="#433578"/>
</svg>
