<svg width="17" height="16" viewBox="0 0 17 16" fill="none" xmlns="http://www.w3.org/2000/svg">
<path d="M12.6681 10C11.1948 10 10.0015 11.1933 10.0015 12.6667C10.0015 13.1667 10.1415 13.64 10.3881 14.04C10.8481 14.8133 11.6948 15.3333 12.6681 15.3333C13.6415 15.3333 14.4881 14.8133 14.9481 14.04C15.1948 13.64 15.3348 13.1667 15.3348 12.6667C15.3348 11.1933 14.1415 10 12.6681 10ZM14.0481 12.38L12.6281 13.6933C12.5348 13.78 12.4081 13.8267 12.2881 13.8267C12.1615 13.8267 12.0348 13.78 11.9348 13.68L11.2748 13.02C11.0815 12.8267 11.0815 12.5067 11.2748 12.3133C11.4681 12.12 11.7881 12.12 11.9815 12.3133L12.3015 12.6333L13.3681 11.6467C13.5681 11.46 13.8881 11.4733 14.0748 11.6733C14.2615 11.8733 14.2481 12.1867 14.0481 12.38Z" fill="white" fill-opacity="0.5"/>
<path d="M14.6681 5.03327V5.33327C14.6681 5.69993 14.3681 5.99993 14.0015 5.99993H2.00146C1.63479 5.99993 1.33479 5.69993 1.33479 5.33327V5.0266C1.33479 3.49993 2.56813 2.2666 4.09479 2.2666H11.9015C13.4281 2.2666 14.6681 3.5066 14.6681 5.03327Z" fill="white" fill-opacity="0.5"/>
<path d="M1.33479 7.6665V10.9732C1.33479 12.4998 2.56813 13.7332 4.09479 13.7332H8.26813C8.65479 13.7332 8.98813 13.4065 8.95479 13.0198C8.86146 11.9998 9.18813 10.8932 10.0948 10.0132C10.4681 9.6465 10.9281 9.3665 11.4281 9.2065C12.2615 8.93983 13.0681 8.97316 13.7815 9.21316C14.2148 9.35983 14.6681 9.0465 14.6681 8.5865V7.65983C14.6681 7.29316 14.3681 6.99316 14.0015 6.99316H2.00146C1.63479 6.99983 1.33479 7.29983 1.33479 7.6665ZM5.33479 11.4998H4.00146C3.72813 11.4998 3.50146 11.2732 3.50146 10.9998C3.50146 10.7265 3.72813 10.4998 4.00146 10.4998H5.33479C5.60813 10.4998 5.83479 10.7265 5.83479 10.9998C5.83479 11.2732 5.60813 11.4998 5.33479 11.4998Z" fill="white" fill-opacity="0.5"/>
</svg>
