<svg width="16" height="16" viewBox="0 0 16 16" fill="none" xmlns="http://www.w3.org/2000/svg">
<path d="M8.00016 1.33325C4.32016 1.33325 1.3335 4.31992 1.3335 7.99992C1.3335 11.6799 4.32016 14.6666 8.00016 14.6666C11.6802 14.6666 14.6668 11.6799 14.6668 7.99992C14.6668 4.31992 11.6802 1.33325 8.00016 1.33325ZM8.00016 5.83325C7.72683 5.83325 7.50016 5.60659 7.50016 5.33325C7.50016 5.05992 7.72683 4.83325 8.00016 4.83325C9.74683 4.83325 11.1668 6.25325 11.1668 7.99992C11.1668 9.74659 9.74683 11.1666 8.00016 11.1666C7.72683 11.1666 7.50016 10.9399 7.50016 10.6666C7.50016 10.3933 7.72683 10.1666 8.00016 10.1666C9.1935 10.1666 10.1668 9.19325 10.1668 7.99992C10.1668 6.80659 9.1935 5.83325 8.00016 5.83325ZM8.00016 13.1666C5.1535 13.1666 2.8335 10.8466 2.8335 7.99992C2.8335 7.72659 3.06016 7.49992 3.3335 7.49992C3.60683 7.49992 3.8335 7.72659 3.8335 7.99992C3.8335 10.2999 5.70016 12.1666 8.00016 12.1666C10.3002 12.1666 12.1668 10.2999 12.1668 7.99992C12.1668 5.69992 10.3002 3.83325 8.00016 3.83325C7.72683 3.83325 7.50016 3.60659 7.50016 3.33325C7.50016 3.05992 7.72683 2.83325 8.00016 2.83325C10.8468 2.83325 13.1668 5.15325 13.1668 7.99992C13.1668 10.8466 10.8468 13.1666 8.00016 13.1666Z" fill="#6F51F8"/>
</svg>
