<svg width="32" height="32" viewBox="0 0 32 32" fill="none" xmlns="http://www.w3.org/2000/svg">
<path d="M16 2.6665C8.65329 2.6665 2.66663 8.65317 2.66663 15.9998C2.66663 23.3465 8.65329 29.3332 16 29.3332C23.3466 29.3332 29.3333 23.3465 29.3333 15.9998C29.3333 8.65317 23.3466 2.6665 16 2.6665ZM22.3733 12.9332L14.8133 20.4932C14.6266 20.6798 14.3733 20.7865 14.1066 20.7865C13.84 20.7865 13.5866 20.6798 13.4 20.4932L9.62663 16.7198C9.23996 16.3332 9.23996 15.6932 9.62663 15.3065C10.0133 14.9198 10.6533 14.9198 11.04 15.3065L14.1066 18.3732L20.96 11.5198C21.3466 11.1332 21.9866 11.1332 22.3733 11.5198C22.76 11.9065 22.76 12.5332 22.3733 12.9332Z" fill="#2FAB86"/>
</svg>
