<svg width="16" height="16" viewBox="0 0 16 16" fill="none" xmlns="http://www.w3.org/2000/svg">
<path d="M7.99998 1.33333C4.32665 1.33333 1.33331 4.32666 1.33331 8C1.33331 11.6733 4.32665 14.6667 7.99998 14.6667C11.6733 14.6667 14.6666 11.6733 14.6666 8C14.6666 4.32666 11.6733 1.33333 7.99998 1.33333ZM10.9 10.38C10.8066 10.54 10.64 10.6267 10.4666 10.6267C10.38 10.6267 10.2933 10.6067 10.2133 10.5533L8.14665 9.31999C7.63331 9.01333 7.25331 8.33999 7.25331 7.74666V5.01333C7.25331 4.74 7.47998 4.51333 7.75331 4.51333C8.02665 4.51333 8.25331 4.74 8.25331 5.01333V7.74666C8.25331 7.98666 8.45331 8.33999 8.65998 8.45999L10.7266 9.69333C10.9666 9.83333 11.0466 10.14 10.9 10.38Z" fill="#A6840A"/>
</svg>
