<svg width="16" height="16" viewBox="0 0 16 16" fill="none" xmlns="http://www.w3.org/2000/svg">
<path d="M7.99992 1.33325C4.32659 1.33325 1.33325 4.32659 1.33325 7.99992C1.33325 11.6733 4.32659 14.6666 7.99992 14.6666C11.6733 14.6666 14.6666 11.6733 14.6666 7.99992C14.6666 4.32659 11.6733 1.33325 7.99992 1.33325ZM10.2399 9.53325C10.4333 9.72659 10.4333 10.0466 10.2399 10.2399C10.1399 10.3399 10.0133 10.3866 9.88659 10.3866C9.75992 10.3866 9.63325 10.3399 9.53325 10.2399L7.99992 8.70659L6.46659 10.2399C6.36659 10.3399 6.23992 10.3866 6.11325 10.3866C5.98659 10.3866 5.85992 10.3399 5.75992 10.2399C5.56659 10.0466 5.56659 9.72659 5.75992 9.53325L7.29325 7.99992L5.75992 6.46659C5.56659 6.27325 5.56659 5.95325 5.75992 5.75992C5.95325 5.56659 6.27325 5.56659 6.46659 5.75992L7.99992 7.29325L9.53325 5.75992C9.72659 5.56659 10.0466 5.56659 10.2399 5.75992C10.4333 5.95325 10.4333 6.27325 10.2399 6.46659L8.70659 7.99992L10.2399 9.53325Z" fill="#DB5353"/>
</svg>
