<svg width="32" height="32" viewBox="0 0 32 32" fill="none" xmlns="http://www.w3.org/2000/svg">
<path d="M29.2267 22.3335C28.7867 25.8801 25.88 28.7868 22.3333 29.2268C20.1867 29.4935 18.1867 28.9068 16.6267 27.7601C15.7333 27.1068 15.9467 25.7201 17.0133 25.4001C21.0267 24.1868 24.1867 21.0135 25.4133 17.0001C25.7333 15.9468 27.12 15.7335 27.7733 16.6135C28.9067 18.1868 29.4933 20.1868 29.2267 22.3335Z" fill="#6F51F8"/>
<path d="M13.32 2.66602C7.44 2.66602 2.66667 7.43935 2.66667 13.3193C2.66667 19.1993 7.44 23.9727 13.32 23.9727C19.2 23.9727 23.9733 19.1993 23.9733 13.3193C23.96 7.43935 19.2 2.66602 13.32 2.66602ZM12.0667 11.826L15.28 12.946C16.44 13.3593 17 14.1727 17 15.426C17 16.866 15.8533 18.0527 14.4533 18.0527H14.3333V18.1193C14.3333 18.666 13.88 19.1194 13.3333 19.1194C12.7867 19.1194 12.3333 18.666 12.3333 18.1193V18.0393C10.8533 17.9727 9.66667 16.7327 9.66667 15.186C9.66667 14.6393 10.12 14.186 10.6667 14.186C11.2133 14.186 11.6667 14.6393 11.6667 15.186C11.6667 15.666 12.0133 16.0527 12.44 16.0527H14.44C14.7467 16.0527 14.9867 15.7727 14.9867 15.426C14.9867 14.9593 14.9067 14.9327 14.6 14.826L11.3867 13.706C10.24 13.306 9.66667 12.4927 9.66667 11.226C9.66667 9.78602 10.8133 8.59935 12.2133 8.59935H12.3333V8.54602C12.3333 7.99935 12.7867 7.54602 13.3333 7.54602C13.88 7.54602 14.3333 7.99935 14.3333 8.54602V8.62602C15.8133 8.69268 17 9.93268 17 11.4793C17 12.026 16.5467 12.4793 16 12.4793C15.4533 12.4793 15 12.026 15 11.4793C15 10.9993 14.6533 10.6127 14.2267 10.6127H12.2267C11.92 10.6127 11.68 10.8927 11.68 11.2393C11.6667 11.6927 11.7467 11.7193 12.0667 11.826Z" fill="#6F51F8"/>
</svg>
