<svg width="20" height="21" viewBox="0 0 20 21" fill="none" xmlns="http://www.w3.org/2000/svg">
<path d="M13.3332 11.2493V14.7494C13.3332 17.666 12.1665 18.8327 9.24984 18.8327H5.74984C2.83317 18.8327 1.6665 17.666 1.6665 14.7494V11.2493C1.6665 8.33268 2.83317 7.16602 5.74984 7.16602H9.24984C12.1665 7.16602 13.3332 8.33268 13.3332 11.2493Z" stroke="#009990" stroke-width="1.5" stroke-linecap="round" stroke-linejoin="round"/>
<path d="M18.3332 6.24935V9.74935C18.3332 12.666 17.1665 13.8327 14.2498 13.8327H13.3332V11.2493C13.3332 8.33268 12.1665 7.16602 9.24984 7.16602H6.6665V6.24935C6.6665 3.33268 7.83317 2.16602 10.7498 2.16602H14.2498C17.1665 2.16602 18.3332 3.33268 18.3332 6.24935Z" stroke="#009990" stroke-width="1.5" stroke-linecap="round" stroke-linejoin="round"/>
</svg>
