<svg width="16" height="16" viewBox="0 0 16 16" fill="none" xmlns="http://www.w3.org/2000/svg">
<path d="M4.32965 13.3405C3.66388 12.5927 3.12613 11.8612 2.60667 11.1529C2.13207 10.5087 1.72056 9.82026 1.37782 9.0972C1.16329 8.65828 1.06833 8.21443 1.53292 7.9285C2.86481 7.1101 3.13773 7.89157 3.86118 8.79826C4.29025 9.33565 4.92331 10.2216 5.31968 10.7815C5.69846 11.3161 6.16024 10.3514 6.34418 10.0788C6.9994 9.11162 8.70163 6.74257 9.40538 5.86719C10.0733 5.03577 12.2288 2.70716 12.6305 2.33682C12.9727 2.02134 13.6951 1.3299 14.1808 1.7115C14.6907 2.11243 14.9404 2.87457 14.5817 3.37011C13.9567 4.23284 12.9755 5.05335 12.2964 5.87492C10.9219 7.53776 9.62062 9.33003 8.37138 11.1149C7.94688 11.7212 7.3511 12.7369 6.98111 13.3946C6.28897 14.6252 5.68158 14.8591 4.32965 13.3405Z" fill="#009990"/>
</svg>
