<svg width="18" height="19" viewBox="0 0 18 19" fill="none" xmlns="http://www.w3.org/2000/svg">
<path d="M8.99854 11.791H9.00017L9.00098 11.7901C9.34515 11.7901 9.62515 11.5118 9.62598 11.1668L9.64763 2.44931C10.2673 3.10441 10.9339 3.90197 11.0126 3.99607C11.0171 4.00145 11.0196 4.00453 11.0202 4.00516C11.2402 4.27099 11.6343 4.30765 11.9002 4.08682C12.1652 3.86682 12.2019 3.47265 11.9819 3.20682C11.9244 3.13682 10.5626 1.49932 9.7793 0.833484C9.5718 0.65765 9.316 0.554317 9.05933 0.541817H9.0477C8.7552 0.530984 8.47184 0.630146 8.22934 0.828479C8.22684 0.830146 8.22354 0.832652 8.22104 0.835152C7.43854 1.50099 6.07688 3.13848 6.01938 3.20765C5.79854 3.47348 5.83517 3.86765 6.101 4.08765C6.36683 4.30849 6.76013 4.27182 6.98096 4.00599C6.99096 3.99349 7.73015 3.10432 8.39682 2.40349L8.37517 11.1643C8.37434 11.5093 8.65354 11.7901 8.99854 11.791Z" fill="#9DA4AE"/>
<path d="M9.83171 18.4577C13.1392 18.4577 14.7992 18.4577 15.955 17.3552C17.1233 16.2402 17.1234 14.6511 17.1234 11.4827C17.1234 8.31439 17.1234 6.72439 15.9542 5.60939C15.4884 5.16606 14.9075 4.88354 14.1266 4.72021C13.7883 4.65021 13.4575 4.86688 13.3866 5.20438C13.3166 5.54272 13.5333 5.87356 13.8708 5.94439C14.4225 6.06023 14.7992 6.23605 15.0925 6.51521C15.8742 7.26021 15.8742 8.67185 15.8742 11.4826C15.8742 14.2934 15.8742 15.7052 15.0925 16.4502C14.2992 17.2077 12.8059 17.2077 9.83252 17.2077H8.16585C5.19252 17.2077 3.70001 17.2077 2.90584 16.4502C2.12419 15.7052 2.12419 14.2936 2.12419 11.4828C2.12419 8.672 2.1242 7.26105 2.90503 6.51605C3.1992 6.23688 3.57669 6.06023 4.12752 5.94523C4.46586 5.87439 4.68249 5.54272 4.61165 5.20522C4.54082 4.86688 4.21 4.65104 3.87166 4.72105C3.09083 4.88438 2.50996 5.16689 2.04329 5.61023C0.875 6.72519 0.875 8.31512 0.875 11.4824C0.875 14.6497 0.875 16.2403 2.04329 17.3552C3.19996 18.4577 4.86 18.4577 8.16665 18.4577H9.83171Z" fill="#9DA4AE"/>
</svg>
