<svg width="20" height="23" viewBox="0 0 20 23" fill="none" xmlns="http://www.w3.org/2000/svg">
<path d="M19.0453 7.3967V20.5349C19.0453 21.7583 18.0536 22.75 16.8302 22.75H3.16971C1.94632 22.75 0.95459 21.7583 0.95459 20.5349V2.46513C0.954543 1.24173 1.94628 0.25 3.16971 0.25H12.3192L19.0453 7.3967Z" fill="#1570EF"/>
<path d="M19.0452 7.3967H13.7958C12.9803 7.3967 12.3191 6.73553 12.3191 5.91995V0.25L19.0452 7.3967Z" fill="#020F4C"/>
<path d="M12.3191 0.25V5.91995C12.3191 6.73553 12.9803 7.3967 13.7958 7.3967H19.0452" fill="#020F4C"/>
<path d="M4.14282 17.4697V13.0596H5.56332C5.95271 13.0596 6.30315 13.1476 6.61463 13.325C6.92471 13.5009 7.16842 13.7504 7.34293 14.0735C7.51745 14.3951 7.60538 14.7556 7.60684 15.1551V15.3584C7.60684 15.7622 7.52176 16.1242 7.35156 16.4444C7.1814 16.7645 6.94056 17.014 6.63048 17.1957C6.3204 17.376 5.97432 17.4668 5.59356 17.4697L4.14282 17.4697ZM5.20567 13.8802V16.652H5.57485C5.88057 16.652 6.1142 16.5438 6.27718 16.326C6.44157 16.1097 6.52379 15.7867 6.52379 15.3584V15.168C6.52379 14.7411 6.44157 14.421 6.27718 14.2046C6.1142 13.9883 5.87626 13.8802 5.56332 13.8802H5.20567ZM11.8857 15.3555C11.8857 15.7852 11.8064 16.166 11.6463 16.4977C11.4877 16.8279 11.2613 17.0832 10.9671 17.262C10.6729 17.4409 10.3383 17.5303 9.96334 17.5303C9.58693 17.5303 9.25379 17.4437 8.96392 17.2707C8.67259 17.0991 8.44618 16.851 8.2832 16.5308C8.12167 16.2092 8.03513 15.8415 8.02792 15.4247V15.1767C8.02792 14.744 8.10723 14.3633 8.26585 14.0331C8.42448 13.7028 8.65088 13.449 8.94657 13.2687C9.24221 13.0884 9.57967 12.999 9.95753 12.999C10.331 12.999 10.6642 13.0885 10.9569 13.2659C11.2497 13.4432 11.4761 13.6971 11.6391 14.0244C11.8021 14.3533 11.8842 14.7282 11.8857 15.1522L11.8857 15.3555ZM10.8055 15.1709C10.8055 14.7325 10.732 14.3993 10.5849 14.1729C10.4393 13.9451 10.2302 13.8326 9.95757 13.8326C9.42399 13.8326 9.14274 14.232 9.11246 15.031L9.10956 15.3555C9.10956 15.7881 9.18024 16.1198 9.32443 16.352C9.46721 16.5841 9.68063 16.6995 9.96329 16.6995C10.2315 16.6995 10.4378 16.5856 10.5834 16.3577C10.729 16.1299 10.8026 15.801 10.8055 15.3742L10.8055 15.1709ZM16.0031 15.9756C15.9887 16.2828 15.9065 16.5539 15.755 16.789C15.6036 17.0241 15.3901 17.2072 15.1176 17.3355C14.8435 17.4653 14.5306 17.5302 14.1802 17.5302C13.6004 17.5302 13.1432 17.3413 12.8101 16.9635C12.477 16.5856 12.3111 16.0535 12.3111 15.3641V15.1463C12.3111 14.7137 12.3861 14.3359 12.5361 14.0128C12.6875 13.6883 12.9038 13.4374 13.1865 13.2615C13.4691 13.0841 13.7965 12.9961 14.1671 12.9961C14.7022 12.9961 15.1319 13.1374 15.4578 13.4186C15.7823 13.6998 15.9669 14.0878 16.0116 14.5824H14.9516C14.943 14.3142 14.8766 14.1224 14.7483 14.0041C14.6214 13.8873 14.4281 13.8296 14.1671 13.8296C13.9032 13.8296 13.7085 13.9277 13.5859 14.1253C13.4633 14.3243 13.3984 14.6401 13.3926 15.0742V15.3857C13.3926 15.8558 13.4517 16.1918 13.5685 16.3937C13.6868 16.5956 13.8902 16.6966 14.18 16.6966C14.4237 16.6966 14.6098 16.6389 14.7396 16.525C14.8694 16.4096 14.9372 16.2264 14.9458 15.9755L16.0031 15.9756Z" fill="white"/>
</svg>
