<svg width="19" height="19" viewBox="0 0 19 19" fill="none" xmlns="http://www.w3.org/2000/svg">
<path d="M5.28673 2.20905C6.30571 2.20905 6.65342 2.21855 6.94644 2.32843C7.63596 2.587 7.93849 3.19214 8.39991 4.11507L8.48857 4.29238H5.33317C4.98799 4.29238 4.70817 4.57221 4.70817 4.91738C4.70817 5.26256 4.98799 5.54238 5.33317 5.54238H9.48727C9.49596 5.54257 9.50466 5.54257 9.51338 5.54238H13.4582C14.349 5.54238 14.97 5.54314 15.4488 5.59184C15.9171 5.63948 16.1794 5.72777 16.3749 5.85838C16.5796 5.99518 16.7554 6.17096 16.8922 6.37569C17.154 6.76759 17.2052 7.17024 17.2079 8.66854C17.2086 9.01372 17.4889 9.29302 17.8341 9.29238C18.1793 9.29174 18.4586 9.01141 18.4579 8.66623C18.4553 7.26421 18.4421 6.44541 17.9315 5.68123C17.7035 5.34001 17.4105 5.04704 17.0693 4.81904C16.6342 4.52832 16.1424 4.40595 15.5753 4.34826C15.0258 4.29237 14.3411 4.29237 13.4919 4.29238L9.88611 4.29238L9.53099 3.58215C9.50505 3.53027 9.47874 3.47703 9.45188 3.42268C9.05853 2.62673 8.54822 1.59409 7.38533 1.15802C6.85295 0.958374 6.25988 0.958637 5.40204 0.959017L5.25776 0.95905C4.52548 0.959043 3.93488 0.959037 3.45792 1.00108C2.96647 1.0444 2.53641 1.13604 2.14365 1.35521C1.63761 1.63761 1.22007 2.05516 0.937668 2.5612C0.718489 2.95395 0.626856 3.38402 0.583535 3.87546C0.541491 4.35242 0.541497 4.94302 0.541504 5.6753V8.29853C0.541494 10.2222 0.541485 11.7297 0.699626 12.906C0.861493 14.1099 1.19928 15.0599 1.94495 15.8056C2.6353 16.4959 3.50144 16.8372 4.5837 17.0124C5.64768 17.1846 6.98609 17.2055 8.66538 17.2086L8.6665 17.2086H9.49984C9.84502 17.2086 10.1248 16.9287 10.1248 16.5836C10.1248 16.2384 9.84502 15.9586 9.49984 15.9586L8.66763 15.9586L8.66675 15.9586C6.96727 15.9555 5.73156 15.9319 4.78343 15.7784C3.8534 15.6279 3.26935 15.3622 2.82883 14.9217C2.35412 14.447 2.08171 13.8047 1.93848 12.7394C1.79283 11.6561 1.7915 10.2326 1.7915 8.25072V5.70428C1.7915 4.93624 1.79207 4.40084 1.82871 3.98522C1.86462 3.57783 1.93145 3.3455 2.0292 3.17034C2.19864 2.86672 2.44917 2.61619 2.75279 2.44675C2.92796 2.349 3.16028 2.28216 3.56768 2.24625C3.98329 2.20962 4.5187 2.20905 5.28673 2.20905Z" fill="#9DA4AE"/>
<path d="M15.5415 10.7507C15.5415 10.4055 15.2617 10.1257 14.9165 10.1257C14.5713 10.1257 14.2915 10.4055 14.2915 10.7507V16.1356L14.2865 16.1296C14.1109 15.9225 13.939 15.7036 13.7783 15.4988L13.7409 15.4512C13.5808 15.2473 13.4122 15.033 13.2813 14.8984C13.0408 14.6508 12.6451 14.6452 12.3976 14.8858C12.15 15.1264 12.1444 15.5221 12.385 15.7696C12.4589 15.8457 12.5803 15.9972 12.7579 16.2233L12.7971 16.2733C12.9555 16.4751 13.1414 16.7118 13.3328 16.9377C13.538 17.1799 13.7676 17.4314 13.9972 17.6269C14.1122 17.7248 14.2419 17.8215 14.3814 17.8961C14.5159 17.9681 14.7013 18.0423 14.9165 18.0423C15.1317 18.0423 15.3171 17.9681 15.4517 17.8961C15.5911 17.8215 15.7208 17.7248 15.8358 17.6269C16.0654 17.4314 16.2951 17.1799 16.5002 16.9377C16.6917 16.7118 16.8775 16.4751 17.0359 16.2733L17.0751 16.2233C17.2527 15.9972 17.3741 15.8456 17.448 15.7696C17.6886 15.5221 17.683 15.1264 17.4355 14.8858C17.1879 14.6452 16.7922 14.6508 16.5517 14.8984C16.4208 15.033 16.2523 15.2473 16.0921 15.4512L16.0548 15.4987C15.894 15.7035 15.7221 15.9225 15.5466 16.1296L15.5415 16.1356V10.7507Z" fill="#9DA4AE"/>
</svg>
