<svg width="18" height="18" viewBox="0 0 18 18" fill="none" xmlns="http://www.w3.org/2000/svg">
<path d="M9.00016 12.8438C8.78493 12.8438 8.59955 12.7696 8.46502 12.6976C8.32552 12.6229 8.19586 12.5263 8.08082 12.4283C7.85126 12.2328 7.62161 11.9813 7.41644 11.7392C7.225 11.5132 7.03918 11.2765 6.88079 11.0747L6.84159 11.0248C6.66393 10.7986 6.54257 10.6471 6.46865 10.571C6.22807 10.3235 6.23369 9.92783 6.48121 9.68724C6.72873 9.44666 7.12442 9.45228 7.36501 9.6998C7.49589 9.83446 7.66442 10.0487 7.82461 10.2527L7.86188 10.3001C8.02264 10.5049 8.19455 10.7239 8.37011 10.9311L8.37516 10.937V5.55208C8.37516 5.20691 8.65499 4.92708 9.00016 4.92708C9.34534 4.92708 9.62516 5.20691 9.62516 5.55208V10.937L9.63021 10.9311C9.80578 10.7239 9.97769 10.5049 10.1385 10.3001L10.1757 10.2527C10.3359 10.0487 10.5044 9.83446 10.6353 9.6998C10.8759 9.45228 11.2716 9.44666 11.5191 9.68724C11.7666 9.92783 11.7723 10.3235 11.5317 10.571C11.4578 10.6471 11.3364 10.7986 11.1587 11.0248L11.1195 11.0747C10.9611 11.2765 10.7753 11.5132 10.5839 11.7392C10.3787 11.9813 10.1491 12.2328 9.91951 12.4283C9.80447 12.5263 9.6748 12.6229 9.53531 12.6976C9.40078 12.7696 9.2154 12.8438 9.00016 12.8438Z" fill="#020F4C"/>
<path fill-rule="evenodd" clip-rule="evenodd" d="M9.04781 0.34375H8.95252C7.12693 0.343739 5.69303 0.34373 4.57352 0.494245C3.4263 0.648484 2.51609 0.971013 1.80092 1.68618C1.08576 2.40134 0.76323 3.31156 0.608991 4.45877C0.458476 5.57828 0.458485 7.01218 0.458496 8.83777V8.93306C0.458485 10.7587 0.458476 12.1925 0.608991 13.3121C0.76323 14.4593 1.08576 15.3695 1.80092 16.0847C2.51609 16.7998 3.4263 17.1224 4.57352 17.2766C5.69303 17.4271 7.12692 17.4271 8.9525 17.4271H9.0478C10.8734 17.4271 12.3073 17.4271 13.4268 17.2766C14.574 17.1224 15.4842 16.7998 16.1994 16.0847C16.9146 15.3695 17.2371 14.4593 17.3913 13.3121C17.5418 12.1926 17.5418 10.7587 17.5418 8.93308V8.83778C17.5418 7.0122 17.5418 5.57828 17.3913 4.45877C17.2371 3.31156 16.9146 2.40134 16.1994 1.68618C15.4842 0.971013 14.574 0.648484 13.4268 0.494245C12.3073 0.34373 10.8734 0.343739 9.04781 0.34375ZM2.68481 2.57006C3.12901 2.12586 3.73147 1.8687 4.74008 1.7331C5.76666 1.59508 7.11652 1.59375 9.00016 1.59375C10.8838 1.59375 12.2337 1.59508 13.2603 1.7331C14.2689 1.8687 14.8713 2.12586 15.3155 2.57006C15.7597 3.01427 16.0169 3.61673 16.1525 4.62533C16.2905 5.65191 16.2918 7.00177 16.2918 8.88542C16.2918 10.7691 16.2905 12.1189 16.1525 13.1455C16.0169 14.1541 15.7597 14.7566 15.3155 15.2008C14.8713 15.645 14.2689 15.9021 13.2603 16.0377C12.2337 16.1758 10.8838 16.1771 9.00016 16.1771C7.11652 16.1771 5.76666 16.1758 4.74008 16.0377C3.73147 15.9021 3.12901 15.645 2.68481 15.2008C2.2406 14.7566 1.98345 14.1541 1.84784 13.1455C1.70982 12.1189 1.7085 10.7691 1.7085 8.88542C1.7085 7.00177 1.70982 5.65191 1.84784 4.62533C1.98345 3.61673 2.2406 3.01427 2.68481 2.57006Z" fill="#020F4C"/>
</svg>
