<svg width="12" height="12" viewBox="0 0 12 12" fill="none" xmlns="http://www.w3.org/2000/svg">
<path d="M5.5 1H4.5C2 1 1 2 1 4.5V7.5C1 10 2 11 4.5 11H7.5C10 11 11 10 11 7.5V6.5" stroke="#009990" stroke-linecap="round" stroke-linejoin="round"/>
<path d="M8.01994 1.51061L4.07994 5.45061C3.92994 5.60062 3.77994 5.89562 3.74994 6.11062L3.53494 7.61562C3.45494 8.16062 3.83994 8.54062 4.38494 8.46562L5.88994 8.25062C6.09994 8.22062 6.39494 8.07062 6.54994 7.92062L10.4899 3.98062C11.1699 3.30061 11.4899 2.51061 10.4899 1.51061C9.48994 0.510615 8.69994 0.830615 8.01994 1.51061Z" stroke="#009990" stroke-miterlimit="10" stroke-linecap="round" stroke-linejoin="round"/>
<path d="M7.45508 2.07422C7.79008 3.26922 8.72508 4.20422 9.92508 4.54422" stroke="#009990" stroke-miterlimit="10" stroke-linecap="round" stroke-linejoin="round"/>
</svg>
