<svg width="126" height="130" viewBox="0 0 126 130" fill="none" xmlns="http://www.w3.org/2000/svg">
<path d="M13.4195 95.6601C8.22949 90.2417 1.55049 83.2695 0.835999 73.9469C0.0417737 63.5866 6.99563 55.3107 11.1369 51.3428C12.5042 50.0325 14.0461 48.9194 15.7249 48.0442C18.9381 46.369 22.7882 43.6704 25.5067 39.3054C28.8378 33.9565 27.8093 30.3759 29.6461 25.2167C34.3961 11.8746 51.5514 6.95519 52.6608 6.65281C65.4394 3.17141 76.2915 7.80065 82.0227 11.1972C84.3082 12.5517 86.279 14.3697 87.8794 16.4913C89.2527 18.3121 91.1501 20.3411 93.7232 22.0674C98.9719 25.5895 102.694 24.9425 107.466 26.7086C115.83 29.8037 121.95 38.2878 124.189 46.2669C127.028 56.3878 123.496 65.2418 120.996 69.8244C119.552 72.471 118.706 75.3993 118.526 78.4096C118.45 79.6807 118.399 81.0731 118.394 82.5662C118.364 90.1462 119.524 91.8857 119.222 95.4945C118.334 106.1 106.487 112.992 105.479 113.561C96.6553 118.541 87.8462 117.268 84.0045 116.349C82.0943 115.892 80.1297 115.699 78.1695 115.821C76.9541 115.896 75.612 116.064 74.1855 116.379C67.9118 117.766 65.5116 120.794 61.4363 122.843C53.7536 126.707 43.101 125.59 35.6068 120.854C30.1851 117.428 27.1452 112.567 25.477 108.826C24.1293 105.804 22.0459 103.175 19.4475 101.129C17.5632 99.6454 15.5038 97.8362 13.4195 95.6601Z" fill="#E6F5F4"/>
<path d="M40.653 9.30114C40.0921 6.95601 38.5671 5.41846 35.9033 4.83468C35.6875 4.78741 35.6682 4.48848 35.877 4.41648C38.3282 3.57039 39.8869 2.14772 40.5536 0.148472C40.6252 -0.066259 40.9304 -0.0415309 40.9738 0.1804C41.4122 2.41442 43.0188 3.74224 45.4731 4.41273C45.6973 4.47408 45.6857 4.79023 45.4581 4.8375C43.0851 5.32987 41.6717 6.86836 41.0761 9.29708C41.0217 9.51932 40.7065 9.5237 40.653 9.30114Z" fill="#E6F5F4"/>
<path d="M6.91183 39.8578C6.08931 36.846 3.9767 34.8543 0.347695 34.0607C-0.00156537 33.9841 -0.0201659 33.5236 0.317728 33.4099C3.64552 32.2899 5.79224 30.4494 6.75735 27.8894C6.88083 27.5616 7.37166 27.5923 7.45019 27.9323C8.10996 30.7855 10.3104 32.5119 13.6413 33.4109C13.9999 33.508 13.9895 33.9894 13.6258 34.0675C10.4122 34.7538 8.46697 36.7431 7.60777 39.848C7.51374 40.1856 7.0038 40.1963 6.91183 39.8578Z" fill="#054699"/>
<path d="M111.335 14.9642C110.594 11.9525 108.693 9.96076 105.427 9.16709C105.113 9.09051 105.096 8.63002 105.4 8.51636C108.395 7.39635 110.327 5.55585 111.196 2.99584C111.307 2.66803 111.748 2.69876 111.819 3.03877C112.413 5.89195 114.393 7.61831 117.391 8.51733C117.714 8.61441 117.704 9.09588 117.377 9.17392C114.485 9.86027 112.734 11.8496 111.961 14.9544C111.876 15.292 111.418 15.3027 111.335 14.9642Z" fill="#009990"/>
<path d="M117.043 51.2956C116.545 49.363 115.267 48.085 113.07 47.5757C112.859 47.5265 112.848 47.231 113.052 47.1581C115.066 46.4394 116.366 45.2584 116.95 43.6157C117.024 43.4053 117.321 43.425 117.369 43.6432C117.768 45.4741 119.1 46.5818 121.116 47.1587C121.333 47.221 121.327 47.53 121.107 47.5801C119.162 48.0205 117.984 49.297 117.464 51.2893C117.407 51.5059 117.099 51.5125 117.043 51.2956Z" fill="#054699"/>
<path d="M117.672 129.841C117.174 127.908 115.895 126.63 113.699 126.121C113.488 126.072 113.476 125.776 113.681 125.703C115.695 124.984 116.994 123.803 117.578 122.161C117.653 121.95 117.95 121.97 117.997 122.188C118.397 124.019 119.728 125.127 121.744 125.704C121.961 125.766 121.955 126.075 121.735 126.125C119.79 126.566 118.613 127.842 118.093 129.834C118.036 130.051 117.728 130.058 117.672 129.841Z" fill="#E6F5F4"/>
<path d="M8.35959 119.705C7.86179 117.773 6.58321 116.495 4.3869 115.985C4.17552 115.936 4.16426 115.641 4.36876 115.568C6.38278 114.849 7.68199 113.668 8.26609 112.025C8.34083 111.815 8.63788 111.835 8.68541 112.053C9.08471 113.884 10.4164 114.992 12.4323 115.568C12.6493 115.631 12.6431 115.94 12.423 115.99C10.478 116.43 9.30078 117.707 8.78078 119.699C8.72387 119.915 8.41525 119.922 8.35959 119.705Z" fill="#E6F5F4"/>
<path d="M77 53.5918C76.86 53.5684 76.6967 53.5684 76.5567 53.5918C73.3367 53.4751 70.77 50.8384 70.77 47.5718C70.77 44.2351 73.4533 41.5518 76.79 41.5518C80.1267 41.5518 82.81 44.2584 82.81 47.5718C82.7867 50.8384 80.22 53.4751 77 53.5918Z" stroke="#009990" stroke-width="3" stroke-linecap="round" stroke-linejoin="round"/>
<path d="M74.5964 70.5788C77.793 71.1155 81.3164 70.5555 83.7897 68.8988C87.0797 66.7055 87.0797 63.1121 83.7897 60.9188C81.293 59.2621 77.723 58.7021 74.5264 59.2621" stroke="#009990" stroke-width="3" stroke-linecap="round" stroke-linejoin="round"/>
<path d="M48.9301 53.5918C49.0701 53.5684 49.2335 53.5684 49.3735 53.5918C52.5935 53.4751 55.1601 50.8384 55.1601 47.5718C55.1601 44.2351 52.4768 41.5518 49.1401 41.5518C45.8035 41.5518 43.1201 44.2584 43.1201 47.5718C43.1435 50.8384 45.7101 53.4751 48.9301 53.5918Z" stroke="#009990" stroke-width="3" stroke-linecap="round" stroke-linejoin="round"/>
<path d="M51.3332 70.5788C48.1365 71.1155 44.6132 70.5555 42.1399 68.8988C38.8499 66.7055 38.8499 63.1121 42.1399 60.9188C44.6365 59.2621 48.2065 58.7021 51.4032 59.2621" stroke="#009990" stroke-width="3" stroke-linecap="round" stroke-linejoin="round"/>
<path d="M62.9995 71.0219C62.8595 70.9986 62.6962 70.9986 62.5562 71.0219C59.3362 70.9053 56.7695 68.2686 56.7695 65.0019C56.7695 61.6653 59.4529 58.9819 62.7895 58.9819C66.1262 58.9819 68.8095 61.6886 68.8095 65.0019C68.7862 68.2686 66.2195 70.9286 62.9995 71.0219Z" stroke="#009990" stroke-width="4" stroke-linecap="round" stroke-linejoin="round"/>
<path d="M56.2097 78.3711C52.9197 80.5644 52.9197 84.1578 56.2097 86.3511C59.943 88.8478 66.0564 88.8478 69.7897 86.3511C73.0797 84.1578 73.0797 80.5644 69.7897 78.3711C66.0797 75.8978 59.943 75.8978 56.2097 78.3711Z" stroke="#009990" stroke-width="4" stroke-linecap="round" stroke-linejoin="round"/>
</svg>
