<svg width="225" height="212" viewBox="0 0 225 212" fill="none" xmlns="http://www.w3.org/2000/svg">
<g clip-path="url(#clip0_940_12845)">
<path d="M123.274 168.008H71.5519V207.998H123.274V168.008Z" fill="#EBEBEB"/>
<path d="M110.317 207.719C110.248 207.719 110.188 198.803 110.188 187.806C110.188 176.809 110.248 167.893 110.317 167.893C110.387 167.893 110.447 176.809 110.447 187.806C110.447 198.803 110.387 207.719 110.317 207.719Z" fill="#E0E0E0"/>
<path d="M118.889 198.896H114.926V203.392H118.889V198.896Z" fill="#FAFAFA"/>
<path d="M93.2091 168.111H87.3342V176.644H93.2091V168.111Z" fill="#E0E0E0"/>
<path d="M93.2091 199.346H87.3342V207.878H93.2091V199.346Z" fill="#E0E0E0"/>
<path d="M217.129 157.98H151.909V208.405H217.129V157.98Z" fill="#EBEBEB"/>
<path d="M200.785 208.047C200.716 208.047 200.656 196.811 200.656 182.946C200.656 169.082 200.716 157.846 200.785 157.846C200.855 157.846 200.914 169.082 200.914 182.946C200.914 196.811 200.86 208.047 200.785 208.047Z" fill="#E0E0E0"/>
<path d="M211.601 196.926H206.601V202.591H211.601V196.926Z" fill="#FAFAFA"/>
<path d="M179.217 158.109H171.808V168.867H179.217V158.109Z" fill="#E0E0E0"/>
<path d="M179.217 197.494H171.808V208.252H179.217V197.494Z" fill="#E0E0E0"/>
<path d="M29.0667 159.464C31.7087 158.1 34.8175 157.921 37.7475 158.409C39.3217 158.667 40.9606 159.14 42.0332 160.325C43.1059 161.51 43.3046 163.596 42.0779 164.617C41.3429 165.224 40.3249 165.314 39.3714 165.304C37.077 165.274 34.5344 164.87 32.7019 166.254C31.654 167.046 30.9588 168.355 29.7222 168.744C28.4857 169.132 27.12 168.4 26.4744 167.295C25.8771 166.142 25.7455 164.803 26.1069 163.556C26.2531 162.692 26.5962 161.873 27.1096 161.163C27.6229 160.454 28.2927 159.872 29.0667 159.464Z" fill="#EBEBEB"/>
<path d="M23.018 147.761C24.632 150.071 27.7705 149.309 29.2256 147.895C30.6807 146.482 31.2965 144.44 31.8527 142.494C33.134 138.038 34.4202 133.364 33.4716 128.829C33.2433 127.453 32.64 126.168 31.7285 125.115C31.2671 124.598 30.6788 124.21 30.022 123.991C29.3652 123.772 28.6627 123.728 27.9841 123.865C26.3999 124.283 25.4166 125.857 24.7064 127.315C22.6127 131.676 21.5166 136.45 21.4983 141.289C21.4983 143.544 21.7516 145.904 23.018 147.761Z" fill="#EBEBEB"/>
<path d="M18.5882 151.076C20.3412 148.99 20.674 145.954 19.8943 143.34C19.1146 140.726 17.3516 138.506 15.3205 136.689C12.9316 134.559 10.1518 132.915 7.13631 131.85C5.9676 131.377 4.71051 131.163 3.45145 131.223C2.82337 131.259 2.21358 131.448 1.6752 131.774C1.13682 132.101 0.686176 132.554 0.362526 133.095C-0.501579 134.742 0.327763 136.739 1.22166 138.372C2.79583 141.245 4.59246 143.989 6.59501 146.581C8.20899 148.662 10.0713 150.718 12.5097 151.659C14.948 152.6 17.5205 152.49 18.8216 150.782" fill="#EBEBEB"/>
<path d="M22.9087 182.618C22.9949 182.276 23.0449 181.925 23.0577 181.572C23.1322 180.806 23.2216 179.845 23.3358 178.705C23.4782 177.294 23.692 175.892 23.9764 174.503C24.3496 172.805 24.8595 171.14 25.501 169.525C26.1303 167.92 26.9812 166.412 28.0288 165.045C28.8852 163.932 29.9754 163.023 31.222 162.381C32.0698 161.962 32.9781 161.68 33.9136 161.545C34.2658 161.531 34.6154 161.479 34.9565 161.39C34.605 161.352 34.2503 161.352 33.8987 161.39C32.9273 161.464 31.9769 161.712 31.0929 162.122C29.7765 162.745 28.6223 163.665 27.7209 164.811C26.6244 166.196 25.7407 167.738 25.0988 169.386C24.458 171.02 23.9595 172.708 23.6089 174.429C23.3388 175.835 23.1514 177.256 23.0478 178.685C22.9584 179.905 22.9236 180.89 22.9087 181.572C22.8721 181.92 22.8721 182.27 22.9087 182.618Z" fill="#E0E0E0"/>
<path d="M23.1074 180.418C23.1368 180.254 23.1468 180.086 23.1371 179.92C23.1371 179.551 23.1371 179.089 23.1371 178.526C23.1371 177.316 23.1372 175.564 23.1967 173.403C23.306 169.082 23.6934 164.442 24.3936 157.876C25.0739 151.708 25.9827 144.534 26.9462 139.87C27.1498 138.809 27.3584 137.853 27.557 137.017C27.7556 136.181 27.8997 135.454 28.0536 134.871C28.2076 134.289 28.292 133.876 28.3814 133.517C28.43 133.356 28.4583 133.188 28.4658 133.02C28.391 133.165 28.3343 133.319 28.297 133.478C28.1877 133.831 28.0536 134.269 27.8897 134.812C27.7258 135.354 27.5272 136.111 27.3186 136.942C27.11 137.774 26.8717 138.73 26.6482 139.79C25.4552 145.307 24.5584 150.884 23.9615 156.497C23.2464 163.068 22.9236 169.052 22.8938 173.383C22.8938 175.549 22.8938 177.306 22.9683 178.516C23.0031 179.079 23.0329 179.542 23.0527 179.905C23.0503 180.077 23.0686 180.25 23.1074 180.418Z" fill="#E0E0E0"/>
<path d="M23.1371 168.878C23.175 168.393 23.175 167.905 23.1371 167.42C23.0825 166.484 22.9534 165.135 22.6902 163.477C22.3654 161.539 21.931 159.621 21.3891 157.732C20.7628 155.407 19.9609 153.134 18.9904 150.932C17.3289 146.873 14.9444 143.152 11.9534 139.95C11.4345 139.4 10.8804 138.884 10.2948 138.406C10.0415 138.187 9.79815 137.973 9.58958 137.804L8.97378 137.361C8.58728 137.065 8.177 136.802 7.74714 136.574C7.67762 136.669 9.48032 137.734 11.7548 140.159C14.6479 143.391 16.9691 147.095 18.618 151.111C19.5717 153.299 20.3764 155.549 21.0265 157.846C21.5726 159.718 22.0251 161.615 22.3823 163.532C22.6803 165.169 22.8789 166.519 22.9584 167.435C22.9796 167.92 23.0394 168.403 23.1371 168.878Z" fill="#E0E0E0"/>
<path d="M11.2433 187.477L12.3954 203.317H32.6969L33.8491 187.477H11.2433Z" fill="#EBEBEB"/>
<path d="M36.2725 181.234H9.28168V187.477H36.2725V181.234Z" fill="#EBEBEB"/>
<path d="M9.28168 202.715V204.442H10.548H35.8256V202.715H9.28168Z" fill="#E0E0E0"/>
<path d="M11.7896 207.301L10.548 204.254H34.8572L33.4071 207.301H11.7896Z" fill="#E0E0E0"/>
<path d="M33.4716 192.655C33.4463 192.708 33.4146 192.758 33.3773 192.804C33.2978 192.909 33.1935 193.043 33.0744 193.207L31.8924 194.701L31.8378 194.771L31.7881 194.701L28.883 190.673H29.0468L26.1864 194.731L26.097 194.86L25.9976 194.741L22.6058 190.693H22.7995L22.6157 190.932L19.5814 194.741L19.4771 194.87L19.3877 194.736L16.5223 190.678H16.6911L13.1652 194.701L13.1056 194.776L13.0559 194.691L11.9534 192.859C11.8343 192.66 11.7449 192.495 11.6704 192.361C11.6329 192.305 11.6029 192.245 11.581 192.182C11.6275 192.23 11.6675 192.283 11.7002 192.341L12.013 192.814L13.1701 194.641H13.0609L16.5372 190.569L16.6216 190.464L16.7011 190.574L19.5913 194.616H19.4026L22.427 190.798C22.4916 190.718 22.5561 190.639 22.6107 190.564L22.7101 190.439L22.8094 190.559L26.1913 194.616H26.0026L28.8929 190.579L28.9773 190.459L29.0568 190.579C30.2039 192.217 31.1773 193.606 31.9024 194.651H31.7981L33.0297 193.158C33.1637 193.003 33.273 192.879 33.3574 192.774C33.3925 192.732 33.4307 192.692 33.4716 192.655Z" fill="#F5F5F5"/>
<path d="M34.1321 187.373C34.1321 187.442 29.0419 187.502 22.7697 187.502C16.4974 187.502 11.4072 187.442 11.4072 187.373C11.4072 187.303 16.4925 187.248 22.7697 187.248C29.0468 187.248 34.1321 187.303 34.1321 187.373Z" fill="#F5F5F5"/>
<path d="M176.542 7.73133L172.38 7.75391L172.492 28.513L176.654 28.4905L176.542 7.73133Z" fill="#E0E0E0"/>
<path d="M147.103 7.78725L136.327 7.8457L136.389 19.3055L147.165 19.2471L147.103 7.78725Z" fill="#EBEBEB"/>
<path d="M157.83 7.72866L147.053 7.78711L147.115 19.2469L157.891 19.1885L157.83 7.72866Z" fill="#F5F5F5"/>
<path d="M136.34 11.0171C143.504 11.0768 150.672 11.0437 157.843 10.9175C157.873 10.9175 157.903 10.9055 157.924 10.884C157.945 10.8625 157.957 10.8334 157.957 10.803C157.957 10.7727 157.945 10.7435 157.924 10.7221C157.903 10.7006 157.873 10.6885 157.843 10.6885C150.682 10.6487 143.501 10.6885 136.34 10.8229C136.318 10.828 136.298 10.8403 136.284 10.8579C136.27 10.8756 136.263 10.8975 136.263 10.92C136.263 10.9426 136.27 10.9645 136.284 10.9821C136.298 10.9998 136.318 11.0121 136.34 11.0171Z" fill="#E0E0E0"/>
<path d="M149.19 19.0559L129.609 19.1621L129.66 28.5012L149.241 28.395L149.19 19.0559Z" fill="#EBEBEB"/>
<path d="M168.677 18.9504L149.095 19.0566L149.146 28.3958L168.727 28.2896L168.677 18.9504Z" fill="#F5F5F5"/>
<path d="M129.621 21.7708C142.627 21.9152 155.678 21.7708 168.689 21.5767C168.719 21.5767 168.749 21.5646 168.77 21.5431C168.791 21.5217 168.803 21.4925 168.803 21.4622C168.803 21.4318 168.791 21.4027 168.77 21.3812C168.749 21.3597 168.719 21.3477 168.689 21.3477C155.683 21.278 142.627 21.2829 129.621 21.5717C129.594 21.5717 129.569 21.5822 129.55 21.6008C129.532 21.6195 129.521 21.6448 129.521 21.6713C129.521 21.6977 129.532 21.723 129.55 21.7417C129.569 21.7603 129.594 21.7708 129.621 21.7708Z" fill="#E0E0E0"/>
<path d="M198.158 28.5098H122.296V31.8552H198.158V28.5098Z" fill="#E0E0E0"/>
<path d="M137.795 30.1191H134.716V41.5343H137.795V30.1191Z" fill="#E0E0E0"/>
<path d="M183.766 30.1191H180.687V41.5343H183.766V30.1191Z" fill="#E0E0E0"/>
<path d="M180.602 -0.0108527L176.44 0.0117188L176.594 28.5617L180.756 28.5392L180.602 -0.0108527Z" fill="#EBEBEB"/>
<path d="M187.106 5.30477L180.64 5.33984L180.765 28.4785L187.231 28.4435L187.106 5.30477Z" fill="#F5F5F5"/>
<path d="M187.059 9.77129C184.91 9.92348 182.752 9.92348 180.603 9.77129C182.752 9.62571 184.909 9.62571 187.059 9.77129Z" fill="#E0E0E0"/>
<path d="M187.059 8.82703C185.985 8.93599 184.905 8.97258 183.826 8.93656C182.747 8.97239 181.667 8.9358 180.593 8.82703C182.742 8.67484 184.9 8.67484 187.049 8.82703H187.059Z" fill="#E0E0E0"/>
<path d="M187.059 24.9705C184.91 25.1227 182.752 25.1227 180.603 24.9705C182.752 24.8249 184.909 24.8249 187.059 24.9705Z" fill="#E0E0E0"/>
<path d="M187.059 24.0009C184.909 24.1464 182.752 24.1464 180.603 24.0009C182.752 23.8487 184.91 23.8487 187.059 24.0009Z" fill="#E0E0E0"/>
<path d="M183.93 21.8787C183.871 21.8787 183.821 19.5439 183.821 16.6665C183.821 13.789 183.871 11.4492 183.93 11.4492C183.99 11.4492 184.044 13.784 184.044 16.6665C184.044 19.5489 183.995 21.8787 183.93 21.8787Z" fill="#E0E0E0"/>
<path d="M194.17 10.9961H187.133V28.4599H194.17V10.9961Z" fill="#EBEBEB"/>
<path d="M178.462 6.07336C179.123 6.07336 179.659 5.53621 179.659 4.87359C179.659 4.21098 179.123 3.67383 178.462 3.67383C177.801 3.67383 177.266 4.21098 177.266 4.87359C177.266 5.53621 177.801 6.07336 178.462 6.07336Z" fill="#E0E0E0"/>
<path d="M178.83 8.17383H178.09V25.1597H178.83V8.17383Z" fill="#E0E0E0"/>
<path d="M219.368 208.131C219.368 208.206 171.634 208.261 112.771 208.261C53.9072 208.261 6.16295 208.206 6.16295 208.131C6.16295 208.057 53.8874 208.002 112.771 208.002C171.654 208.002 219.368 208.062 219.368 208.131Z" fill="#263238"/>
<path d="M62.7122 25.4277C65.0541 28.3008 66.3222 31.9031 66.2977 35.6133C66.2729 37.7141 65.8855 40.029 67.1072 41.7366C68.0309 43.0309 69.7194 43.6831 70.4692 45.087C71.3731 46.7746 70.6033 48.9103 71.1595 50.7423C71.9442 53.3409 74.9834 54.4312 76.7862 56.4573C77.5546 57.3533 78.0922 58.4245 78.3519 59.577C78.6117 60.7296 78.5856 61.9284 78.276 63.0685C77.9476 64.2039 77.3536 65.2442 76.5434 66.1032C75.7332 66.9621 74.7302 67.6148 73.6178 68.007C72.4299 68.4764 71.105 68.4549 69.9329 67.9472C68.7162 67.3399 67.9465 66.0903 67.3505 64.8706C66.1537 62.4711 55.6404 49.5027 55.0445 46.8841" fill="#263238"/>
<path d="M55.0643 22.3724C50.7637 21.6754 46.6219 24.5379 44.8192 28.5106C43.0165 32.4832 42.9569 36.9736 42.8328 41.3545C42.7086 45.7354 42.3908 50.2756 40.1709 54.0292C38.7606 56.4138 36.5755 58.5097 36.2328 61.2527C35.9249 63.712 37.1962 66.1912 36.7741 68.6355C36.4066 70.7662 34.7877 72.6181 34.8522 74.7737C34.9317 77.3724 37.5985 79.3288 40.1858 79.3985C42.7732 79.4682 45.1967 78.1092 47.2278 76.4962C50.5371 73.8623 53.1852 70.4882 54.96 66.6442" fill="#263238"/>
<path d="M47.9876 32.648C47.8525 31.5636 47.9361 30.463 48.2335 29.4115C48.5308 28.3601 49.0359 27.3792 49.7186 26.5272C50.4014 25.6751 51.2479 24.9693 52.208 24.4515C53.1681 23.9337 54.2222 23.6145 55.3077 23.5129C59.6431 23.0947 63.5018 26.3356 64.1523 30.6567C64.7234 34.4452 65.2101 38.2685 65.1952 39.6575C65.1406 43.8442 62.7122 45.4721 61.7189 45.9649C61.3617 46.0935 60.9923 46.1852 60.6165 46.2387V46.2686L61.5402 51.0776C61.9623 54.2289 60.2092 57.0516 57.0707 57.4946C53.9321 57.9377 51.4639 55.5332 50.9822 52.3819L47.9876 32.648Z" fill="#FFBE9D"/>
<path d="M63.2982 32.4875C63.2286 32.5871 62.6774 32.2934 61.9722 32.3979C61.267 32.5024 60.7952 32.9306 60.7058 32.8559C60.6165 32.7812 60.7059 32.6568 60.9244 32.4576C61.1959 32.1924 61.543 32.0185 61.9176 31.9598C62.2851 31.903 62.661 31.9658 62.9903 32.139C63.2386 32.2983 63.3329 32.4477 63.2982 32.4875Z" fill="#263238"/>
<path d="M57.0111 34.0201C56.9415 34.1197 56.3903 33.821 55.6801 33.9255C54.97 34.0301 54.5081 34.4632 54.4187 34.3885C54.3293 34.3138 54.4187 34.1844 54.6373 33.9902C54.9088 33.725 55.2559 33.5511 55.6305 33.4924C55.9985 33.4399 56.3736 33.5043 56.7032 33.6766C56.9465 33.8309 57.0458 33.9753 57.0111 34.0201Z" fill="#263238"/>
<path d="M59.5885 37.8194C59.9437 37.6481 60.3191 37.5227 60.7059 37.446C60.8846 37.4012 61.0485 37.3415 61.0634 37.2121C61.0473 37.0302 60.9783 36.8571 60.8648 36.7142L60.1248 35.39C59.0968 33.5381 58.3271 32.0048 58.4016 31.96C58.4761 31.9152 59.3948 33.3937 60.388 35.2456C60.6413 35.7036 60.8846 36.1417 61.1031 36.5549C61.2475 36.7574 61.3176 37.0036 61.3018 37.2519C61.2854 37.3198 61.2536 37.383 61.2088 37.4366C61.164 37.4901 61.1074 37.5325 61.0436 37.5605C60.9467 37.603 60.8449 37.6331 60.7406 37.6501C60.3656 37.7567 59.9782 37.8136 59.5885 37.8194Z" fill="#263238"/>
<path d="M60.5767 46.2426C60.5767 46.2426 57.8801 46.8648 54.1655 45.3066C54.1655 45.3066 55.7695 48.7665 60.83 47.5369L60.5767 46.2426Z" fill="#EB996E"/>
<path d="M56.6485 32.1636C56.6088 32.3677 55.8887 32.3777 55.0743 32.6017C54.2598 32.8257 53.6192 33.1443 53.4851 32.99C53.4255 32.9153 53.5149 32.7162 53.7582 32.4922C54.0859 32.2112 54.4731 32.0088 54.8904 31.9001C55.3077 31.7914 55.7442 31.7794 56.1668 31.8649C56.4946 31.9396 56.6485 32.069 56.6485 32.1636Z" fill="#263238"/>
<path d="M62.7171 30.9204C62.6178 31.0997 62.1063 31.0051 61.5203 31.0797C60.9343 31.1544 60.4526 31.3486 60.3135 31.1942C60.2539 31.1196 60.3135 30.9503 60.5022 30.7661C60.7627 30.5347 61.0895 30.3918 61.4359 30.3579C61.7779 30.3166 62.1244 30.3808 62.4291 30.5421C62.6675 30.6765 62.7618 30.8308 62.7171 30.9204Z" fill="#263238"/>
<path d="M55.4765 34.9365C55.4874 35.0135 55.5135 35.0876 55.5532 35.1545C55.593 35.2214 55.6455 35.2796 55.7079 35.3259C55.7703 35.3723 55.8412 35.4057 55.9166 35.4243C55.9919 35.4429 56.0703 35.4463 56.147 35.4343C56.2215 35.4257 56.2936 35.4023 56.3591 35.3655C56.4246 35.3287 56.4821 35.2792 56.5283 35.2199C56.5745 35.1606 56.6085 35.0927 56.6283 35.0201C56.6481 34.9475 56.6533 34.8717 56.6436 34.7971C56.6203 34.6421 56.5366 34.5027 56.411 34.4093C56.2853 34.316 56.1279 34.2765 55.9731 34.2993C55.8983 34.3072 55.8258 34.3302 55.76 34.3668C55.6942 34.4034 55.6364 34.4529 55.5901 34.5124C55.5438 34.5718 55.5098 34.64 55.4903 34.7129C55.4708 34.7857 55.4661 34.8618 55.4765 34.9365Z" fill="#263238"/>
<path d="M61.7388 33.5771C61.7621 33.7321 61.8457 33.8716 61.9714 33.9649C62.0971 34.0582 62.2545 34.0978 62.4092 34.075C62.4838 34.0663 62.5559 34.043 62.6214 34.0062C62.6869 33.9693 62.7444 33.9199 62.7906 33.8606C62.8368 33.8013 62.8708 33.7333 62.8906 33.6607C62.9104 33.5882 62.9156 33.5124 62.9058 33.4377C62.8825 33.2827 62.7989 33.1433 62.6732 33.05C62.5476 32.9567 62.3901 32.9171 62.2354 32.9399C62.1606 32.9479 62.0881 32.9708 62.0223 33.0074C61.9565 33.044 61.8987 33.0935 61.8524 33.153C61.806 33.2124 61.7721 33.2806 61.7526 33.3535C61.7331 33.4264 61.7284 33.5024 61.7388 33.5771Z" fill="#263238"/>
<path d="M60.7009 39.1939C60.5059 39.1331 60.2959 39.1426 60.1072 39.2208C59.9185 39.299 59.7631 39.4409 59.6679 39.622C59.577 39.7883 59.5401 39.9788 59.5624 40.1671C59.5846 40.3554 59.6649 40.5321 59.7921 40.6724C59.9274 40.8057 60.1056 40.8864 60.2949 40.9001C60.4841 40.9137 60.672 40.8595 60.825 40.7471C61.0166 40.5723 61.1324 40.3293 61.1478 40.07C61.1816 39.8324 61.1248 39.5907 60.9889 39.393C60.9192 39.2964 60.8196 39.2254 60.7056 39.1913C60.5915 39.1571 60.4695 39.1615 60.3582 39.2038" fill="#EB996E"/>
<path d="M63.6011 27.2456C63.2113 25.6684 62.2386 24.2983 60.8797 23.4124C59.7673 22.6069 58.4461 22.1418 57.0756 22.0732C55.6966 22.0137 54.3503 22.5041 53.3312 23.4373C52.608 24.1558 52.1944 25.1298 52.179 26.1504L52.2585 25.4535C52.0498 26.0206 52.0498 26.6437 52.2585 27.2108C52.3727 27.5145 52.5118 27.8231 52.6309 28.1268C52.9865 29.0043 53.646 29.7238 54.4883 30.153C54.8697 30.3581 55.297 30.4626 55.7298 30.4566C55.9465 30.4523 56.1596 30.4006 56.3543 30.3051C56.549 30.2097 56.7206 30.0728 56.8571 29.904C57.1655 29.3644 57.2611 28.7286 57.1253 28.1218C57.4512 28.7215 57.9162 29.2337 58.481 29.6153C58.7694 29.8001 59.1125 29.8796 59.4526 29.8407C59.7926 29.8017 60.1089 29.6465 60.3483 29.4012C60.7555 28.9034 60.5966 28.1168 60.3483 27.4995C60.7325 28.0818 61.2707 28.5455 61.9027 28.8387C62.069 28.9343 62.2533 28.9943 62.4439 29.0149C62.6345 29.0355 62.8273 29.0161 63.0101 28.9582C63.1563 28.8855 63.284 28.7806 63.3838 28.6512C63.4836 28.5219 63.5528 28.3715 63.5862 28.2114C63.6599 27.8943 63.665 27.5649 63.6011 27.2456Z" fill="#263238"/>
<path d="M60.0106 28.5699C59.9659 28.5699 59.9758 27.9775 59.7822 27.0764C59.5587 25.8791 58.9582 24.785 58.0688 23.955C57.58 23.5094 56.9902 23.1899 56.3506 23.0241C55.8267 22.8952 55.2811 22.8816 54.7515 22.9843C54.2633 23.0987 53.797 23.292 53.3709 23.5568C53.3709 23.5568 53.4553 23.4323 53.6738 23.273C53.9874 23.0531 54.3395 22.8944 54.7117 22.8051C55.2687 22.6744 55.8482 22.6744 56.4052 22.8051C57.0914 22.9768 57.7234 23.3192 58.2427 23.8007C59.1739 24.665 59.782 25.8227 59.9659 27.0814C60.025 27.4535 60.0549 27.8297 60.0553 28.2065C60.0614 28.3293 60.0463 28.4523 60.0106 28.5699Z" fill="#455A64"/>
<path d="M105.749 86.6118L86.6538 79.0199C86.6538 79.0199 76.8755 66.161 77.0792 65.9121L70.211 73.4492L80.1929 86.9852L103.33 92.4214L114.285 92.5111C113.421 88.2845 105.749 86.6118 105.749 86.6118Z" fill="#FFBE9D"/>
<path d="M64.1325 49.9273L61.5302 48.9316L50.2969 50.3604V52.3517L49.9741 52.3915C47.5526 52.9076 45.2301 53.812 43.096 55.0699C41.097 56.2931 39.5087 58.0878 38.5352 60.2231C37.5617 62.3585 37.2476 64.7369 37.6333 67.0526C38.0901 69.9002 38.9741 73.3601 40.6825 75.3613C43.9452 79.1896 46.9249 74.4603 46.9249 74.4603C46.9249 74.4603 48.9709 79.1398 48.8517 81.3552C48.7524 83.2121 47.938 87.0752 47.6748 88.28C47.6639 88.3281 47.663 88.378 47.6721 88.4265C47.6811 88.475 47.6999 88.5211 47.7273 88.5621C47.7547 88.6031 47.7902 88.6381 47.8315 88.6649C47.8729 88.6917 47.9192 88.7098 47.9678 88.718L71.6661 93.1139L71.7803 87.3042L71.0254 63.4085L69.9577 54.129C69.9577 54.129 69.9925 49.6983 64.1325 49.9273Z" fill="#6F51F8"/>
<path d="M69.6002 52.5859L78.6335 65.6738L71.3582 74.5551L69.6002 52.5859Z" fill="#6F51F8"/>
<path d="M71.5469 80.1249C71.5144 79.8441 71.5028 79.5612 71.5121 79.2786C71.5121 78.6912 71.5121 77.9196 71.4823 76.9787C71.4384 74.4533 71.2577 71.9323 70.941 69.4266C70.5686 66.4894 69.9975 63.8659 69.5654 61.9592L69.039 59.719C68.9627 59.448 68.9062 59.1718 68.8702 58.8926C68.9831 59.1512 69.0729 59.4195 69.1383 59.6941C69.2923 60.1919 69.5009 60.9735 69.7392 61.9194C70.3804 64.3756 70.8681 66.8696 71.1993 69.3868C71.5185 71.903 71.6745 74.4373 71.6661 76.9737C71.6661 77.9693 71.6413 78.736 71.6115 79.2786C71.614 79.5621 71.5924 79.8452 71.5469 80.1249Z" fill="#263238"/>
<path d="M49.2987 60.2263C49.2987 60.2662 48.6133 60.2612 47.5158 60.3159C46.0838 60.3938 44.6596 60.5785 43.2549 60.8685C41.8506 61.1639 40.4697 61.5616 39.1231 62.0583C38.0901 62.4417 37.4694 62.7254 37.4495 62.6856C37.5768 62.5856 37.7172 62.5035 37.8667 62.4417C38.1398 62.2923 38.547 62.1031 39.0585 61.8891C41.7383 60.7798 44.6021 60.1853 47.5009 60.1367C48.0571 60.1367 48.4942 60.1367 48.817 60.1666C48.9797 60.1613 49.1422 60.1815 49.2987 60.2263Z" fill="#FAFAFA"/>
<path d="M70.2309 66.2151C69.8677 66.3474 69.4886 66.4311 69.1036 66.464C67.2672 66.7327 65.4067 66.7962 63.5564 66.6532C63.17 66.6465 62.786 66.5896 62.4142 66.4839C62.7975 66.4498 63.183 66.4498 63.5663 66.4839C64.2715 66.4839 65.2499 66.4839 66.3275 66.4839C67.4052 66.4839 68.3785 66.3744 69.0837 66.3097C69.4624 66.2434 69.8464 66.2117 70.2309 66.2151Z" fill="#FAFAFA"/>
<path d="M74.3776 60.2968C73.8302 60.9308 73.1743 61.4618 72.4408 61.8649C71.7483 62.3342 70.9757 62.6717 70.1613 62.8606C70.1316 62.7909 71.1546 62.3628 72.3067 61.626C73.4588 60.8892 74.3279 60.237 74.3776 60.2968Z" fill="#FAFAFA"/>
<path d="M70.7275 54.2282C69.1607 55.6411 67.1643 56.483 65.0611 56.6178C65.0611 56.5381 66.4268 56.329 67.9961 55.657C69.5654 54.9849 70.6778 54.1635 70.7275 54.2282Z" fill="#FAFAFA"/>
<path d="M71.2191 76.3514C71.073 76.4498 70.9165 76.5317 70.7523 76.5953C70.4394 76.7447 69.9875 76.9289 69.4115 77.1429C67.9148 77.6821 66.3698 78.0755 64.7979 78.3178C63.2261 78.561 61.6343 78.6494 60.0454 78.5817C59.4345 78.5568 58.9429 78.512 58.6052 78.4672C58.4284 78.4554 58.2534 78.4237 58.0837 78.3726C58.0837 78.3278 58.8386 78.3726 60.0702 78.4024C63.2277 78.432 66.369 77.9478 69.3717 76.9687C70.504 76.5953 71.2042 76.3116 71.2191 76.3514Z" fill="#FAFAFA"/>
<path d="M71.4029 83.0977C71.4029 83.0977 71.3333 83.1474 71.1893 83.2221L70.5537 83.5009C70.0074 83.7598 69.1979 84.0983 68.1848 84.4966C67.1717 84.8948 65.9451 85.2781 64.5645 85.6565C61.5631 86.4667 58.4824 86.9458 55.3772 87.0853C53.947 87.14 52.6607 87.135 51.5781 87.0853C50.4955 87.0355 49.6264 86.9558 49.0255 86.8712L48.3352 86.7766C48.2539 86.7707 48.1738 86.7539 48.0969 86.7268C48.1775 86.714 48.2596 86.714 48.3402 86.7268L49.0355 86.7716C49.6364 86.8214 50.5253 86.8712 51.5831 86.9011C52.6409 86.9309 53.947 86.9011 55.3673 86.8513C56.7876 86.8015 58.3469 86.6223 59.9709 86.3534C61.5948 86.0846 63.1244 85.761 64.5049 85.4126C65.8855 85.0641 67.1072 84.6708 68.1203 84.3074C69.1334 83.944 69.9577 83.6403 70.5139 83.4113L71.1595 83.1574C71.2383 83.129 71.3199 83.109 71.4029 83.0977Z" fill="#FAFAFA"/>
<path d="M27.845 188.93L25.1584 201.092L20.2568 210.097C20.1735 210.251 20.1225 210.42 20.107 210.595C20.0915 210.769 20.1118 210.945 20.1667 211.111C20.2217 211.277 20.31 211.43 20.4263 211.56C20.5426 211.691 20.6843 211.796 20.8428 211.87C21.0268 211.954 21.2283 211.993 21.4305 211.984C21.6327 211.974 21.8296 211.916 22.0049 211.815C24.2794 210.501 32.6274 205.607 32.7714 204.706C32.9452 203.665 36.4563 192.066 36.4563 192.066L27.845 188.93Z" fill="#6F51F8"/>
<g opacity="0.6">
<path d="M20.8428 211.87L32.975 203.904L32.8459 204.402C32.7398 204.846 32.4792 205.238 32.1109 205.507C31.1177 206.219 28.3516 208.131 22.0446 211.825C21.8635 211.931 21.659 211.991 21.4493 211.999C21.2396 212.006 21.0313 211.962 20.8428 211.87Z" fill="white"/>
</g>
<g opacity="0.6">
<path d="M31.4504 199.379C31.2752 199.452 31.1332 199.588 31.0516 199.76C30.97 199.932 30.9546 200.128 31.0085 200.31C31.0748 200.488 31.2064 200.633 31.3764 200.716C31.5463 200.8 31.7416 200.815 31.9222 200.758C32.1098 200.68 32.2617 200.535 32.348 200.351C32.4344 200.167 32.449 199.957 32.389 199.762C32.3011 199.586 32.1492 199.45 31.9645 199.383C31.7798 199.315 31.5763 199.321 31.3958 199.399" fill="white"/>
</g>
<path d="M24.8952 207.261C24.6948 206.813 24.4136 206.406 24.0658 206.061C23.6652 205.781 23.2153 205.58 22.7399 205.469C22.7399 205.434 22.9137 205.379 23.2067 205.409C23.588 205.458 23.9468 205.617 24.2396 205.867C24.5347 206.107 24.7524 206.429 24.8654 206.793C24.9498 207.077 24.925 207.261 24.8952 207.261Z" fill="#263238"/>
<path d="M23.6387 208.669C23.5692 208.708 23.2762 208.22 22.6952 207.887C22.3245 207.714 21.943 207.566 21.553 207.444C21.7673 207.373 21.9954 207.355 22.2182 207.391C22.441 207.426 22.6522 207.514 22.8342 207.648C23.4947 208.031 23.7083 208.654 23.6387 208.669Z" fill="#263238"/>
<path d="M27.0008 205.578C26.5785 205.108 26.1202 204.672 25.6301 204.274C25.0902 203.944 24.5257 203.656 23.9417 203.413C24.6133 203.399 25.268 203.625 25.7891 204.05C26.3635 204.396 26.7938 204.939 27.0008 205.578Z" fill="#263238"/>
<path d="M28.1281 201.948C28.0784 202.013 27.4775 201.57 26.6383 201.326C25.799 201.082 25.0392 201.122 25.0342 201.037C25.5869 200.893 26.1681 200.902 26.7162 201.063C27.2643 201.223 27.759 201.529 28.148 201.948H28.1281Z" fill="#263238"/>
<path d="M29.0071 198.398C28.5227 198.098 27.9997 197.865 27.4527 197.706C26.8892 197.63 26.3178 197.63 25.7543 197.706C25.7543 197.677 25.9082 197.557 26.2261 197.463C26.6439 197.349 27.0824 197.335 27.5066 197.421C27.9309 197.507 28.3291 197.692 28.6694 197.96C28.9227 198.199 29.027 198.379 29.0071 198.398Z" fill="#263238"/>
<path d="M27.6365 197.035C27.6368 196.877 27.6707 196.721 27.7358 196.577C27.8765 196.166 28.0996 195.788 28.3913 195.466C28.5822 195.212 28.8507 195.027 29.1561 194.939C29.2601 194.922 29.3668 194.936 29.4624 194.981C29.558 195.025 29.6382 195.097 29.6924 195.188C29.7837 195.373 29.8032 195.586 29.7471 195.785C29.6197 196.184 29.3579 196.527 29.0064 196.754C28.6548 196.981 28.2355 197.078 27.8202 197.03C27.4106 196.971 27.0275 196.792 26.7191 196.516C26.4106 196.24 26.1907 195.878 26.087 195.476C26.0632 195.374 26.061 195.268 26.0807 195.166C26.1004 195.063 26.1415 194.965 26.2012 194.879C26.2699 194.799 26.3622 194.742 26.4649 194.718C26.5676 194.694 26.6753 194.703 26.7723 194.745C27.0531 194.885 27.2926 195.096 27.4676 195.357C27.7308 195.702 27.9309 196.092 28.0586 196.507C28.1191 196.655 28.1478 196.815 28.143 196.975C27.9428 196.438 27.6632 195.935 27.3137 195.481C27.1509 195.269 26.9398 195.098 26.6979 194.984C26.6447 194.96 26.5854 194.955 26.529 194.969C26.4726 194.982 26.4221 195.014 26.385 195.058C26.3503 195.117 26.328 195.182 26.3194 195.25C26.3109 195.317 26.3163 195.386 26.3353 195.452C26.4389 195.789 26.6356 196.091 26.9027 196.322C27.1698 196.553 27.4964 196.703 27.845 196.756C28.1963 196.797 28.551 196.717 28.8513 196.53C29.1517 196.343 29.3799 196.059 29.4988 195.725C29.5469 195.59 29.5469 195.442 29.4988 195.307C29.4706 195.256 29.4272 195.215 29.3746 195.19C29.3221 195.165 29.263 195.157 29.2057 195.168C28.9469 195.239 28.7163 195.389 28.5453 195.596C28.1643 196.021 27.8571 196.508 27.6365 197.035Z" fill="#263238"/>
<g opacity="0.3">
<path d="M27.5173 190.249L26.9362 193.037L35.7213 194.495L36.4563 192.066L27.8301 188.93L27.5173 190.249Z" fill="black"/>
</g>
<path d="M67.0774 193.43L66.3523 203.148C66.3523 203.148 75.9667 207.131 76.0065 208.963L57.1352 208.231L57.6318 193.037L67.0774 193.43Z" fill="#6F51F8"/>
<g opacity="0.6">
<path d="M60.5668 202.102C60.3836 202.151 60.2249 202.266 60.1205 202.425C60.0162 202.584 59.9735 202.775 60.0007 202.963C60.0425 203.148 60.153 203.311 60.3098 203.417C60.4666 203.523 60.658 203.566 60.8449 203.536C61.0397 203.484 61.2084 203.362 61.3185 203.193C61.4285 203.023 61.4721 202.819 61.4408 202.62C61.3781 202.431 61.2448 202.273 61.069 202.181C60.8931 202.088 60.6882 202.067 60.4973 202.122" fill="white"/>
</g>
<g opacity="0.6">
<path d="M57.1451 208.231L57.2544 206.697L75.3062 207.957C75.3062 207.957 76.1356 208.355 76.0164 208.952L57.1451 208.231Z" fill="white"/>
</g>
<path d="M66.6702 203.064C66.6702 203.159 66.2033 203.183 65.7415 203.462C65.2796 203.741 65.0214 204.119 64.937 204.08C64.8526 204.04 65.0115 203.512 65.5776 203.183C66.1438 202.855 66.695 202.979 66.6702 203.064Z" fill="#263238"/>
<path d="M68.6169 203.975C68.6169 204.07 68.2295 204.209 67.9018 204.588C67.574 204.966 67.4697 205.374 67.3754 205.369C67.281 205.364 67.2462 204.837 67.6634 204.374C68.0805 203.911 68.6169 203.876 68.6169 203.975Z" fill="#263238"/>
<path d="M69.6498 206.378C69.5654 206.378 69.4562 205.925 69.7094 205.432C69.9627 204.94 70.4047 204.75 70.4395 204.83C70.4742 204.91 70.2011 205.169 69.9975 205.577C69.7939 205.985 69.7392 206.373 69.6498 206.378Z" fill="#263238"/>
<path d="M66.5808 200.833C66.541 200.913 66.1239 200.769 65.5876 200.784C65.0512 200.799 64.6539 200.948 64.5943 200.868C64.5347 200.789 64.9519 200.475 65.5876 200.465C66.2232 200.455 66.6404 200.764 66.5808 200.833Z" fill="#263238"/>
<g opacity="0.3">
<path d="M66.9433 195.353L66.8191 197.085L57.5573 196.642L57.6169 194.641L66.9433 195.353Z" fill="black"/>
</g>
<path d="M66.7049 198.866C66.3929 198.942 66.066 198.928 65.7614 198.827C65.4171 198.755 65.0833 198.639 64.7681 198.483C64.5843 198.392 64.4068 198.289 64.2368 198.174C64.1331 198.111 64.0394 198.032 63.9587 197.94C63.9039 197.869 63.8742 197.782 63.8742 197.691C63.8742 197.601 63.9039 197.514 63.9587 197.443C64.0069 197.38 64.0695 197.329 64.1412 197.295C64.213 197.262 64.2917 197.245 64.3708 197.248C64.4904 197.253 64.6089 197.273 64.7234 197.308C64.9222 197.366 65.115 197.443 65.2995 197.537C65.6131 197.691 65.8999 197.894 66.1487 198.14C66.5708 198.563 66.7049 198.916 66.6751 198.931C66.6453 198.946 66.4318 198.662 65.9997 198.309C65.7461 198.11 65.4693 197.943 65.1754 197.811C65.0001 197.738 64.8211 197.675 64.639 197.622C64.4404 197.562 64.2715 197.557 64.2169 197.622C64.1623 197.686 64.2169 197.672 64.2169 197.731C64.2765 197.797 64.345 197.854 64.4205 197.901C64.5798 198.012 64.7456 198.113 64.9171 198.204C65.2035 198.363 65.5045 198.493 65.816 198.593C66.1184 198.663 66.4155 198.754 66.7049 198.866Z" fill="#263238"/>
<path d="M66.5808 198.997C66.4158 198.717 66.3412 198.394 66.3672 198.071C66.3692 197.72 66.4262 197.373 66.5361 197.04C66.6074 196.845 66.6954 196.657 66.7993 196.478C66.8551 196.354 66.9415 196.248 67.0501 196.167C67.1588 196.087 67.2862 196.036 67.42 196.02C67.5048 196.025 67.5863 196.055 67.6549 196.105C67.7235 196.155 67.7764 196.224 67.8074 196.303C67.8505 196.415 67.8773 196.532 67.8869 196.652C67.9195 196.863 67.9195 197.078 67.8869 197.289C67.8205 197.641 67.6687 197.971 67.4449 198.25C67.0575 198.748 66.6702 198.822 66.6602 198.792C66.6503 198.763 66.9582 198.578 67.2611 198.115C67.435 197.851 67.5486 197.552 67.5939 197.239C67.619 197.058 67.619 196.873 67.5939 196.692C67.569 196.492 67.4995 196.323 67.425 196.343C67.3505 196.363 67.1668 196.483 67.0823 196.642C66.9854 196.801 66.9007 196.967 66.8291 197.14C66.7141 197.44 66.6406 197.755 66.6106 198.076C66.546 198.633 66.6304 198.997 66.5808 198.997Z" fill="#263238"/>
<path d="M47.5705 88.628C47.5705 88.628 44.5908 88.7624 42.6043 98.9779C40.6179 109.193 25.4762 191.967 25.4762 191.967L36.4563 192.067L57.1451 113.37L55.7695 194.516L66.9234 195.372C66.9234 195.372 75.2913 105.619 75.3658 100.397C75.4652 93.8851 71.7356 87.2988 71.7356 87.2988L47.5705 88.628Z" fill="#263238"/>
<path d="M62.6625 87.7559C62.732 87.7559 61.5898 93.6054 60.1149 100.789C58.6399 107.973 57.3885 113.787 57.319 113.772C57.2494 113.757 58.3867 107.923 59.8616 100.739C61.3365 93.5556 62.6079 87.741 62.6625 87.7559Z" fill="#455A64"/>
<path d="M64.3708 89.2154C64.3708 89.1855 64.6688 89.0959 65.0115 89.3996C65.1088 89.488 65.1858 89.5966 65.2373 89.7178C65.2887 89.839 65.3133 89.9699 65.3094 90.1015C65.297 90.268 65.2377 90.4275 65.1383 90.5614C65.039 90.6954 64.9037 90.7983 64.7483 90.8582C64.5966 90.9272 64.4287 90.9521 64.2637 90.9301C64.0986 90.9081 63.943 90.8401 63.8146 90.7337C63.7186 90.6435 63.6428 90.5338 63.5923 90.4119C63.5418 90.29 63.5177 90.1588 63.5216 90.0268C63.5216 89.5688 63.8295 89.4095 63.8345 89.4394C63.7508 89.6222 63.7068 89.8207 63.7054 90.0219C63.712 90.1229 63.7387 90.2217 63.7839 90.3123C63.8291 90.4029 63.8919 90.4836 63.9686 90.5496C64.0666 90.6173 64.18 90.6592 64.2983 90.6715C64.4167 90.6838 64.5362 90.6661 64.646 90.62C64.7558 90.5739 64.8522 90.5009 64.9265 90.4077C65.0008 90.3145 65.0505 90.2041 65.0711 90.0866C65.0784 89.9857 65.0654 89.8844 65.033 89.7886C65.0006 89.6929 64.9494 89.6046 64.8824 89.529C64.639 89.2452 64.3659 89.2552 64.3708 89.2154Z" fill="#455A64"/>
<path d="M63.8991 93.2569C63.8991 93.227 64.207 93.2569 64.3957 93.6701C64.4437 93.788 64.4654 93.9151 64.4594 94.0423C64.4534 94.1696 64.4198 94.294 64.3609 94.4069C64.2755 94.5411 64.1553 94.6494 64.0131 94.7202C63.8709 94.7911 63.7121 94.8217 63.5538 94.8089C63.3955 94.7961 63.2437 94.7404 63.1147 94.6476C62.9857 94.5548 62.8843 94.4286 62.8214 94.2824C62.7817 94.1624 62.7687 94.0352 62.7833 93.9096C62.7979 93.784 62.8397 93.6632 62.9059 93.5556C63.1393 93.1822 63.4571 93.1922 63.4472 93.222C63.4372 93.2519 63.2088 93.3216 63.0648 93.6402C62.9919 93.8189 62.9919 94.0191 63.0648 94.1978C63.1166 94.2966 63.1925 94.3806 63.2855 94.4421C63.3784 94.5036 63.4854 94.5405 63.5964 94.5494C63.7074 94.5584 63.8188 94.539 63.9204 94.4932C64.0219 94.4474 64.1103 94.3766 64.1772 94.2874C64.2707 94.1172 64.2939 93.917 64.2417 93.7298C64.0977 93.3913 63.8742 93.2917 63.8991 93.2569Z" fill="#455A64"/>
<path d="M53.3759 89.3147C53.3554 89.4857 53.312 89.6532 53.2467 89.8125C53.0916 90.2683 52.8972 90.7097 52.6657 91.1318C51.908 92.54 50.8136 93.7379 49.4806 94.618C48.1476 95.4981 46.6177 96.033 45.0278 96.1748C44.5503 96.2165 44.0701 96.2165 43.5926 96.1748C43.4244 96.1694 43.2575 96.1426 43.096 96.0951C43.096 96.0453 43.8459 96.13 45.0328 95.9806C46.5797 95.7924 48.062 95.2472 49.3631 94.3877C50.6643 93.5282 51.7489 92.3779 52.5316 91.0272C53.1127 90.0216 53.3312 89.2997 53.3759 89.3147Z" fill="#455A64"/>
<path d="M74.7401 96.5774C74.7401 96.5774 74.611 96.5177 74.4074 96.3783C74.1229 96.1731 73.857 95.9432 73.6128 95.6913C72.7961 94.8625 72.1588 93.8736 71.741 92.7866C71.3231 91.6995 71.1336 90.5377 71.1844 89.3738C71.1957 89.0235 71.2406 88.6751 71.3185 88.3334C71.3731 88.0894 71.4078 87.96 71.4277 87.965C71.4476 87.97 71.3681 88.5076 71.3681 89.3788C71.3689 91.6657 72.2166 93.8708 73.7469 95.5668C74.3279 96.209 74.7649 96.5376 74.7401 96.5774Z" fill="#455A64"/>
<path d="M43.2052 68.9446L48.082 69.2135C48.4274 70.5782 48.8893 71.9107 49.4626 73.1961C53.3908 66.3659 56.4151 57.2108 57.1898 53.5319C57.0806 53.1701 56.9465 52.7619 56.7876 52.3072C56.6686 51.6199 56.6889 50.9156 56.8472 50.2363C56.9813 49.4198 57.2097 48.3147 57.2743 47.8069C57.4878 46.2537 57.7361 46.0047 58.2675 46.184C59.0025 46.4229 57.9646 50.5499 58.5655 50.6395C58.8932 50.6843 59.2855 49.2705 59.4047 48.1106C59.5239 46.9506 60.0404 43.3862 60.4228 43.1323C60.984 42.7838 61.4706 43.3364 61.3316 44.4913C61.1925 45.6463 61.0088 49.146 61.6196 49.1908C62.2304 49.2356 62.7271 43.3214 62.7271 43.3214C62.7271 43.3214 62.6327 42.037 63.3379 42.0669C64.6142 42.1217 63.621 48.3595 63.5117 48.9519C63.4323 49.3601 64.0977 49.4497 64.1573 48.9917C64.2169 48.5337 64.5248 43.0725 65.821 43.1173C66.8142 43.1522 65.0512 48.2549 65.6124 49.4398C66.1735 50.6246 66.5609 45.4223 67.5144 45.492C67.867 45.5218 68.1302 45.5915 67.4796 48.5337C66.8447 50.8733 66.0838 53.1766 65.2002 55.4336C63.7104 63.598 57.0607 89.714 46.6716 84.9349C40.8612 82.2615 38.1448 69.0044 38.1448 69.0044L43.2052 68.9446Z" fill="#FFBE9D"/>
<path d="M65.2101 55.4776C65.2187 55.416 65.2354 55.3557 65.2598 55.2984C65.3045 55.169 65.3591 54.9997 65.4336 54.8006C65.5975 54.3277 65.821 53.6705 66.114 52.8093C66.407 51.948 66.7595 50.9026 67.1072 49.668C67.286 49.0557 67.4349 48.3886 67.569 47.6767C67.6386 47.3182 67.7031 46.9499 67.7478 46.5715C67.7602 46.3842 67.7602 46.1963 67.7478 46.009C67.7478 45.8148 67.7031 45.6555 67.5492 45.6505C67.3952 45.6455 67.286 45.7401 67.1767 45.9044C67.0778 46.0802 66.9963 46.2653 66.9334 46.457C66.7943 46.8503 66.6851 47.2685 66.5758 47.6916C66.4666 48.1148 66.3672 48.5578 66.2381 49.0059C66.1818 49.2513 66.0808 49.4842 65.9401 49.6929C65.9048 49.7338 65.8581 49.7632 65.8061 49.7775C65.7733 49.7847 65.7393 49.7845 65.7066 49.7767C65.6739 49.7689 65.6434 49.7539 65.6173 49.7327C65.5603 49.6802 65.5132 49.6178 65.4783 49.5485C65.4258 49.4263 65.3907 49.2972 65.374 49.1652C65.3514 48.1611 65.4514 47.158 65.672 46.1782C65.7564 45.6804 65.8458 45.1826 65.9103 44.6847C65.9401 44.4308 65.9699 44.1869 65.9749 43.9181C65.9799 43.6493 65.9401 43.3655 65.8359 43.3207C65.7316 43.2759 65.4783 43.4153 65.3392 43.6244C65.202 43.8452 65.0935 44.0828 65.0164 44.3313C64.8471 44.8513 64.7192 45.384 64.6341 45.9243C64.5397 46.4719 64.4652 47.0295 64.4006 47.597C64.3758 47.8808 64.346 48.1646 64.3212 48.4533L64.2815 48.8864C64.2868 48.9789 64.2717 49.0714 64.2374 49.1575C64.2031 49.2435 64.1503 49.3209 64.0828 49.3842C63.9978 49.4465 63.8952 49.4801 63.7898 49.4801C63.6845 49.4801 63.5819 49.4465 63.4968 49.3842C63.4486 49.3523 63.4078 49.3105 63.377 49.2616C63.3462 49.2127 63.3261 49.1578 63.318 49.1005C63.3105 49.0476 63.3105 48.994 63.318 48.9412V48.8366L63.4521 47.9654C63.5365 47.378 63.6061 46.7905 63.6607 46.1932C63.7153 45.5958 63.76 44.9934 63.7699 44.391C63.799 43.7946 63.7388 43.1972 63.5912 42.6187C63.5569 42.4719 63.4681 42.3438 63.3429 42.2603C63.283 42.241 63.2185 42.2412 63.1587 42.2609C63.099 42.2806 63.047 42.3187 63.0101 42.3698C62.8493 42.6645 62.7834 43.0019 62.8214 43.3356C62.7122 44.5055 62.588 45.6555 62.4192 46.7856C62.3347 47.3481 62.2404 47.9107 62.1013 48.4632C62.0616 48.5977 62.0219 48.7371 61.9722 48.8764C61.925 49.0454 61.826 49.1952 61.6891 49.3046C61.6286 49.3344 61.5598 49.3427 61.494 49.3282C61.4282 49.3138 61.3691 49.2773 61.3266 49.2249C61.266 49.1611 61.2202 49.0846 61.1925 49.0009C61.139 48.8628 61.1006 48.7192 61.0783 48.5728C60.9619 47.4894 60.9519 46.3973 61.0485 45.312C61.1219 44.8061 61.1502 44.2946 61.1329 43.7837C61.1169 43.5656 61.0172 43.3622 60.8548 43.2161C60.8167 43.1924 60.7742 43.1766 60.7298 43.1698C60.6854 43.1629 60.6401 43.1651 60.5966 43.1763C60.5501 43.192 60.5053 43.212 60.4625 43.2361C60.4178 43.2759 60.4228 43.2361 60.393 43.3207C60.2134 43.7684 60.0819 44.234 60.0007 44.7096C59.9013 45.2075 59.8169 45.6605 59.7424 46.1284C59.6679 46.5964 59.5984 47.0544 59.5388 47.5124C59.4792 47.9704 59.4494 48.4184 59.36 48.8665C59.2829 49.3042 59.1665 49.7341 59.0124 50.1509C58.9715 50.2569 58.9234 50.3601 58.8684 50.4595C58.7989 50.5541 58.7591 50.6736 58.5704 50.7333C58.5221 50.7422 58.4723 50.7366 58.4272 50.7171C58.3821 50.6976 58.3438 50.6651 58.3171 50.6238C58.2824 50.5663 58.2557 50.5044 58.2377 50.4396C58.2154 50.3314 58.2021 50.2215 58.198 50.1111C58.198 49.2598 58.3122 48.4832 58.3569 47.7314C58.3893 47.3721 58.3893 47.0105 58.3569 46.6512C58.3569 46.4918 58.2824 46.3027 58.193 46.2678C58.1304 46.2371 58.0616 46.2211 57.9919 46.2211C57.9221 46.2211 57.8533 46.2371 57.7907 46.2678C57.5823 46.4922 57.4532 46.7791 57.4232 47.0843C57.3488 47.3879 57.319 47.6966 57.2643 47.9903C57.0558 49.1652 56.8372 50.1808 56.733 51.0071C56.684 51.3706 56.684 51.7389 56.733 52.1024C56.8025 52.4011 56.9068 52.6699 56.9614 52.879C57.016 53.0881 57.0706 53.2374 57.1054 53.3768C57.1239 53.4302 57.1372 53.4852 57.1451 53.5411C57.1154 53.4929 57.092 53.441 57.0756 53.3868L56.9068 52.8889C56.8372 52.6749 56.733 52.4359 56.6485 52.1074C56.5954 51.7342 56.5954 51.3554 56.6485 50.9823C56.7429 50.1409 56.9415 49.1353 57.1451 47.9555C57.1998 47.6617 57.2296 47.3531 57.2941 47.0345C57.3297 46.8662 57.3745 46.7 57.4282 46.5367C57.4779 46.3556 57.5862 46.1962 57.7361 46.0836C57.8264 46.0357 57.927 46.0106 58.0291 46.0106C58.1313 46.0106 58.2319 46.0357 58.3221 46.0836C58.4192 46.145 58.499 46.2303 58.5538 46.3314C58.6085 46.4325 58.6365 46.5461 58.635 46.6611C58.6698 47.0353 58.6698 47.412 58.635 47.7862C58.6002 48.5429 58.481 49.3345 58.5009 50.1409C58.5045 50.2363 58.5162 50.3312 58.5357 50.4247C58.5357 50.5193 58.6052 50.5591 58.5952 50.5392C58.5853 50.5193 58.6896 50.4595 58.7293 50.3799C58.7783 50.2915 58.8214 50.2001 58.8585 50.1061C59.0055 49.7025 59.1136 49.2858 59.1813 48.8615C59.2657 48.4284 59.2955 47.9804 59.3551 47.5174C59.4147 47.0544 59.4742 46.5964 59.5487 46.1235C59.6232 45.6505 59.7077 45.1776 59.802 44.6947C59.8828 44.1904 60.0228 43.6974 60.2192 43.2261C60.2589 43.147 60.3189 43.08 60.393 43.0319C60.459 42.9957 60.529 42.9673 60.6016 42.9473C60.6849 42.9235 60.7723 42.9178 60.8579 42.9306C60.9436 42.9435 61.0255 42.9747 61.0982 43.022C61.2134 43.1137 61.3086 43.2282 61.3778 43.3584C61.447 43.4886 61.4887 43.6316 61.5004 43.7787C61.5377 44.0496 61.5377 44.3243 61.5004 44.5951C61.4756 44.849 61.4508 45.093 61.4359 45.3717C61.3391 46.4321 61.3491 47.4995 61.4657 48.5578C61.4869 48.6835 61.5202 48.8069 61.565 48.9262C61.5799 48.9744 61.6053 49.0186 61.6395 49.0557C61.6395 49.0557 61.6395 49.0557 61.6643 49.0557C61.6643 49.1702 61.6643 49.0557 61.6643 49.1005C61.6643 49.1453 61.6643 49.1005 61.6643 49.0606C61.7263 48.9775 61.7749 48.8851 61.8083 48.7868C61.8547 48.664 61.8944 48.5346 61.9275 48.3985C62.0616 47.8708 62.151 47.3133 62.2354 46.7557C62.4043 45.6356 62.5284 44.4856 62.6327 43.3207V43.3456C62.5885 42.9352 62.6773 42.5215 62.886 42.1657C62.9656 42.064 63.0749 41.9897 63.1986 41.9532C63.3223 41.9166 63.4543 41.9195 63.5763 41.9616C63.6804 42.0196 63.7719 42.0979 63.8453 42.192C63.9186 42.286 63.9724 42.3939 64.0034 42.5092C64.1624 43.1214 64.2277 43.7542 64.197 44.386C64.197 45.0033 64.1424 45.6107 64.0878 46.2131C64.0331 46.8154 63.9587 47.4079 63.8742 47.9953C63.8295 48.294 63.7848 48.5827 63.7401 48.8764C63.7004 49.0606 63.7104 49.0656 63.7401 49.1204C63.7746 49.1437 63.8153 49.1562 63.8569 49.1562C63.8984 49.1562 63.9391 49.1437 63.9736 49.1204C64.0331 49.0756 64.0431 48.9909 64.058 48.8267L64.0927 48.3936L64.1821 47.5323C64.2417 46.9648 64.3212 46.3973 64.4155 45.8447C64.5074 45.2896 64.6402 44.7422 64.8128 44.2068C64.903 43.9362 65.0247 43.6772 65.1754 43.4352C65.2574 43.3047 65.3656 43.1928 65.4932 43.1066C65.564 43.0553 65.646 43.0217 65.7324 43.0087C65.8188 42.9957 65.9071 43.0037 65.9898 43.0319C66.0659 43.079 66.1301 43.143 66.1775 43.219C66.2248 43.295 66.2541 43.3809 66.2629 43.47C66.2834 43.6101 66.2917 43.7517 66.2878 43.8932C66.2878 44.167 66.253 44.4308 66.2232 44.6947C66.1537 45.1925 66.0593 45.7202 65.9699 46.223C65.7566 47.1687 65.6533 48.1359 65.662 49.1054C65.676 49.2095 65.7027 49.3115 65.7415 49.4091C65.7595 49.4445 65.7811 49.4778 65.8061 49.5087C65.8061 49.5087 65.8061 49.5087 65.8061 49.4738C65.9176 49.2939 65.9997 49.0973 66.0494 48.8914C66.1785 48.4583 66.2828 48.0202 66.397 47.592C66.4995 47.1661 66.6238 46.7457 66.7695 46.3325C66.8383 46.1279 66.9281 45.931 67.0377 45.7451C67.0969 45.6438 67.1743 45.5543 67.2661 45.4813C67.316 45.4379 67.3756 45.4071 67.4399 45.3916C67.5041 45.3816 67.5694 45.3816 67.6336 45.3916C67.7014 45.3984 67.7661 45.4232 67.8211 45.4635C67.8761 45.5038 67.9194 45.558 67.9465 45.6207C67.9879 45.7253 68.0098 45.8367 68.011 45.9492C68.0149 46.1506 68.0032 46.352 67.9762 46.5516C67.9316 46.9399 67.8571 47.3083 67.7875 47.6717C67.6435 48.3836 67.4846 49.0606 67.2909 49.663C66.9185 50.8976 66.546 51.9431 66.2431 52.7944C65.9401 53.6456 65.6819 54.2878 65.5081 54.7458C65.4237 54.9549 65.3541 55.1192 65.3045 55.2437C65.2822 55.3251 65.2506 55.4036 65.2101 55.4776Z" fill="#EB996E"/>
<path d="M38.1001 69.5061C39.0436 72.8466 40.891 77.9991 42.8725 83.4453C42.935 83.6208 43.048 83.7737 43.1972 83.8847C43.3465 83.9957 43.5252 84.0598 43.7109 84.0689C43.8965 84.078 44.0806 84.0316 44.2399 83.9356C44.3992 83.8397 44.5265 83.6985 44.6057 83.5299L49.4626 73.2299C49.4626 73.2299 48.2906 64.7668 48.3899 65.0705C48.4892 65.3742 38.3682 66.1657 38.3682 66.1657L38.1001 69.5061Z" fill="#6F51F8"/>
<path d="M49.0454 67.8478C49.0454 67.8877 48.4395 68.0669 47.4811 68.4353C46.2285 68.9119 45.0217 69.5018 43.8757 70.1976C42.7312 70.8967 41.6509 71.6963 40.6477 72.5872C39.8779 73.2692 39.436 73.7371 39.4062 73.7073C39.3764 73.6774 39.4906 73.5679 39.6793 73.3439C39.9453 73.0326 40.2271 72.7351 40.5235 72.4528C41.5024 71.5079 42.5815 70.6732 43.7416 69.9636C44.902 69.2627 46.134 68.6886 47.4165 68.2511C47.8042 68.1172 48.1987 68.0042 48.5985 67.9126C48.743 67.8672 48.8939 67.8454 49.0454 67.8478Z" fill="#FAFAFA"/>
<path d="M50.9723 70.4176C50.6567 70.0987 50.383 69.7407 50.1578 69.3523C49.5778 68.4458 49.0793 67.4896 48.668 66.4947C48.2564 65.4969 47.9356 64.4639 47.7095 63.4082C47.5938 62.9764 47.5353 62.5311 47.5357 62.084C47.6838 62.5014 47.8016 62.929 47.8883 63.3634C48.1543 64.3943 48.4861 65.4069 48.8815 66.3952C49.2946 67.3782 49.769 68.3343 50.3018 69.2577C50.5498 69.6296 50.7738 70.017 50.9723 70.4176Z" fill="#263238"/>
<path d="M54.2102 24.8065C53.3676 26.1985 52.8453 27.7613 52.6813 29.3812C52.5172 31.0011 52.7154 32.6372 53.2616 34.1706C53.7582 35.5396 54.5528 36.8888 54.4088 38.3424C54.2648 39.7961 53.1325 41.2348 53.5298 42.6685C53.7682 43.5198 54.4932 44.162 54.7763 44.9884C55.0991 45.9841 54.7763 47.0345 54.6025 48.055C54.2052 50.6637 55.0395 53.2872 55.2431 55.9157C55.4467 58.5443 54.7465 61.6258 52.4025 62.7708C51.6923 63.1193 50.7637 63.2189 50.1727 62.6862C49.4179 62.0141 49.6264 60.7994 49.835 59.8038C51.891 49.8472 45.5393 40.1296 46.9894 30.0536C47.2228 28.4406 48.1217 25.7026 49.2788 24.5775C50.4359 23.4524 53.649 23.5818 54.7415 24.7766" fill="#263238"/>
<path d="M44.4269 53.6898C44.4269 53.6898 44.7298 53.3313 45.1768 52.6244C45.804 51.626 46.2433 50.5208 46.473 49.3636C46.6228 48.5665 46.6745 47.7539 46.6269 46.9442C46.54 46.0026 46.5052 45.057 46.5226 44.1115C46.5522 43.5938 46.6474 43.0819 46.8057 42.5882C46.9872 42.0796 47.2167 41.5895 47.491 41.1246C48.0472 40.1837 48.7474 39.3075 49.393 38.3716C50.056 37.4871 50.5171 36.4674 50.7438 35.3846C50.8539 34.3647 50.7952 33.3336 50.57 32.3329C50.3821 31.4029 50.3087 30.4532 50.3515 29.5053C50.4106 28.6772 50.5775 27.8605 50.8481 27.0759C51.2275 25.9373 51.8246 24.8839 52.6061 23.9744C52.8137 23.7272 53.0395 23.4959 53.2815 23.2824C53.3582 23.2004 53.445 23.1285 53.5397 23.0684C53.5397 23.0684 53.207 23.3919 52.6806 24.064C51.4268 25.6241 50.6937 27.5397 50.5849 29.5401C50.5517 30.4726 50.6334 31.4056 50.8282 32.318C51.0651 33.3456 51.1289 34.4056 51.017 35.4543C50.7815 36.5673 50.307 37.6155 49.6264 38.5259C48.9759 39.4768 48.2757 40.348 47.7294 41.264C47.4607 41.7116 47.2377 42.1853 47.0639 42.6778C46.9068 43.1513 46.8117 43.6433 46.7808 44.1414C46.7589 45.0764 46.7854 46.0119 46.8603 46.9442C46.8997 47.7703 46.8364 48.5981 46.6716 49.4084C46.4227 50.5814 45.9506 51.6953 45.2811 52.6891C45.0998 52.9578 44.9007 53.2139 44.6851 53.4558C44.6079 53.543 44.5213 53.6215 44.4269 53.6898Z" fill="#455A64"/>
<path d="M39.719 54.433C39.759 54.3169 39.8106 54.2051 39.873 54.0994C39.9971 53.8654 40.156 53.5568 40.3696 53.1685C40.7867 52.357 41.4075 51.1772 42.0183 49.6837C42.7655 47.9394 43.1799 46.0701 43.24 44.1727C43.2403 43.6261 43.1988 43.0802 43.1159 42.5399C43.0314 41.9823 42.9023 41.4198 42.8179 40.8323C42.7146 40.2247 42.7281 39.6029 42.8576 39.0003C43.0256 38.3817 43.3709 37.826 43.8508 37.4023C44.7845 36.551 45.9118 35.9934 46.4978 34.9928C47.0055 34.0006 47.3047 32.9145 47.3768 31.8017C47.4819 30.7816 47.7121 29.7784 48.0621 28.8147C48.8493 26.746 50.2518 24.9699 52.0797 23.7269C52.3711 23.5303 52.6746 23.3524 52.9885 23.1943C53.0945 23.1306 53.2079 23.0805 53.3262 23.0449C53.3262 23.0449 52.8792 23.2839 52.1393 23.8116C51.0964 24.5576 50.1935 25.4829 49.4725 26.5447C48.9725 27.2724 48.5654 28.0602 48.2608 28.8894C47.9261 29.8553 47.7093 30.8583 47.6152 31.8764C47.4662 32.9368 47.347 34.1216 46.7113 35.172C46.0757 36.2224 44.9136 36.8198 44.0247 37.6611C43.5716 38.0552 43.2451 38.5749 43.0861 39.1546C42.9653 39.7247 42.9535 40.3126 43.0513 40.8871C43.1308 41.4596 43.2549 42.0271 43.3393 42.5896C43.4252 43.1429 43.4651 43.7024 43.4585 44.2623C43.391 46.1945 42.9544 48.0957 42.1723 49.8629C41.6643 51.0572 41.0872 52.2208 40.4441 53.3477L39.9177 54.1293C39.8623 54.2373 39.7958 54.3391 39.719 54.433Z" fill="#455A64"/>
<path d="M204.028 195.104C204.051 195.032 204.081 194.962 204.117 194.895C204.187 194.746 204.281 194.547 204.396 194.293C204.741 193.515 205.019 192.709 205.225 191.883C205.771 189.742 205.965 186.472 205.155 182.589C204.716 180.471 204.14 178.384 203.432 176.341C202.707 174.126 201.858 171.776 201.168 169.232C200.388 166.579 200.012 163.823 200.05 161.058C200.155 158.165 201.009 155.283 201.947 152.405C202.886 149.528 203.854 146.725 204.142 143.888C204.463 141.166 203.917 138.413 202.583 136.022C201.341 133.727 199.777 131.76 198.61 129.729C197.517 127.842 196.712 125.802 196.221 123.676C195.517 120.598 195.464 117.406 196.067 114.307C196.287 113.173 196.62 112.064 197.061 110.996C197.047 111.071 197.027 111.144 197.001 111.215L196.802 111.847C196.634 112.405 196.41 113.241 196.197 114.337C195.641 117.422 195.724 120.589 196.44 123.641C196.938 125.741 197.746 127.754 198.838 129.615C200.006 131.606 201.575 133.597 202.846 135.902C204.212 138.342 204.774 141.153 204.45 143.932C204.157 146.81 203.184 149.642 202.245 152.515C201.307 155.387 200.462 158.24 200.358 161.083C200.314 163.821 200.682 166.55 201.451 169.177C202.131 171.706 202.965 174.056 203.685 176.281C204.387 178.336 204.951 180.434 205.374 182.564C206.164 186.477 205.94 189.782 205.374 191.928C205.152 192.755 204.855 193.56 204.485 194.332L204.177 194.925C204.134 194.99 204.084 195.05 204.028 195.104Z" fill="#263238"/>
<path d="M200.199 131.736C200.199 131.736 197.825 124.114 202.086 119.653C202.119 119.617 202.162 119.591 202.209 119.578C202.256 119.565 202.305 119.565 202.352 119.579C202.399 119.592 202.441 119.618 202.474 119.654C202.507 119.69 202.529 119.735 202.538 119.783C202.767 121.042 203.05 124.875 200.199 131.736Z" fill="#6F51F8"/>
<path d="M201.624 122.191C201.617 122.663 201.564 123.134 201.466 123.595C201.307 124.566 201.123 125.701 200.924 126.956C200.726 128.21 200.542 129.35 200.388 130.316C200.345 130.787 200.261 131.253 200.14 131.71C200.093 131.239 200.103 130.764 200.169 130.296C200.249 129.425 200.403 128.23 200.616 126.916C200.83 125.602 201.063 124.427 201.247 123.565C201.32 123.094 201.446 122.633 201.624 122.191Z" fill="#263238"/>
<path d="M202.99 149.711C202.99 149.711 204.445 141.861 210.295 139.919C210.341 139.903 210.391 139.9 210.439 139.911C210.486 139.921 210.53 139.945 210.565 139.979C210.6 140.013 210.625 140.056 210.637 140.104C210.649 140.151 210.648 140.201 210.633 140.248C210.246 141.457 208.711 144.977 202.99 149.711Z" fill="#6F51F8"/>
<path d="M208.701 141.936C208.474 142.35 208.208 142.742 207.907 143.105L205.856 145.819L203.819 148.542C203.563 148.937 203.272 149.308 202.95 149.652C203.132 149.214 203.365 148.799 203.646 148.417C204.142 147.685 204.818 146.7 205.632 145.639C206.447 144.579 207.187 143.648 207.748 142.971C208.027 142.592 208.346 142.245 208.701 141.936Z" fill="#263238"/>
<path d="M201.411 169.392C201.411 169.392 200.527 161.456 205.563 157.897C205.601 157.866 205.648 157.848 205.697 157.843C205.746 157.838 205.796 157.848 205.839 157.87C205.883 157.893 205.92 157.927 205.945 157.97C205.969 158.013 205.982 158.061 205.98 158.111C205.965 159.39 205.513 163.204 201.411 169.392Z" fill="#6F51F8"/>
<path d="M204.639 160.297C204.547 160.76 204.405 161.213 204.217 161.646L203.045 164.842C202.608 166.037 202.215 167.117 201.883 168.038C201.755 168.491 201.589 168.933 201.386 169.357C201.432 168.885 201.535 168.42 201.694 167.973C201.937 167.137 202.315 165.982 202.777 164.737C203.238 163.493 203.69 162.373 204.033 161.571C204.191 161.127 204.394 160.7 204.639 160.297Z" fill="#263238"/>
<path d="M205.816 189.196C205.816 189.196 205.22 181.23 210.375 177.855C210.415 177.827 210.462 177.811 210.511 177.809C210.56 177.807 210.609 177.818 210.652 177.842C210.694 177.865 210.73 177.901 210.754 177.944C210.778 177.986 210.789 178.035 210.787 178.084C210.727 179.364 210.141 183.162 205.816 189.196Z" fill="#6F51F8"/>
<path d="M209.352 180.225C209.241 180.684 209.082 181.131 208.88 181.559C208.512 182.465 208.075 183.55 207.594 184.71C207.112 185.87 206.69 186.95 206.322 187.861C206.175 188.311 205.987 188.746 205.761 189.161C205.827 188.69 205.949 188.229 206.124 187.787C206.397 186.96 206.814 185.825 207.321 184.596C207.827 183.366 208.314 182.261 208.686 181.474C208.863 181.035 209.086 180.616 209.352 180.225Z" fill="#263238"/>
<path d="M196.782 125.039C196.782 125.039 189.741 121.336 189.587 115.168C189.586 115.119 189.599 115.072 189.623 115.03C189.647 114.988 189.683 114.954 189.725 114.93C189.767 114.907 189.815 114.895 189.863 114.897C189.911 114.898 189.958 114.913 189.999 114.939C191.047 115.665 193.957 118.174 196.782 125.039Z" fill="#6F51F8"/>
<path d="M191.052 117.289C191.382 117.628 191.677 118 191.931 118.399C192.507 119.191 193.177 120.127 193.917 121.157L195.903 123.905C196.206 124.267 196.475 124.655 196.708 125.065C196.345 124.762 196.02 124.416 195.74 124.035C195.178 123.368 194.443 122.412 193.669 121.331C192.894 120.251 192.214 119.251 191.747 118.519C191.473 118.134 191.24 117.722 191.052 117.289Z" fill="#263238"/>
<path d="M204.366 141.402C204.366 141.402 197.095 138.142 196.584 131.984C196.58 131.935 196.589 131.887 196.611 131.843C196.632 131.8 196.666 131.763 196.707 131.737C196.748 131.712 196.795 131.698 196.843 131.697C196.892 131.697 196.94 131.71 196.981 131.735C198.069 132.397 201.123 134.717 204.366 141.402Z" fill="#6F51F8"/>
<path d="M198.183 134.016C198.533 134.332 198.849 134.684 199.127 135.066L201.282 137.7L203.442 140.323C203.766 140.666 204.058 141.038 204.316 141.433C203.935 141.151 203.588 140.826 203.283 140.463C202.687 139.825 201.893 138.919 201.053 137.889C200.214 136.858 199.479 135.897 198.963 135.195C198.66 134.832 198.399 134.437 198.183 134.016Z" fill="#263238"/>
<path d="M200.169 159.668C200.169 159.668 195.203 153.446 197.522 147.721C197.541 147.676 197.571 147.637 197.61 147.608C197.649 147.579 197.695 147.562 197.744 147.558C197.792 147.553 197.84 147.563 197.884 147.585C197.927 147.606 197.964 147.64 197.989 147.681C198.68 148.761 200.333 152.226 200.169 159.668Z" fill="#6F51F8"/>
<path d="M198.024 150.25C198.194 150.692 198.317 151.151 198.392 151.619C198.6 152.575 198.843 153.7 199.112 154.945C199.38 156.189 199.633 157.309 199.842 158.265C199.974 158.719 200.066 159.184 200.115 159.654C199.897 159.231 199.73 158.783 199.618 158.32C199.375 157.478 199.077 156.328 198.799 155.004C198.521 153.68 198.302 152.515 198.163 151.659C198.065 151.196 198.019 150.723 198.024 150.25Z" fill="#263238"/>
<path d="M205.136 181.13C205.136 181.13 197.92 177.75 197.513 171.586C197.508 171.537 197.517 171.488 197.539 171.444C197.561 171.399 197.594 171.362 197.636 171.336C197.678 171.31 197.726 171.297 197.776 171.297C197.825 171.297 197.873 171.311 197.915 171.337C198.982 172.02 201.997 174.394 205.136 181.13Z" fill="#6F51F8"/>
<path d="M199.062 173.639C199.403 173.965 199.713 174.324 199.986 174.709L202.096 177.372L204.212 180.036C204.53 180.384 204.816 180.761 205.066 181.161C204.696 180.87 204.363 180.536 204.073 180.165C203.482 179.518 202.707 178.597 201.883 177.552C201.058 176.506 200.343 175.535 199.837 174.824C199.533 174.46 199.273 174.062 199.062 173.639Z" fill="#263238"/>
<path d="M219.493 149.746C219.493 149.746 219.493 149.806 219.493 149.92C219.493 150.035 219.493 150.224 219.493 150.418C219.493 150.916 219.443 151.548 219.408 152.355C219.319 154.057 219.185 156.432 219.031 159.27C218.534 162.157 217.044 165.358 215.058 168.469C213.613 170.759 212.078 172.84 210.787 174.777C209.609 176.476 208.55 178.256 207.619 180.104C207.002 181.352 206.503 182.655 206.129 183.997C206.005 184.47 205.905 184.843 205.851 185.097C205.827 185.229 205.792 185.359 205.746 185.485C205.748 185.351 205.765 185.217 205.796 185.087C205.831 184.828 205.905 184.45 206.019 183.967C206.354 182.602 206.828 181.276 207.435 180.009C208.358 178.147 209.415 176.355 210.598 174.647C211.899 172.696 213.404 170.61 214.844 168.335C216.806 165.238 218.266 162.087 218.817 159.245C219.016 156.412 219.18 154.042 219.314 152.34C219.378 151.533 219.433 150.891 219.473 150.408C219.473 150.209 219.507 150.04 219.522 149.91C219.506 149.857 219.495 149.802 219.493 149.746Z" fill="#263238"/>
<path d="M215.197 167.898C215.197 167.898 218.251 160.53 214.412 155.697C214.382 155.658 214.343 155.628 214.297 155.611C214.251 155.594 214.202 155.589 214.154 155.599C214.106 155.608 214.061 155.63 214.026 155.663C213.99 155.697 213.964 155.739 213.95 155.786C213.608 157.021 212.977 160.809 215.197 167.898Z" fill="#6F51F8"/>
<path d="M214.641 158.27C214.772 158.724 214.854 159.191 214.884 159.663C214.993 160.53 215.112 161.729 215.207 163.059C215.301 164.388 215.346 165.593 215.346 166.469C215.376 166.942 215.347 167.417 215.261 167.883C215.176 167.418 215.134 166.946 215.137 166.474C215.073 165.478 214.993 164.348 214.909 163.079C214.824 161.809 214.745 160.659 214.675 159.683C214.618 159.214 214.606 158.741 214.641 158.27Z" fill="#263238"/>
<g opacity="0.3">
<path d="M215.197 167.898C215.197 167.898 218.251 160.53 214.412 155.697C214.382 155.658 214.343 155.628 214.297 155.611C214.251 155.594 214.202 155.589 214.154 155.599C214.106 155.608 214.061 155.63 214.026 155.663C213.99 155.697 213.964 155.739 213.95 155.786C213.608 157.021 212.977 160.809 215.197 167.898Z" fill="black"/>
</g>
<path d="M205.736 185.665C205.736 185.665 208.185 178.069 203.964 173.568C203.931 173.532 203.889 173.506 203.842 173.493C203.796 173.479 203.746 173.479 203.7 173.492C203.653 173.505 203.611 173.53 203.577 173.566C203.544 173.601 203.521 173.645 203.512 173.693C203.273 174.947 202.95 178.78 205.736 185.665Z" fill="#6F51F8"/>
<path d="M204.401 176.098C204.573 176.54 204.693 177.001 204.758 177.472C204.937 178.323 205.15 179.513 205.354 180.827C205.558 182.141 205.697 183.341 205.771 184.212C205.836 184.683 205.844 185.159 205.796 185.631C205.678 185.174 205.598 184.708 205.558 184.237C205.414 183.266 205.245 182.131 205.061 180.872C204.877 179.612 204.699 178.477 204.564 177.507C204.464 177.043 204.409 176.572 204.401 176.098Z" fill="#263238"/>
<g opacity="0.3">
<path d="M205.736 185.665C205.736 185.665 208.185 178.069 203.964 173.568C203.931 173.532 203.889 173.506 203.842 173.493C203.796 173.479 203.746 173.479 203.7 173.492C203.653 173.505 203.611 173.53 203.577 173.566C203.544 173.601 203.521 173.645 203.512 173.693C203.273 174.947 202.95 178.78 205.736 185.665Z" fill="black"/>
</g>
<path d="M219.09 158.893C219.09 158.893 225.611 154.313 224.955 148.17C224.95 148.122 224.932 148.076 224.903 148.037C224.873 147.998 224.834 147.969 224.788 147.951C224.743 147.934 224.694 147.929 224.646 147.938C224.599 147.947 224.554 147.968 224.518 148.001C223.57 148.857 221.027 151.704 219.09 158.893Z" fill="#6F51F8"/>
<g opacity="0.3">
<path d="M219.09 158.893C219.09 158.893 225.611 154.313 224.955 148.17C224.95 148.122 224.932 148.076 224.903 148.037C224.873 147.998 224.834 147.969 224.788 147.951C224.743 147.934 224.694 147.929 224.646 147.938C224.599 147.947 224.554 147.968 224.518 148.001C223.57 148.857 221.027 151.704 219.09 158.893Z" fill="black"/>
</g>
<path d="M223.773 150.465C223.644 150.921 223.462 151.36 223.232 151.774C222.86 152.561 222.318 153.636 221.688 154.811C221.057 155.986 220.451 157.026 219.984 157.763C219.755 158.177 219.476 158.561 219.155 158.908C219.329 158.47 219.546 158.05 219.8 157.653C220.267 156.792 220.819 155.787 221.424 154.667L223.043 151.68C223.247 151.252 223.491 150.845 223.773 150.465Z" fill="#263238"/>
<path d="M208.368 178.134C208.368 178.134 216.235 176.904 218.34 171.099C218.357 171.054 218.362 171.005 218.353 170.957C218.344 170.91 218.322 170.866 218.29 170.83C218.258 170.794 218.216 170.767 218.17 170.753C218.123 170.739 218.074 170.739 218.028 170.751C216.801 171.119 213.245 172.538 208.368 178.134Z" fill="#6F51F8"/>
<g opacity="0.3">
<path d="M208.368 178.134C208.368 178.134 216.235 176.904 218.34 171.099C218.357 171.054 218.362 171.005 218.353 170.957C218.344 170.91 218.322 170.866 218.29 170.83C218.258 170.794 218.216 170.767 218.17 170.753C218.123 170.739 218.074 170.739 218.028 170.751C216.801 171.119 213.245 172.538 208.368 178.134Z" fill="black"/>
</g>
<path d="M216.275 172.637C215.956 172.985 215.599 173.298 215.212 173.568C214.531 174.115 213.573 174.842 212.495 175.619C211.418 176.395 210.41 177.057 209.665 177.515C209.276 177.787 208.856 178.009 208.413 178.178C208.766 177.863 209.146 177.581 209.55 177.336L212.321 175.375L215.088 173.383C215.456 173.093 215.854 172.843 216.275 172.637Z" fill="#263238"/>
<path d="M200.86 192.65L198.565 208.133H212.868L211.015 192.65H200.86Z" fill="#455A64"/>
<path d="M211.591 197.444C211.591 197.529 209.009 197.594 205.826 197.594C202.643 197.594 200.055 197.529 200.055 197.444C201.975 197.297 203.901 197.247 205.826 197.295C207.749 197.247 209.673 197.297 211.591 197.444Z" fill="#263238"/>
<path d="M211.87 198.679C211.87 198.763 209.203 198.828 205.91 198.828C202.618 198.828 199.951 198.763 199.951 198.679C199.951 198.594 202.618 198.529 205.91 198.529C209.203 198.529 211.87 198.594 211.87 198.679Z" fill="#263238"/>
<path d="M156.254 42.4493C156.254 42.4493 156.12 42.4493 155.862 42.4493C155.485 42.4269 155.106 42.4269 154.729 42.4493C153.271 42.5349 151.838 42.8717 150.493 43.445C148.362 44.3405 146.507 45.7891 145.12 47.6417C144.265 48.7984 143.628 50.1028 143.243 51.4899C142.374 54.794 142.843 58.3087 144.549 61.2672C145.014 62.0863 145.581 62.8425 146.237 63.5174C146.899 64.2324 147.67 64.8374 148.522 65.3096C149.395 65.8025 150.385 66.0517 151.387 66.0314C152.421 66.019 153.412 65.6174 154.163 64.9063C154.527 64.5247 154.811 64.075 155.001 63.583C155.191 63.091 155.283 62.5663 155.271 62.0388C155.263 60.943 154.916 59.8766 154.277 58.9872C152.991 57.1701 150.905 55.9504 148.686 55.2933C146.384 54.6452 143.953 54.6109 141.634 55.1937C140.45 55.5024 139.309 55.9573 138.237 56.5478C137.155 57.16 136.172 57.9339 135.322 58.8428C135.118 59.0768 134.885 59.2908 134.701 59.5497L134.14 60.3064C133.799 60.8396 133.493 61.3951 133.226 61.9691C132.695 63.1346 132.332 64.37 132.148 65.6381C131.788 68.1715 132.132 70.7554 133.142 73.1056C134.107 75.4019 135.788 77.3232 137.934 78.5817C138.974 79.1775 140.136 79.5298 141.331 79.6122C142.503 79.6779 143.668 79.3975 144.683 78.8057C145.69 78.2478 146.486 77.373 146.947 76.3166C147.383 75.2753 147.413 74.1082 147.032 73.0458C146.639 72.0208 145.998 71.1104 145.165 70.3974C144.357 69.6975 143.425 69.1555 142.418 68.7993C140.455 68.1787 138.354 68.1423 136.37 68.6948C134.513 69.199 132.808 70.151 131.404 71.4677C130.124 72.6966 129.149 74.2089 128.558 75.8834C127.523 78.7889 127.571 81.9713 128.692 84.8443C129.566 86.9892 130.973 88.8743 132.779 90.3204C133.917 91.2351 135.184 91.975 136.538 92.5159C137.005 92.6901 137.368 92.8195 137.616 92.8892L137.984 93.0087C137.984 93.0087 137.855 92.9838 137.606 92.9141C137.239 92.8157 136.878 92.6977 136.524 92.5607C135.151 92.0436 133.868 91.3146 132.72 90.4001C130.883 88.955 129.448 87.0606 128.553 84.8991C127.412 81.9989 127.354 78.7834 128.389 75.8436C128.982 74.1437 129.967 72.6084 131.264 71.3632C132.689 70.0201 134.42 69.046 136.305 68.5255C138.331 67.959 140.477 67.9936 142.483 68.6251C143.519 68.9875 144.478 69.5432 145.309 70.263C146.174 70.9993 146.84 71.9428 147.245 73.006C147.654 74.1159 147.636 75.3384 147.196 76.436C146.706 77.5341 145.875 78.4439 144.827 79.0297C143.775 79.6444 142.567 79.9385 141.351 79.876C140.126 79.7904 138.937 79.426 137.874 78.8107C135.68 77.5346 133.957 75.5801 132.963 73.24C131.931 70.8467 131.577 68.2148 131.94 65.6332C132.129 64.3394 132.501 63.079 133.042 61.8895C133.315 61.3033 133.627 60.7361 133.976 60.1919L134.552 59.4203C134.736 59.1564 134.974 58.9224 135.183 58.6934C136.053 57.7673 137.057 56.9785 138.162 56.3536C139.259 55.7518 140.427 55.2902 141.639 54.9796C144.002 54.3859 146.479 54.4219 148.825 55.0842C151.089 55.7612 153.21 57.0008 154.546 58.8826C155.217 59.8092 155.582 60.9235 155.589 62.0687C155.613 63.1958 155.189 64.2863 154.412 65.1005C153.617 65.8482 152.571 66.2693 151.482 66.2803C150.439 66.3041 149.409 66.0443 148.502 65.5286C147.63 65.0465 146.842 64.4261 146.168 63.6916C145.503 63.0016 144.927 62.2306 144.454 61.3966C142.718 58.3832 142.247 54.802 143.143 51.4401C143.541 50.0369 144.192 48.719 145.065 47.552C146.478 45.6854 148.365 44.2327 150.528 43.3454C151.884 42.7832 153.328 42.4664 154.794 42.4095C155.174 42.3843 155.556 42.3843 155.936 42.4095L156.254 42.4493Z" fill="#263238"/>
<path d="M172.841 92.2617H103.211V146.097H172.841V92.2617Z" fill="#6F51F8"/>
<path d="M103.211 92.2617L116.068 104.289H184.521L172.841 92.2617H103.211Z" fill="#6F51F8"/>
<path d="M103.206 92.2612L172.856 92.1367H172.91L172.95 92.1716L184.511 104.075L184.63 104.199L184.844 104.418H184.536L116.088 104.363H116.058L103.206 92.2612L116.118 104.209H116.063L184.511 104.159L184.422 104.378L184.298 104.254L172.742 92.3508L172.831 92.3906L103.206 92.2612Z" fill="#263238"/>
<path d="M124.123 117.088C123.746 117.102 123.389 117.263 123.13 117.538C122.87 117.813 122.729 118.178 122.735 118.557C122.742 118.935 122.897 119.296 123.166 119.561C123.436 119.826 123.798 119.974 124.175 119.974C124.553 119.974 124.915 119.826 125.184 119.561C125.454 119.296 125.608 118.935 125.615 118.557C125.622 118.178 125.481 117.813 125.221 117.538C124.961 117.263 124.605 117.102 124.227 117.088" fill="#263238"/>
<path d="M140.576 117.088C140.2 117.102 139.845 117.264 139.587 117.538C139.329 117.812 139.188 118.176 139.196 118.553C139.203 118.93 139.357 119.289 139.625 119.553C139.894 119.816 140.255 119.964 140.631 119.964C141.006 119.964 141.367 119.816 141.636 119.553C141.904 119.289 142.058 118.93 142.066 118.553C142.073 118.176 141.932 117.812 141.674 117.538C141.416 117.264 141.061 117.102 140.685 117.088" fill="#263238"/>
<path d="M140.67 129.973C140.383 128.874 139.917 127.829 139.29 126.882C138.592 125.869 137.697 125.008 136.658 124.353C135.404 123.519 133.942 123.055 132.438 123.013C130.934 122.972 129.448 123.355 128.151 124.119C127.079 124.719 126.139 125.528 125.385 126.498C124.706 127.411 124.184 128.43 123.84 129.515C123.844 129.434 123.857 129.354 123.88 129.276C123.927 129.052 123.989 128.831 124.064 128.614C124.336 127.815 124.733 127.063 125.241 126.389C125.989 125.373 126.942 124.525 128.037 123.9C129.367 123.103 130.897 122.703 132.446 122.745C133.996 122.788 135.501 123.271 136.787 124.139C137.844 124.82 138.747 125.715 139.439 126.767C139.91 127.469 140.268 128.242 140.497 129.057C140.558 129.278 140.606 129.503 140.641 129.729C140.658 129.81 140.668 129.891 140.67 129.973Z" fill="#263238"/>
<path opacity="0.5" d="M103.365 92.8535L115.681 108.505H172.841V104.289H116.068L103.365 92.8535Z" fill="black"/>
<path d="M159.105 145.978C159.035 145.978 158.975 136.614 158.975 125.069C158.975 113.524 159.035 104.16 159.105 104.16C159.174 104.16 159.239 113.519 159.239 125.069C159.239 136.619 159.179 145.978 159.105 145.978Z" fill="#263238"/>
<path d="M170.04 133.771H163.902V140.726H170.04V133.771Z" fill="#F5F5F5"/>
<path d="M103.211 92.2617L88.9134 104.289H103.211V92.2617Z" fill="#6F51F8"/>
<g opacity="0.4">
<path d="M103.211 92.2617L88.9134 104.289H103.211V92.2617Z" fill="black"/>
</g>
<path d="M174.897 146.098H94.838V207.998H174.897V146.098Z" fill="#6F51F8"/>
<path opacity="0.3" d="M174.897 146.098H94.838V207.998H174.897V146.098Z" fill="black"/>
<path d="M154.834 207.56C154.764 207.56 154.705 193.765 154.705 176.749C154.705 159.733 154.764 145.934 154.834 145.934C154.903 145.934 154.963 159.728 154.963 176.749C154.963 193.77 154.903 207.56 154.834 207.56Z" fill="#263238"/>
<path d="M168.108 193.908H161.97V200.863H168.108V193.908Z" fill="#F5F5F5"/>
<path d="M128.354 146.256H119.261V159.463H128.354V146.256Z" fill="#263238"/>
<path d="M128.354 194.605H119.261V207.813H128.354V194.605Z" fill="#263238"/>
<path d="M174.197 146.096H173.988H173.387L171.078 146.121L162.571 146.161L134.517 146.226L106.454 146.191L97.9518 146.151L95.6425 146.126H95.0366H94.833H95.0366H95.6425L97.9518 146.101L106.454 146.061L134.517 146.021L162.571 146.061L171.078 146.101L173.387 146.126H173.988L174.197 146.096Z" fill="#263238"/>
<path d="M36.9926 38.9293L28.2721 36.7787H28.3367C26.085 38.2145 23.4812 38.9984 20.813 39.0438C19.2334 39.051 17.6616 38.8211 16.1498 38.3618C13.492 37.5063 11.1341 35.906 9.35468 33.7499C7.57527 31.5939 6.44877 28.9723 6.10833 26.1949C5.84094 24.0944 6.03778 21.9606 6.68488 19.9448C7.33198 17.9291 8.41351 16.0807 9.85278 14.5308C10.6094 13.6977 11.4573 12.9529 12.3805 12.3105C12.8474 12.0167 13.3142 11.7131 13.8008 11.4592L14.5408 11.1007L14.9083 10.9215L15.2956 10.7821C17.2898 10.0073 19.4289 9.67933 21.5629 9.82132C24.4229 10.0075 27.1638 11.0381 29.4404 12.7834C31.717 14.5287 33.4272 16.9104 34.3556 19.6285C34.8714 21.149 35.143 22.742 35.1601 24.3479C35.1726 27.0168 34.449 29.6373 33.0694 31.9199V31.8402C35.4929 36.2261 36.7145 38.4414 36.9877 38.9293C36.7046 38.4315 35.4382 36.256 32.9303 31.9149V31.8751V31.8353C34.2604 29.5747 34.9474 26.9921 34.9168 24.3679C34.8937 22.7876 34.6188 21.2213 34.1023 19.7281C33.1841 17.0656 31.5026 14.7338 29.2686 13.0248C27.0346 11.3157 24.3472 10.3053 21.543 10.12C19.4511 9.98334 17.3546 10.3062 15.3999 11.0659L15.0225 11.2003L14.66 11.3795L13.9349 11.728C13.4383 11.9819 13.0013 12.2756 12.5395 12.5644C11.6341 13.1896 10.8012 13.9142 10.0564 14.7249C8.64344 16.2465 7.58141 18.0608 6.9455 20.0395C6.30959 22.0181 6.11534 24.1127 6.3765 26.175C6.83691 29.9531 8.77055 33.3949 11.7548 35.7482C13.089 36.8079 14.6031 37.6175 16.2243 38.1378C17.7089 38.5978 19.2541 38.8311 20.808 38.8297C23.4443 38.8014 26.0217 38.0453 28.2572 36.6443H28.287H28.3416L36.9926 38.9293Z" fill="#263238"/>
<path d="M19.4026 17.9361L19.8446 25.2542C19.8623 25.5428 19.9846 25.815 20.1886 26.0195C20.3926 26.224 20.6641 26.3467 20.9521 26.3643C21.255 26.3815 21.5531 26.2817 21.7849 26.0854C22.0167 25.8891 22.1648 25.6113 22.1986 25.3089L23.008 17.9759C23.0221 17.8447 23.0082 17.7121 22.9673 17.5866C22.9263 17.4612 22.8593 17.346 22.7705 17.2485C22.6818 17.1511 22.5734 17.0737 22.4525 17.0214C22.3316 16.9692 22.201 16.9433 22.0694 16.9454H20.2965C20.1721 16.9492 20.0498 16.978 19.9368 17.0303C19.8238 17.0827 19.7225 17.1573 19.639 17.2498C19.5555 17.3424 19.4915 17.4509 19.4509 17.5688C19.4103 17.6867 19.3939 17.8117 19.4026 17.9361Z" fill="#6F51F8"/>
<path d="M22.8789 30.4511C22.7678 30.7854 22.5603 31.0792 22.2827 31.2953C22.005 31.5114 21.6697 31.6402 21.3191 31.6654C20.9685 31.6905 20.6183 31.6109 20.3128 31.4366C20.0073 31.2623 19.7602 31.0012 19.6028 30.6861C19.4453 30.3711 19.3845 30.0163 19.4281 29.6667C19.4717 29.317 19.6177 28.9882 19.8476 28.7217C20.0776 28.4552 20.3812 28.263 20.7201 28.1695C21.059 28.0759 21.4179 28.0851 21.7516 28.196C21.9734 28.2697 22.1786 28.3865 22.3554 28.5398C22.5321 28.6931 22.677 28.8798 22.7817 29.0893C22.8864 29.2987 22.9489 29.5268 22.9656 29.7605C22.9822 29.9942 22.9528 30.2289 22.8789 30.4511Z" fill="#6F51F8"/>
</g>
<defs>
<clipPath id="clip0_940_12845">
<rect width="225" height="212" fill="white"/>
</clipPath>
</defs>
</svg>
