<svg width="126" height="131" viewBox="0 0 126 131" fill="none" xmlns="http://www.w3.org/2000/svg">
<path d="M13.4195 96.1602C8.22949 90.7419 1.55049 83.7697 0.835999 74.4471C0.0417737 64.0868 6.99563 55.8108 11.1369 51.843C12.5042 50.5327 14.0461 49.4196 15.7249 48.5444C18.9381 46.8691 22.7882 44.1706 25.5067 39.8056C28.8378 34.4567 27.8093 30.8761 29.6461 25.7169C34.3961 12.3748 51.5514 7.45537 52.6608 7.15299C65.4394 3.6716 76.2915 8.30083 82.0227 11.6974C84.3082 13.0518 86.279 14.8698 87.8794 16.9915C89.2527 18.8123 91.1501 20.8413 93.7232 22.5676C98.9719 26.0897 102.694 25.4427 107.466 27.2087C115.83 30.3039 121.95 38.7879 124.189 46.7671C127.028 56.8879 123.496 65.742 120.996 70.3246C119.552 72.9712 118.706 75.8995 118.526 78.9098C118.45 80.1809 118.399 81.5732 118.394 83.0663C118.364 90.6464 119.524 92.3859 119.222 95.9947C118.334 106.6 106.487 113.492 105.479 114.061C96.6553 119.042 87.8462 117.768 84.0045 116.849C82.0943 116.392 80.1297 116.199 78.1695 116.321C76.9541 116.396 75.612 116.564 74.1855 116.879C67.9118 118.266 65.5116 121.294 61.4363 123.343C53.7536 127.207 43.101 126.09 35.6068 121.355C30.1851 117.928 27.1452 113.067 25.477 109.326C24.1293 106.304 22.0459 103.676 19.4475 101.629C17.5632 100.146 15.5038 98.3363 13.4195 96.1602Z" fill="#1570EF" fill-opacity="0.1"/>
<path d="M40.653 9.80114C40.0921 7.45601 38.5671 5.91846 35.9033 5.33468C35.6875 5.28741 35.6682 4.98848 35.877 4.91648C38.3282 4.07039 39.8869 2.64772 40.5536 0.648472C40.6252 0.433741 40.9304 0.458469 40.9738 0.6804C41.4122 2.91442 43.0188 4.24224 45.4731 4.91273C45.6973 4.97408 45.6857 5.29023 45.4581 5.3375C43.0851 5.82987 41.6717 7.36836 41.0761 9.79708C41.0217 10.0193 40.7065 10.0237 40.653 9.80114Z" fill="#1570EF" fill-opacity="0.1"/>
<path d="M6.91183 40.3576C6.08931 37.3459 3.9767 35.3542 0.347695 34.5605C-0.00156537 34.4839 -0.0201659 34.0235 0.317728 33.9098C3.64552 32.7898 5.79224 30.9493 6.75735 28.3893C6.88083 28.0615 7.37166 28.0922 7.45019 28.4322C8.10996 31.2854 10.3104 33.0117 13.6413 33.9108C13.9999 34.0078 13.9895 34.4893 13.6258 34.5674C10.4122 35.2537 8.46697 37.243 7.60777 40.3479C7.51374 40.6854 7.0038 40.6962 6.91183 40.3576Z" fill="#020F4C"/>
<path d="M111.335 15.464C110.594 12.4523 108.693 10.4606 105.427 9.66691C105.113 9.59033 105.096 9.12984 105.4 9.01618C108.395 7.89617 110.327 6.05567 111.196 3.49566C111.307 3.16785 111.748 3.19858 111.819 3.53858C112.413 6.39177 114.393 8.11812 117.391 9.01715C117.714 9.11423 117.704 9.59569 117.377 9.67374C114.485 10.3601 112.734 12.3494 111.961 15.4543C111.876 15.7918 111.418 15.8026 111.335 15.464Z" fill="#020F4C"/>
<path d="M117.043 51.7956C116.545 49.863 115.267 48.585 113.07 48.0757C112.859 48.0265 112.848 47.731 113.052 47.6581C115.066 46.9394 116.366 45.7584 116.95 44.1157C117.024 43.9053 117.321 43.925 117.369 44.1432C117.768 45.9741 119.1 47.0818 121.116 47.6587C121.333 47.721 121.327 48.03 121.107 48.0801C119.162 48.5205 117.984 49.797 117.464 51.7893C117.407 52.0059 117.099 52.0125 117.043 51.7956Z" fill="#020F4C"/>
<path d="M117.672 130.34C117.174 128.408 115.895 127.13 113.699 126.62C113.488 126.571 113.476 126.276 113.681 126.203C115.695 125.484 116.994 124.303 117.578 122.66C117.653 122.45 117.95 122.47 117.997 122.688C118.397 124.519 119.728 125.627 121.744 126.204C121.961 126.266 121.955 126.575 121.735 126.625C119.79 127.065 118.613 128.342 118.093 130.334C118.036 130.551 117.728 130.558 117.672 130.34Z" fill="#1570EF" fill-opacity="0.1"/>
<path d="M8.35959 120.205C7.86179 118.273 6.58321 116.995 4.3869 116.485C4.17552 116.436 4.16426 116.141 4.36876 116.068C6.38278 115.349 7.68199 114.168 8.26609 112.525C8.34083 112.315 8.63788 112.335 8.68541 112.553C9.08471 114.384 10.4164 115.491 12.4323 116.068C12.6493 116.131 12.6431 116.44 12.423 116.49C10.478 116.93 9.30078 118.207 8.78078 120.199C8.72387 120.415 8.41525 120.422 8.35959 120.205Z" fill="#1570EF" fill-opacity="0.1"/>
<path d="M77.0005 54.0914C76.8605 54.0681 76.6972 54.0681 76.5572 54.0914C73.3372 53.9747 70.7705 51.3381 70.7705 48.0714C70.7705 44.7347 73.4538 42.0514 76.7905 42.0514C80.1272 42.0514 82.8105 44.7581 82.8105 48.0714C82.7872 51.3381 80.2205 53.9747 77.0005 54.0914Z" stroke="#020F4C" stroke-width="3" stroke-linecap="round" stroke-linejoin="round"/>
<path d="M74.5973 71.0779C77.794 71.6146 81.3174 71.0546 83.7907 69.3979C87.0807 67.2046 87.0807 63.6113 83.7907 61.4179C81.294 59.7613 77.724 59.2013 74.5273 59.7613" stroke="#020F4C" stroke-width="3" stroke-linecap="round" stroke-linejoin="round"/>
<path d="M48.9291 54.0914C49.0691 54.0681 49.2325 54.0681 49.3725 54.0914C52.5925 53.9747 55.1591 51.3381 55.1591 48.0714C55.1591 44.7347 52.4758 42.0514 49.1391 42.0514C45.8025 42.0514 43.1191 44.7581 43.1191 48.0714C43.1425 51.3381 45.7091 53.9747 48.9291 54.0914Z" stroke="#020F4C" stroke-width="3" stroke-linecap="round" stroke-linejoin="round"/>
<path d="M51.3332 71.0779C48.1365 71.6146 44.6132 71.0546 42.1399 69.3979C38.8499 67.2046 38.8499 63.6113 42.1399 61.4179C44.6365 59.7613 48.2065 59.2013 51.4032 59.7613" stroke="#020F4C" stroke-width="3" stroke-linecap="round" stroke-linejoin="round"/>
<path d="M63.0005 71.5215C62.8605 71.4982 62.6972 71.4982 62.5572 71.5215C59.3372 71.4049 56.7705 68.7682 56.7705 65.5015C56.7705 62.1648 59.4538 59.4815 62.7905 59.4815C66.1272 59.4815 68.8105 62.1882 68.8105 65.5015C68.7872 68.7682 66.2205 71.4282 63.0005 71.5215Z" stroke="#020F4C" stroke-width="4" stroke-linecap="round" stroke-linejoin="round"/>
<path d="M56.2097 78.8715C52.9197 81.0649 52.9197 84.6582 56.2097 86.8515C59.943 89.3482 66.0564 89.3482 69.7897 86.8515C73.0797 84.6582 73.0797 81.0649 69.7897 78.8715C66.0797 76.3982 59.943 76.3982 56.2097 78.8715Z" stroke="#020F4C" stroke-width="4" stroke-linecap="round" stroke-linejoin="round"/>
</svg>
