<svg width="126" height="130" viewBox="0 0 126 130" fill="none" xmlns="http://www.w3.org/2000/svg">
<path d="M13.4195 95.6601C8.22949 90.2417 1.55049 83.2695 0.835999 73.9469C0.0417737 63.5866 6.99563 55.3107 11.1369 51.3428C12.5042 50.0325 14.0461 48.9194 15.7249 48.0442C18.9381 46.369 22.7882 43.6704 25.5067 39.3054C28.8378 33.9565 27.8093 30.3759 29.6461 25.2167C34.3961 11.8746 51.5514 6.95519 52.6608 6.65281C65.4394 3.17141 76.2915 7.80065 82.0227 11.1972C84.3082 12.5517 86.279 14.3697 87.8794 16.4913C89.2527 18.3121 91.1501 20.3411 93.7232 22.0674C98.9719 25.5895 102.694 24.9425 107.466 26.7086C115.83 29.8037 121.95 38.2878 124.189 46.2669C127.028 56.3878 123.496 65.2418 120.996 69.8244C119.552 72.471 118.706 75.3993 118.526 78.4096C118.45 79.6807 118.399 81.0731 118.394 82.5662C118.364 90.1462 119.524 91.8857 119.222 95.4945C118.334 106.1 106.487 112.992 105.479 113.561C96.6553 118.541 87.8462 117.268 84.0045 116.349C82.0943 115.892 80.1297 115.699 78.1695 115.821C76.9541 115.896 75.612 116.064 74.1855 116.379C67.9118 117.766 65.5116 120.794 61.4363 122.843C53.7536 126.707 43.101 125.59 35.6068 120.854C30.1851 117.428 27.1452 112.567 25.477 108.826C24.1293 105.804 22.0459 103.175 19.4475 101.129C17.5632 99.6454 15.5038 97.8362 13.4195 95.6601Z" fill="#E6F5F4"/>
<path d="M40.653 9.30114C40.0921 6.95601 38.5671 5.41846 35.9033 4.83468C35.6875 4.78741 35.6682 4.48848 35.877 4.41648C38.3282 3.57039 39.8869 2.14772 40.5536 0.148472C40.6252 -0.066259 40.9304 -0.0415309 40.9738 0.1804C41.4122 2.41442 43.0188 3.74224 45.4731 4.41273C45.6973 4.47408 45.6857 4.79023 45.4581 4.8375C43.0851 5.32987 41.6717 6.86836 41.0761 9.29708C41.0217 9.51932 40.7065 9.5237 40.653 9.30114Z" fill="#E6F5F4"/>
<path d="M6.91183 39.8578C6.08931 36.846 3.9767 34.8543 0.347695 34.0607C-0.00156537 33.9841 -0.0201659 33.5236 0.317728 33.4099C3.64552 32.2899 5.79224 30.4494 6.75735 27.8894C6.88083 27.5616 7.37166 27.5923 7.45019 27.9323C8.10996 30.7855 10.3104 32.5119 13.6413 33.4109C13.9999 33.508 13.9895 33.9894 13.6258 34.0675C10.4122 34.7538 8.46697 36.7431 7.60777 39.848C7.51374 40.1856 7.0038 40.1963 6.91183 39.8578Z" fill="#054699"/>
<path d="M111.335 14.9642C110.594 11.9525 108.693 9.96076 105.427 9.16709C105.113 9.09051 105.096 8.63002 105.4 8.51636C108.395 7.39635 110.327 5.55585 111.196 2.99584C111.307 2.66803 111.748 2.69876 111.819 3.03877C112.413 5.89195 114.393 7.61831 117.391 8.51733C117.714 8.61441 117.704 9.09588 117.377 9.17392C114.485 9.86027 112.734 11.8496 111.961 14.9544C111.876 15.292 111.418 15.3027 111.335 14.9642Z" fill="#009990"/>
<path d="M117.043 51.2956C116.545 49.363 115.267 48.085 113.07 47.5757C112.859 47.5265 112.848 47.231 113.052 47.1581C115.066 46.4394 116.366 45.2584 116.95 43.6157C117.024 43.4053 117.321 43.425 117.369 43.6432C117.768 45.4741 119.1 46.5818 121.116 47.1587C121.333 47.221 121.327 47.53 121.107 47.5801C119.162 48.0205 117.984 49.297 117.464 51.2893C117.407 51.5059 117.099 51.5125 117.043 51.2956Z" fill="#054699"/>
<path d="M117.672 129.841C117.174 127.908 115.895 126.63 113.699 126.121C113.488 126.072 113.476 125.776 113.681 125.703C115.695 124.984 116.994 123.803 117.578 122.161C117.653 121.95 117.95 121.97 117.997 122.188C118.397 124.019 119.728 125.127 121.744 125.704C121.961 125.766 121.955 126.075 121.735 126.125C119.79 126.566 118.613 127.842 118.093 129.834C118.036 130.051 117.728 130.058 117.672 129.841Z" fill="#E6F5F4"/>
<path d="M8.35959 119.705C7.86179 117.773 6.58321 116.495 4.3869 115.985C4.17552 115.936 4.16426 115.641 4.36876 115.568C6.38278 114.849 7.68199 113.668 8.26609 112.025C8.34083 111.815 8.63788 111.835 8.68541 112.053C9.08471 113.884 10.4164 114.992 12.4323 115.568C12.6493 115.631 12.6431 115.94 12.423 115.99C10.478 116.43 9.30078 117.707 8.78078 119.699C8.72387 119.915 8.41525 119.922 8.35959 119.705Z" fill="#E6F5F4"/>
<g clip-path="url(#clip0_9632_12573)">
<g clip-path="url(#clip1_9632_12573)">
<g clip-path="url(#clip2_9632_12573)">
<path d="M63.0002 44.5959L42.7685 55.5319L42.7663 55.531L42.7652 55.5319L36.0464 48.7586L56.2256 37.8213L63.0002 44.5959Z" fill="white"/>
<path d="M89.9538 48.7586L83.235 55.5319L83.2339 55.531L83.2318 55.5319L63 44.5959L69.7746 37.8213L89.9538 48.7586Z" fill="white"/>
<path d="M63 66.4685V92.1795L42.7661 81.2422V55.5322L63 66.4685Z" fill="white"/>
<path d="M83.2339 55.5322V81.2422L63 92.1795V66.4685L83.2339 55.5322Z" fill="white"/>
<path d="M79.9526 57.3057V83.0161L83.2341 81.2422V55.5322L79.9526 57.3057Z" fill="white"/>
<path d="M83.235 55.5322L89.9538 62.3057L83.2339 65.9479L69.7746 73.2431L63 66.4685L83.2318 55.5322L83.2339 55.5334L83.235 55.5322Z" fill="white"/>
<path d="M83.235 55.5322L89.9538 62.3057L83.2339 65.9479L69.7746 73.2431L63 66.4685L83.2318 55.5322L83.2339 55.5334L83.235 55.5322Z" fill="white"/>
<path d="M80.3979 57.064L87.1198 63.8418L89.9538 62.3057L83.235 55.5322L83.2339 55.5334L83.2317 55.5322L80.3979 57.064Z" fill="white"/>
<path d="M63.0002 66.4685L56.2256 73.2431L42.7663 65.9479L36.0464 62.3057L42.7652 55.5322L42.7663 55.5334L42.7685 55.5322L63.0002 66.4685Z" fill="white"/>
<path d="M83.2316 55.5323L62.9998 66.4686L42.7681 55.5323L62.9998 44.5962L83.2316 55.5323Z" fill="white"/>
<path d="M84.3901 55.5324L90.5362 49.3365C90.6259 49.246 90.6934 49.1359 90.7331 49.0148C90.7729 48.8938 90.7839 48.7651 90.7653 48.6391C90.7468 48.5131 90.6991 48.3931 90.6261 48.2886C90.5531 48.1842 90.4567 48.0983 90.3447 48.0375L70.1655 37.1002C70.01 37.016 69.8315 36.9842 69.6566 37.0096C69.4816 37.0351 69.3196 37.1163 69.1945 37.2413L62.9997 43.4362L56.8052 37.2418C56.6809 37.1158 56.5189 37.0339 56.3438 37.0085C56.1687 36.983 55.9901 37.0154 55.835 37.1007L49.3536 40.6125C49.2589 40.6637 49.1752 40.7332 49.1074 40.8169C49.0397 40.9007 48.9891 40.997 48.9587 41.1003C48.8964 41.3103 48.9194 41.5323 49.0233 41.7248C49.0939 41.8547 49.1982 41.9632 49.3252 42.0389C49.4522 42.1145 49.5973 42.1546 49.7452 42.1548C49.8808 42.1548 50.0164 42.1198 50.1356 42.0553L56.0779 38.8343L61.6417 44.3981L42.916 54.5194L37.3992 48.9577L47.2504 43.6182C47.3455 43.5675 47.4295 43.4984 47.4975 43.4148C47.5655 43.3312 47.6161 43.2349 47.6464 43.1315C47.7087 42.9215 47.6857 42.6995 47.5807 42.507C47.5104 42.3771 47.4064 42.2685 47.2795 42.1929C47.1526 42.1172 47.0077 42.0772 46.86 42.0771C46.7243 42.0771 46.5898 42.112 46.4695 42.1766L35.6558 48.038C35.5437 48.0986 35.4472 48.1845 35.3741 48.2889C35.301 48.3934 35.2533 48.5134 35.2347 48.6395C35.2165 48.7655 35.2278 48.894 35.2677 49.0149C35.3075 49.1358 35.3749 49.2458 35.4644 49.3362L41.6098 55.5327L35.464 61.7285C35.3742 61.819 35.3068 61.9291 35.2671 62.0502C35.2273 62.1712 35.2163 62.2999 35.2348 62.4259C35.2534 62.552 35.3011 62.6719 35.3741 62.7764C35.4471 62.8808 35.5435 62.9668 35.6555 63.0275L41.946 66.4369V81.2402C41.9458 81.2685 41.9473 81.2967 41.9501 81.3246C41.9513 81.3365 41.9536 81.3481 41.9552 81.3599C41.9573 81.3743 41.959 81.3886 41.9618 81.4027C41.9653 81.4205 41.9701 81.4378 41.9747 81.4552C41.9769 81.4632 41.9785 81.4713 41.981 81.4793C41.9863 81.4969 41.9928 81.514 41.9992 81.5313C42.0021 81.539 42.0045 81.5467 42.0076 81.5543C42.014 81.5698 42.0213 81.5846 42.0285 81.5995C42.033 81.6088 42.0371 81.6181 42.0419 81.6271C42.0484 81.6394 42.0558 81.6511 42.0628 81.6629C42.0695 81.6742 42.076 81.6855 42.0832 81.6966C42.0892 81.7057 42.096 81.7143 42.1025 81.7232C42.1118 81.736 42.121 81.749 42.131 81.7615C42.1366 81.7683 42.1428 81.7747 42.1486 81.7814C42.1602 81.7947 42.1718 81.808 42.1843 81.8206C42.1907 81.8271 42.1978 81.833 42.2045 81.8394C42.217 81.8511 42.2292 81.8629 42.2425 81.8739C42.2553 81.8845 42.2688 81.8941 42.2822 81.9039C42.29 81.9097 42.2974 81.9158 42.3055 81.9214C42.3291 81.9373 42.3535 81.952 42.3785 81.9655L62.6058 92.8993C62.6349 92.9153 62.6653 92.9291 62.6965 92.9415C62.7033 92.9442 62.7101 92.9466 62.717 92.949C62.7398 92.9574 62.7629 92.9648 62.7866 92.9711C62.7951 92.9734 62.8035 92.9757 62.8121 92.9776C62.835 92.983 62.8583 92.9873 62.882 92.9907C62.8901 92.9917 62.8979 92.9933 62.906 92.9943C62.9369 92.9978 62.9682 93.0001 63 93.0001C63.0318 93.0001 63.0631 92.9978 63.0939 92.9943C63.102 92.9933 63.11 92.9917 63.1181 92.9907C63.1502 92.986 63.182 92.9795 63.2134 92.9711C63.237 92.9647 63.2602 92.9574 63.2828 92.949C63.2897 92.9466 63.2966 92.9442 63.3034 92.9415C63.3345 92.9291 63.3649 92.9153 63.394 92.8993L83.6212 81.9655C83.6463 81.952 83.6707 81.9373 83.6943 81.9214C83.7024 81.9158 83.7098 81.9095 83.7176 81.9039C83.731 81.894 83.7446 81.8844 83.7573 81.8739C83.7705 81.8629 83.7828 81.8511 83.7952 81.8394C83.8019 81.833 83.809 81.8272 83.8155 81.8206C83.8279 81.808 83.8395 81.7947 83.8511 81.7814C83.8569 81.7747 83.8632 81.7683 83.8687 81.7615C83.8788 81.7491 83.888 81.7361 83.8973 81.7232C83.9037 81.7143 83.9105 81.7057 83.9165 81.6966C83.9237 81.6855 83.9302 81.6743 83.937 81.6629C83.9441 81.6511 83.9514 81.6394 83.9579 81.6271C83.9627 81.6181 83.9667 81.6088 83.9712 81.5995C83.9784 81.5846 83.9858 81.5698 83.9921 81.5543C83.9953 81.5467 83.9977 81.539 84.0005 81.5313C84.007 81.5142 84.0134 81.497 84.0188 81.4793C84.0212 81.4714 84.0228 81.4633 84.025 81.4552C84.0296 81.4378 84.0344 81.4205 84.0379 81.4027C84.0408 81.3886 84.0424 81.3743 84.0445 81.3599C84.0461 81.3481 84.0485 81.3365 84.0496 81.3246C84.0525 81.2966 84.0539 81.2684 84.0538 81.2402V66.4369L90.344 63.0276C90.4559 62.9667 90.5522 62.8807 90.6253 62.7763C90.6983 62.672 90.7462 62.552 90.765 62.426C90.7833 62.3 90.7721 62.1714 90.7325 62.0504C90.6928 61.9293 90.6257 61.8191 90.5365 61.7282L84.3901 55.5324ZM69.9218 38.8344L88.6005 48.9582L83.0839 54.5197L64.3584 44.3977L69.9218 38.8344ZM63.0005 45.5286L81.5075 55.5324L63.0001 65.5365L44.4931 55.5327L63.0005 45.5286ZM42.9163 56.5453L61.6419 66.6673L56.0784 72.2306L43.1606 65.2292L43.1537 65.2255L37.3997 62.1068L42.9163 56.5453ZM55.8347 73.9647C55.9902 74.0489 56.1686 74.0807 56.3436 74.0553C56.5186 74.0298 56.6806 73.9486 56.8056 73.8236L62.1798 68.4494V90.8039L43.5865 80.7533V67.3261L55.8347 73.9647ZM82.8498 65.2238C82.8454 65.2261 82.8409 65.2285 82.8366 65.2309L78.7498 67.4461C78.6547 67.497 78.5706 67.5664 78.5027 67.6501C78.4347 67.7339 78.3841 67.8304 78.3538 67.9339C78.3229 68.0372 78.3127 68.1455 78.3237 68.2527C78.3348 68.3599 78.367 68.4638 78.4184 68.5586C78.5223 68.7496 78.6978 68.8916 78.9063 68.9535C79.1148 69.0154 79.3393 68.9922 79.5307 68.8889L82.4136 67.3262V80.7536L63.8204 90.804V68.4491L69.195 73.8237C69.2709 73.9001 69.3612 73.9608 69.4607 74.0021C69.5602 74.0434 69.6669 74.0645 69.7747 74.0643C69.9103 74.0643 70.0448 74.0293 70.1651 73.9648L76.6466 70.4517C76.7414 70.4006 76.8252 70.3312 76.893 70.2475C76.9607 70.1637 77.0112 70.0673 77.0414 69.9639C77.1038 69.7539 77.0808 69.533 76.9769 69.3405C76.9063 69.2103 76.8019 69.1017 76.6746 69.026C76.5474 68.9503 76.402 68.9105 76.2539 68.9107C76.1194 68.9107 75.9838 68.9446 75.8646 69.0102L69.9223 72.23L64.3585 66.6674L83.0843 56.5448L88.6011 62.1065L82.8498 65.2238Z" fill="#009990"/>
</g>
</g>
</g>
<defs>
<clipPath id="clip0_9632_12573">
<rect width="56" height="56" fill="white" transform="translate(35 37)"/>
</clipPath>
<clipPath id="clip1_9632_12573">
<rect width="56" height="56" fill="white" transform="translate(35 37)"/>
</clipPath>
<clipPath id="clip2_9632_12573">
<rect width="56" height="56" fill="white" transform="translate(35 37)"/>
</clipPath>
</defs>
</svg>
