<svg width="126" height="130" viewBox="0 0 126 130" fill="none" xmlns="http://www.w3.org/2000/svg">
<path d="M13.4195 95.6602C8.22949 90.2419 1.55049 83.2697 0.835999 73.9471C0.0417737 63.5868 6.99563 55.3108 11.1369 51.343C12.5042 50.0327 14.0461 48.9196 15.7249 48.0444C18.9381 46.3691 22.7882 43.6706 25.5067 39.3056C28.8378 33.9567 27.8093 30.3761 29.6461 25.2169C34.3961 11.8748 51.5514 6.95537 52.6608 6.65299C65.4394 3.1716 76.2915 7.80083 82.0227 11.1974C84.3082 12.5518 86.279 14.3698 87.8794 16.4915C89.2527 18.3123 91.1501 20.3413 93.7232 22.0676C98.9719 25.5897 102.694 24.9427 107.466 26.7087C115.83 29.8039 121.95 38.2879 124.189 46.2671C127.028 56.3879 123.496 65.242 120.996 69.8246C119.552 72.4712 118.706 75.3995 118.526 78.4098C118.45 79.6809 118.399 81.0732 118.394 82.5663C118.364 90.1464 119.524 91.8859 119.222 95.4947C118.334 106.1 106.487 112.992 105.479 113.561C96.6553 118.542 87.8462 117.268 84.0045 116.349C82.0943 115.892 80.1297 115.699 78.1695 115.821C76.9541 115.896 75.612 116.064 74.1855 116.379C67.9118 117.766 65.5116 120.794 61.4363 122.843C53.7536 126.707 43.101 125.59 35.6068 120.855C30.1851 117.428 27.1452 112.567 25.477 108.826C24.1293 105.804 22.0459 103.176 19.4475 101.129C17.5632 99.6456 15.5038 97.8363 13.4195 95.6602Z" fill="#1570EF" fill-opacity="0.1"/>
<path d="M40.653 9.30114C40.0921 6.95601 38.5671 5.41846 35.9033 4.83468C35.6875 4.78741 35.6682 4.48848 35.877 4.41648C38.3282 3.57039 39.8869 2.14772 40.5536 0.148472C40.6252 -0.066259 40.9304 -0.0415309 40.9738 0.1804C41.4122 2.41442 43.0188 3.74224 45.4731 4.41273C45.6973 4.47408 45.6857 4.79023 45.4581 4.8375C43.0851 5.32987 41.6717 6.86836 41.0761 9.29708C41.0217 9.51932 40.7065 9.5237 40.653 9.30114Z" fill="#E6F5F4"/>
<path d="M6.91183 39.8576C6.08931 36.8459 3.9767 34.8542 0.347695 34.0605C-0.00156537 33.9839 -0.0201659 33.5235 0.317728 33.4098C3.64552 32.2898 5.79224 30.4493 6.75735 27.8893C6.88083 27.5615 7.37166 27.5922 7.45019 27.9322C8.10996 30.7854 10.3104 32.5117 13.6413 33.4108C13.9999 33.5078 13.9895 33.9893 13.6258 34.0674C10.4122 34.7537 8.46697 36.743 7.60777 39.8479C7.51374 40.1854 7.0038 40.1962 6.91183 39.8576Z" fill="#020F4C"/>
<path d="M111.335 14.964C110.594 11.9523 108.693 9.96058 105.427 9.16691C105.113 9.09033 105.096 8.62984 105.4 8.51618C108.395 7.39617 110.327 5.55567 111.196 2.99566C111.307 2.66785 111.748 2.69858 111.819 3.03858C112.413 5.89177 114.393 7.61812 117.391 8.51715C117.714 8.61423 117.704 9.09569 117.377 9.17374C114.485 9.86009 112.734 11.8494 111.961 14.9543C111.876 15.2918 111.418 15.3026 111.335 14.964Z" fill="#020F4C"/>
<path d="M117.043 51.2956C116.545 49.363 115.267 48.085 113.07 47.5757C112.859 47.5265 112.848 47.231 113.052 47.1581C115.066 46.4394 116.366 45.2584 116.95 43.6157C117.024 43.4053 117.321 43.425 117.369 43.6432C117.768 45.4741 119.1 46.5818 121.116 47.1587C121.333 47.221 121.327 47.53 121.107 47.5801C119.162 48.0205 117.984 49.297 117.464 51.2893C117.407 51.5059 117.099 51.5125 117.043 51.2956Z" fill="#020F4C"/>
<path d="M117.672 129.84C117.174 127.908 115.895 126.63 113.699 126.12C113.488 126.071 113.476 125.776 113.681 125.703C115.695 124.984 116.994 123.803 117.578 122.16C117.653 121.95 117.95 121.97 117.997 122.188C118.397 124.019 119.728 125.127 121.744 125.704C121.961 125.766 121.955 126.075 121.735 126.125C119.79 126.565 118.613 127.842 118.093 129.834C118.036 130.051 117.728 130.058 117.672 129.84Z" fill="#E6F5F4"/>
<path d="M8.35959 119.705C7.86179 117.773 6.58321 116.495 4.3869 115.985C4.17552 115.936 4.16426 115.641 4.36876 115.568C6.38278 114.849 7.68199 113.668 8.26609 112.025C8.34083 111.815 8.63788 111.835 8.68541 112.053C9.08471 113.884 10.4164 114.991 12.4323 115.568C12.6493 115.631 12.6431 115.94 12.423 115.99C10.478 116.43 9.30078 117.707 8.78078 119.699C8.72387 119.915 8.41525 119.922 8.35959 119.705Z" fill="#E6F5F4"/>
<path d="M84 45.876H42C39.5841 45.876 37.625 48.3251 37.625 51.3447V54.626H88.375V51.3447C88.375 48.3251 86.4159 45.876 84 45.876Z" fill="#020F4C"/>
<path d="M37.625 78.251C37.625 79.4113 38.0859 80.5241 38.9064 81.3446C39.7269 82.165 40.8397 82.626 42 82.626H84C85.1603 82.626 86.2731 82.165 87.0936 81.3446C87.9141 80.5241 88.375 79.4113 88.375 78.251V52.876H37.625V78.251Z" fill="#1570EF" fill-opacity="0.1"/>
<path d="M84 45.001H42C39.1037 45.001 36.75 47.3547 36.75 50.251V78.251C36.75 81.1472 39.1037 83.501 42 83.501H54.7575C54.8013 83.2236 55.3438 82.0327 55.4488 81.751H42C40.0662 81.751 38.5 80.1847 38.5 78.251V50.251C38.5 48.3172 40.0662 46.751 42 46.751H84C85.9338 46.751 87.5 48.3172 87.5 50.251V78.251C87.5 80.1847 85.9338 81.751 84 81.751H70.5513C70.6589 82.0406 71.197 83.2166 71.2425 83.501H84C86.8963 83.501 89.25 81.1472 89.25 78.251V50.251C89.25 47.3547 86.8963 45.001 84 45.001Z" fill="#020F4C"/>
<path d="M47.6875 50.251C47.7146 48.5255 50.2845 48.5255 50.3125 50.251C50.2845 51.9773 47.7146 51.9765 47.6875 50.251ZM44.1875 50.251C44.2146 48.5255 46.7845 48.5255 46.8125 50.251C46.7845 51.9773 44.2146 51.9765 44.1875 50.251ZM40.6875 50.251C40.7146 48.5255 43.2845 48.5255 43.3125 50.251C43.2845 51.9773 40.7146 51.9765 40.6875 50.251Z" fill="#E6F5F4"/>
<path d="M68.6945 84.9981C68.5213 84.9983 68.3519 84.9472 68.2078 84.851C68.0637 84.7549 67.9514 84.6182 67.8851 84.4582L67.214 82.8377C67.17 82.7316 67.1473 82.6178 67.1473 82.5028C67.1472 82.3879 67.1698 82.2741 67.2138 82.1679C67.2578 82.0617 67.3222 81.9652 67.4035 81.8839C67.4847 81.8026 67.5812 81.7381 67.6873 81.6941C67.9018 81.6052 68.1427 81.6052 68.3572 81.694C68.4634 81.7379 68.5599 81.8024 68.6412 81.8836C68.7225 81.9649 68.787 82.0613 68.831 82.1675L69.5021 83.7889C69.7488 84.3489 69.3008 85.0104 68.6945 84.9981ZM57.3055 84.9981C56.6982 85.0095 56.2511 84.3489 56.4978 83.7889L57.169 82.1675C57.6248 81.1122 59.2077 81.7667 58.786 82.8377L58.1148 84.4582C58.0485 84.6182 57.9362 84.7549 57.7921 84.851C57.648 84.9472 57.4787 84.9983 57.3055 84.9981ZM49.2537 76.9455C48.3236 76.963 48.0392 75.6129 48.9186 75.262L50.5391 74.5909C50.7535 74.5021 50.9944 74.5022 51.2088 74.591C51.4232 74.6799 51.5935 74.8503 51.6823 75.0647C51.771 75.2791 51.771 75.52 51.6821 75.7344C51.5933 75.9488 51.4229 76.1191 51.2085 76.2079C50.967 76.2831 49.4891 76.9884 49.2537 76.9455ZM50.8733 66.2285C50.6458 66.274 49.1522 65.5626 48.9177 65.49C47.8633 65.0324 48.517 63.4512 49.588 63.8739L51.2085 64.545C52.0878 64.895 51.8035 66.2469 50.8733 66.2285ZM57.9775 59.1252C57.8044 59.1253 57.6353 59.074 57.4913 58.9779C57.3474 58.8818 57.2352 58.7452 57.169 58.5854L56.4978 56.964C56.4539 56.8578 56.4313 56.744 56.4313 56.6291C56.4313 56.5142 56.454 56.4004 56.498 56.2943C56.542 56.1881 56.6065 56.0917 56.6877 56.0104C56.769 55.9292 56.8655 55.8648 56.9717 55.8208C57.0778 55.7769 57.1916 55.7542 57.3065 55.7543C57.4214 55.7543 57.5352 55.777 57.6414 55.821C57.7475 55.865 57.844 55.9294 57.9252 56.0107C58.0065 56.092 58.0709 56.1884 58.1148 56.2946L58.786 57.9151C59.0318 58.4751 58.5847 59.1366 57.9775 59.1252ZM68.0225 59.1252C67.4152 59.1366 66.9672 58.476 67.214 57.9151L67.886 56.2946C68.3418 55.2394 69.9247 55.893 69.5021 56.964L68.831 58.5854C68.7647 58.7452 68.6525 58.8818 68.5086 58.9779C68.3647 59.074 68.1955 59.1253 68.0225 59.1252ZM75.1266 66.2285C74.1965 66.246 73.9112 64.8959 74.7915 64.545L76.412 63.8739C77.4795 63.453 78.1375 65.0306 77.0813 65.49C76.8398 65.5661 75.362 66.2714 75.1266 66.2285ZM76.7462 76.9455C76.5196 76.991 75.0251 76.2805 74.7915 76.2079C73.7362 75.7494 74.3907 74.1691 75.4608 74.5909L77.0822 75.262C77.9607 75.612 77.6772 76.9639 76.7462 76.9455Z" fill="#020F4C"/>
<path d="M53.375 70.376C53.375 65.0604 57.6844 60.751 63 60.751C75.7671 61.2585 75.7636 79.4961 63 80.001C57.6844 80.001 53.375 75.6925 53.375 70.376Z" fill="#020F4C"/>
<path d="M63 80.876C57.2101 80.876 52.5 76.1667 52.5 70.376C53.0766 56.446 72.9251 56.4503 73.5 70.376C73.5 76.1667 68.7899 80.876 63 80.876ZM63 61.626C58.1753 61.626 54.25 65.5521 54.25 70.376C54.7313 81.9846 71.2714 81.9811 71.75 70.376C71.75 65.5521 67.8247 61.626 63 61.626Z" fill="#020F4C"/>
<path d="M65.4744 70.376L67.3311 68.521C67.6595 68.1927 67.844 67.7474 67.8441 67.2831C67.8442 66.8188 67.6598 66.3735 67.3315 66.0451C67.0033 65.7168 66.558 65.5322 66.0937 65.5322C65.6294 65.5321 65.1841 65.7164 64.8557 66.0447L62.9999 67.9023L61.144 66.0465C60.9815 65.8839 60.7886 65.755 60.5763 65.667C60.364 65.579 60.1364 65.5337 59.9066 65.5337C59.6768 65.5336 59.4492 65.5788 59.2369 65.6668C59.0245 65.7547 58.8316 65.8835 58.669 66.046C58.5065 66.2085 58.3776 66.4014 58.2896 66.6137C58.2016 66.826 58.1563 67.0536 58.1563 67.2834C58.1562 67.5132 58.2014 67.7408 58.2893 67.9531C58.3773 68.1655 58.5061 68.3584 58.6686 68.521L60.5254 70.3768L58.6686 72.2336C58.3405 72.5618 58.1562 73.007 58.1563 73.4711C58.1563 73.9353 58.3408 74.3804 58.669 74.7085C58.9973 75.0367 59.4425 75.221 59.9066 75.2209C60.3707 75.2208 60.8158 75.0363 61.144 74.7081L62.9999 72.8513L64.8557 74.7072C65.1839 75.0355 65.629 75.2199 66.0931 75.22C66.5573 75.2201 67.0024 75.0358 67.3307 74.7076C67.6589 74.3795 67.8434 73.9344 67.8435 73.4703C67.8435 73.0061 67.6592 72.561 67.3311 72.2327L65.4744 70.376Z" fill="#E6F5F4"/>
</svg>
