<svg width="126" height="130" viewBox="0 0 126 130" fill="none" xmlns="http://www.w3.org/2000/svg">
<path d="M13.4195 95.6601C8.22949 90.2417 1.55049 83.2695 0.835999 73.9469C0.0417737 63.5866 6.99563 55.3107 11.1369 51.3428C12.5042 50.0325 14.0461 48.9194 15.7249 48.0442C18.9381 46.369 22.7882 43.6704 25.5067 39.3054C28.8378 33.9565 27.8093 30.3759 29.6461 25.2167C34.3961 11.8746 51.5514 6.95519 52.6608 6.65281C65.4394 3.17141 76.2915 7.80065 82.0227 11.1972C84.3082 12.5517 86.279 14.3697 87.8794 16.4913C89.2527 18.3121 91.1501 20.3411 93.7232 22.0674C98.9719 25.5895 102.694 24.9425 107.466 26.7086C115.83 29.8037 121.95 38.2878 124.189 46.2669C127.028 56.3878 123.496 65.2418 120.996 69.8244C119.552 72.471 118.706 75.3993 118.526 78.4096C118.45 79.6807 118.399 81.0731 118.394 82.5662C118.364 90.1462 119.524 91.8857 119.222 95.4945C118.334 106.1 106.487 112.992 105.479 113.561C96.6553 118.541 87.8462 117.268 84.0045 116.349C82.0943 115.892 80.1297 115.699 78.1695 115.821C76.9541 115.896 75.612 116.064 74.1855 116.379C67.9118 117.766 65.5116 120.794 61.4363 122.843C53.7536 126.707 43.101 125.59 35.6068 120.854C30.1851 117.428 27.1452 112.567 25.477 108.826C24.1293 105.804 22.0459 103.175 19.4475 101.129C17.5632 99.6454 15.5038 97.8362 13.4195 95.6601Z" fill="#E6F5F4"/>
<path d="M40.653 9.30114C40.0921 6.95601 38.5671 5.41846 35.9033 4.83468C35.6875 4.78741 35.6682 4.48848 35.877 4.41648C38.3282 3.57039 39.8869 2.14772 40.5536 0.148472C40.6252 -0.066259 40.9304 -0.0415309 40.9738 0.1804C41.4122 2.41442 43.0188 3.74224 45.4731 4.41273C45.6973 4.47408 45.6857 4.79023 45.4581 4.8375C43.0851 5.32987 41.6717 6.86836 41.0761 9.29708C41.0217 9.51932 40.7065 9.5237 40.653 9.30114Z" fill="#E6F5F4"/>
<path d="M6.91183 39.8578C6.08931 36.846 3.9767 34.8543 0.347695 34.0607C-0.00156537 33.9841 -0.0201659 33.5236 0.317728 33.4099C3.64552 32.2899 5.79224 30.4494 6.75735 27.8894C6.88083 27.5616 7.37166 27.5923 7.45019 27.9323C8.10996 30.7855 10.3104 32.5119 13.6413 33.4109C13.9999 33.508 13.9895 33.9894 13.6258 34.0675C10.4122 34.7538 8.46697 36.7431 7.60777 39.848C7.51374 40.1856 7.0038 40.1963 6.91183 39.8578Z" fill="#054699"/>
<path d="M111.335 14.9642C110.594 11.9525 108.693 9.96076 105.427 9.16709C105.113 9.09051 105.096 8.63002 105.4 8.51636C108.395 7.39635 110.327 5.55585 111.196 2.99584C111.307 2.66803 111.748 2.69876 111.819 3.03877C112.413 5.89195 114.393 7.61831 117.391 8.51733C117.714 8.61441 117.704 9.09588 117.377 9.17392C114.485 9.86027 112.734 11.8496 111.961 14.9544C111.876 15.292 111.418 15.3027 111.335 14.9642Z" fill="#009990"/>
<path d="M117.043 51.2956C116.545 49.363 115.267 48.085 113.07 47.5757C112.859 47.5265 112.848 47.231 113.052 47.1581C115.066 46.4394 116.366 45.2584 116.95 43.6157C117.024 43.4053 117.321 43.425 117.369 43.6432C117.768 45.4741 119.1 46.5818 121.116 47.1587C121.333 47.221 121.327 47.53 121.107 47.5801C119.162 48.0205 117.984 49.297 117.464 51.2893C117.407 51.5059 117.099 51.5125 117.043 51.2956Z" fill="#054699"/>
<path d="M117.672 129.841C117.174 127.908 115.895 126.63 113.699 126.121C113.488 126.072 113.476 125.776 113.681 125.703C115.695 124.984 116.994 123.803 117.578 122.161C117.653 121.95 117.95 121.97 117.997 122.188C118.397 124.019 119.728 125.127 121.744 125.704C121.961 125.766 121.955 126.075 121.735 126.125C119.79 126.566 118.613 127.842 118.093 129.834C118.036 130.051 117.728 130.058 117.672 129.841Z" fill="#E6F5F4"/>
<path d="M8.35959 119.705C7.86179 117.773 6.58321 116.495 4.3869 115.985C4.17552 115.936 4.16426 115.641 4.36876 115.568C6.38278 114.849 7.68199 113.668 8.26609 112.025C8.34083 111.815 8.63788 111.835 8.68541 112.053C9.08471 113.884 10.4164 114.992 12.4323 115.568C12.6493 115.631 12.6431 115.94 12.423 115.99C10.478 116.43 9.30078 117.707 8.78078 119.699C8.72387 119.915 8.41525 119.922 8.35959 119.705Z" fill="#E6F5F4"/>
<path d="M84 45.876H42C39.5841 45.876 37.625 48.3251 37.625 51.3447V54.626H88.375V51.3447C88.375 48.3251 86.4159 45.876 84 45.876Z" fill="#009990"/>
<path d="M37.625 78.251C37.625 79.4113 38.0859 80.5241 38.9064 81.3446C39.7269 82.165 40.8397 82.626 42 82.626H84C85.1603 82.626 86.2731 82.165 87.0936 81.3446C87.9141 80.5241 88.375 79.4113 88.375 78.251V52.876H37.625V78.251Z" fill="#E6F5F4"/>
<path d="M84 45.001H42C39.1037 45.001 36.75 47.3547 36.75 50.251V78.251C36.75 81.1472 39.1037 83.501 42 83.501H54.7575C54.8013 83.2236 55.3438 82.0327 55.4488 81.751H42C40.0662 81.751 38.5 80.1847 38.5 78.251V50.251C38.5 48.3172 40.0662 46.751 42 46.751H84C85.9338 46.751 87.5 48.3172 87.5 50.251V78.251C87.5 80.1847 85.9338 81.751 84 81.751H70.5513C70.6589 82.0406 71.197 83.2166 71.2425 83.501H84C86.8963 83.501 89.25 81.1472 89.25 78.251V50.251C89.25 47.3547 86.8963 45.001 84 45.001Z" fill="#009990"/>
<path d="M47.6875 50.2512C47.7146 48.5257 50.2845 48.5257 50.3125 50.2512C50.2845 51.9775 47.7146 51.9767 47.6875 50.2512ZM44.1875 50.2512C44.2146 48.5257 46.7845 48.5257 46.8125 50.2512C46.7845 51.9775 44.2146 51.9767 44.1875 50.2512ZM40.6875 50.2512C40.7146 48.5257 43.2845 48.5257 43.3125 50.2512C43.2845 51.9775 40.7146 51.9767 40.6875 50.2512Z" fill="#E6F5F4"/>
<path d="M68.6945 84.9982C68.5213 84.9985 68.3519 84.9473 68.2078 84.8512C68.0637 84.7551 67.9514 84.6184 67.8851 84.4584L67.214 82.8379C67.17 82.7317 67.1473 82.6179 67.1473 82.503C67.1472 82.388 67.1698 82.2742 67.2138 82.168C67.2578 82.0618 67.3222 81.9653 67.4035 81.884C67.4847 81.8027 67.5812 81.7383 67.6873 81.6942C67.9018 81.6054 68.1427 81.6053 68.3572 81.6941C68.4634 81.738 68.5599 81.8025 68.6412 81.8837C68.7225 81.965 68.787 82.0614 68.831 82.1676L69.5021 83.789C69.7488 84.349 69.3008 85.0105 68.6945 84.9982ZM57.3055 84.9982C56.6982 85.0096 56.2511 84.349 56.4978 83.789L57.169 82.1676C57.6248 81.1124 59.2077 81.7669 58.786 82.8379L58.1148 84.4584C58.0485 84.6184 57.9362 84.7551 57.7921 84.8512C57.648 84.9473 57.4787 84.9985 57.3055 84.9982ZM49.2537 76.9456C48.3236 76.9631 48.0392 75.613 48.9186 75.2621L50.5391 74.591C50.7535 74.5022 50.9944 74.5023 51.2088 74.5911C51.4232 74.68 51.5935 74.8504 51.6823 75.0648C51.771 75.2792 51.771 75.5201 51.6821 75.7345C51.5933 75.9489 51.4229 76.1192 51.2085 76.208C50.967 76.2832 49.4891 76.9885 49.2537 76.9456ZM50.8733 66.2286C50.6458 66.2741 49.1522 65.5627 48.9177 65.4901C47.8633 65.0325 48.517 63.4514 49.588 63.874L51.2085 64.5451C52.0878 64.8951 51.8035 66.247 50.8733 66.2286ZM57.9775 59.1254C57.8044 59.1254 57.6353 59.0741 57.4913 58.978C57.3474 58.882 57.2352 58.7453 57.169 58.5855L56.4978 56.9641C56.4539 56.8579 56.4313 56.7442 56.4313 56.6292C56.4313 56.5143 56.454 56.4006 56.498 56.2944C56.542 56.1882 56.6065 56.0918 56.6877 56.0106C56.769 55.9293 56.8655 55.8649 56.9717 55.8209C57.0778 55.777 57.1916 55.7544 57.3065 55.7544C57.4214 55.7544 57.5352 55.7771 57.6414 55.8211C57.7475 55.8651 57.844 55.9295 57.9252 56.0108C58.0065 56.0921 58.0709 56.1886 58.1148 56.2947L58.786 57.9152C59.0318 58.4752 58.5847 59.1367 57.9775 59.1254ZM68.0225 59.1254C67.4152 59.1367 66.9672 58.4761 67.214 57.9152L67.886 56.2947C68.3418 55.2395 69.9247 55.8931 69.5021 56.9641L68.831 58.5855C68.7647 58.7453 68.6525 58.882 68.5086 58.978C68.3647 59.0741 68.1955 59.1254 68.0225 59.1254ZM75.1266 66.2286C74.1965 66.2461 73.9112 64.896 74.7915 64.5451L76.412 63.874C77.4795 63.4531 78.1375 65.0307 77.0813 65.4901C76.8398 65.5662 75.362 66.2715 75.1266 66.2286ZM76.7462 76.9456C76.5196 76.9911 75.0251 76.2806 74.7915 76.208C73.7362 75.7495 74.3907 74.1692 75.4608 74.591L77.0822 75.2621C77.9607 75.6121 77.6772 76.964 76.7462 76.9456Z" fill="#009990"/>
<path d="M53.375 70.376C53.375 65.0604 57.6844 60.751 63 60.751C75.7671 61.2585 75.7636 79.4961 63 80.001C57.6844 80.001 53.375 75.6925 53.375 70.376Z" fill="#009990"/>
<path d="M63 80.876C57.2101 80.876 52.5 76.1668 52.5 70.376C53.0766 56.446 72.9251 56.4504 73.5 70.376C73.5 76.1668 68.7899 80.876 63 80.876ZM63 61.626C58.1753 61.626 54.25 65.5522 54.25 70.376C54.7313 81.9847 71.2714 81.9812 71.75 70.376C71.75 65.5522 67.8247 61.626 63 61.626Z" fill="#009990"/>
<path d="M65.4744 70.376L67.3311 68.521C67.6595 68.1928 67.844 67.7475 67.8441 67.2832C67.8442 66.8189 67.6598 66.3736 67.3315 66.0452C67.0033 65.7168 66.558 65.5323 66.0937 65.5322C65.6294 65.5321 65.1841 65.7165 64.8557 66.0448L62.9999 67.9024L61.144 66.0465C60.9815 65.884 60.7886 65.755 60.5763 65.6671C60.364 65.5791 60.1364 65.5338 59.9066 65.5337C59.6768 65.5337 59.4492 65.5789 59.2369 65.6668C59.0245 65.7547 58.8316 65.8836 58.669 66.0461C58.5065 66.2086 58.3776 66.4015 58.2896 66.6138C58.2016 66.8261 58.1563 67.0536 58.1563 67.2835C58.1562 67.5133 58.2014 67.7409 58.2893 67.9532C58.3773 68.1655 58.5061 68.3585 58.6686 68.521L60.5254 70.3769L58.6686 72.2336C58.3405 72.5619 58.1562 73.0071 58.1563 73.4712C58.1563 73.9353 58.3408 74.3804 58.669 74.7086C58.9973 75.0367 59.4425 75.221 59.9066 75.2209C60.3707 75.2209 60.8158 75.0364 61.144 74.7081L62.9999 72.8514L64.8557 74.7073C65.1839 75.0355 65.629 75.22 66.0931 75.2201C66.5573 75.2201 67.0024 75.0358 67.3307 74.7077C67.6589 74.3796 67.8434 73.9345 67.8435 73.4703C67.8435 73.0062 67.6592 72.561 67.3311 72.2328L65.4744 70.376Z" fill="#E6F5F4"/>
</svg>
