<svg width="10" height="10" viewBox="0 0 10 10" fill="none" xmlns="http://www.w3.org/2000/svg">
<path fill-rule="evenodd" clip-rule="evenodd" d="M1.15848 5.31217C1.30928 7.19155 2.80829 8.69056 4.68766 8.84136V7.49967C4.68766 7.32709 4.82757 7.18717 5.00016 7.18717C5.17275 7.18717 5.31266 7.32709 5.31266 7.49967V8.84136C7.19204 8.69056 8.69105 7.19155 8.84184 5.31217H7.50016C7.32757 5.31217 7.18766 5.17226 7.18766 4.99967C7.18766 4.82709 7.32757 4.68717 7.50016 4.68717H8.84184C8.69105 2.8078 7.19204 1.30879 5.31266 1.15799V2.49967C5.31266 2.67226 5.17275 2.81217 5.00016 2.81217C4.82757 2.81217 4.68766 2.67226 4.68766 2.49967V1.15799C2.80829 1.30879 1.30928 2.8078 1.15848 4.68717H2.50016C2.67275 4.68717 2.81266 4.82709 2.81266 4.99967C2.81266 5.17226 2.67275 5.31217 2.50016 5.31217H1.15848ZM0.520996 4.99967C0.520996 2.5259 2.52639 0.520508 5.00016 0.520508C7.47394 0.520508 9.47933 2.5259 9.47933 4.99967C9.47933 7.47345 7.47394 9.47884 5.00016 9.47884C2.52639 9.47884 0.520996 7.47345 0.520996 4.99967ZM4.99854 4.58301C4.76842 4.58301 4.58187 4.76956 4.58187 4.99967C4.58187 5.22979 4.76842 5.41634 4.99854 5.41634H5.00228C5.2324 5.41634 5.41894 5.22979 5.41894 4.99967C5.41894 4.76956 5.2324 4.58301 5.00228 4.58301H4.99854Z" fill="#020F4C"/>
</svg>
