<svg width="16" height="17" viewBox="0 0 16 17" fill="none" xmlns="http://www.w3.org/2000/svg">
<path d="M6.10079 2.66687C6.37686 2.66057 6.59556 2.43168 6.58927 2.15561C6.58298 1.87953 6.35408 1.66083 6.07801 1.66712C4.31909 1.7072 3.07924 1.86455 2.21134 2.72944C1.44719 3.49094 1.23721 4.53307 1.16713 5.94216C1.15342 6.21796 1.36588 6.45266 1.64168 6.46638C1.91748 6.48009 2.15218 6.26763 2.1659 5.99183C2.23457 4.61101 2.43966 3.91368 2.91722 3.43778C3.46806 2.88885 4.30467 2.70779 6.10079 2.66687Z" fill="#020F4C"/>
<path d="M9.92169 1.66712C9.64562 1.66083 9.41672 1.87953 9.41043 2.15561C9.40414 2.43168 9.62284 2.66057 9.89891 2.66687C11.695 2.70779 12.5316 2.88885 13.0825 3.43778C13.56 3.91368 13.7651 4.61101 13.8338 5.99183C13.8475 6.26763 14.0822 6.48009 14.358 6.46638C14.6338 6.45266 14.8463 6.21796 14.8326 5.94216C14.7625 4.53307 14.5525 3.49094 13.7884 2.72944C12.9205 1.86455 11.6806 1.7072 9.92169 1.66712Z" fill="#020F4C"/>
<path d="M2.1659 11.0088C2.15218 10.733 1.91748 10.5206 1.64168 10.5343C1.36588 10.548 1.15342 10.7827 1.16713 11.0585C1.23721 12.4676 1.44719 13.5097 2.21134 14.2712C3.07924 15.1361 4.31909 15.2935 6.07801 15.3335C6.35408 15.3398 6.58298 15.1211 6.58927 14.8451C6.59556 14.569 6.37686 14.3401 6.10079 14.3338C4.30467 14.2929 3.46806 14.1118 2.91722 13.5629C2.43966 13.087 2.23457 12.3896 2.1659 11.0088Z" fill="#020F4C"/>
<path d="M14.8326 11.0585C14.8463 10.7827 14.6338 10.548 14.358 10.5343C14.0822 10.5206 13.8475 10.733 13.8338 11.0088C13.7651 12.3896 13.56 13.087 13.0825 13.5629C12.5316 14.1118 11.695 14.2929 9.89891 14.3338C9.62284 14.3401 9.40414 14.569 9.41043 14.8451C9.41672 15.1211 9.64562 15.3398 9.92169 15.3335C11.6806 15.2935 12.9205 15.1361 13.7884 14.2712C14.5525 13.5097 14.7625 12.4676 14.8326 11.0585Z" fill="#020F4C"/>
<path d="M7.6665 4.66699C7.39036 4.66699 7.1665 4.89085 7.1665 5.16699C7.1665 5.44313 7.39036 5.66699 7.6665 5.66699H8.33317C8.60931 5.66699 8.83317 5.44313 8.83317 5.16699C8.83317 4.89085 8.60931 4.66699 8.33317 4.66699H7.6665Z" fill="#020F4C"/>
<path d="M3.33317 8.00033C3.05703 8.00033 2.83317 8.22418 2.83317 8.50033C2.83317 8.77647 3.05703 9.00033 3.33317 9.00033H3.99984C4.27598 9.00033 4.49984 8.77647 4.49984 8.50033C4.49984 8.22418 4.27598 8.00033 3.99984 8.00033H3.33317Z" fill="#020F4C"/>
<path d="M7.6665 8.00033C7.39036 8.00033 7.1665 8.22418 7.1665 8.50033C7.1665 8.77647 7.39036 9.00033 7.6665 9.00033H8.33317C8.60931 9.00033 8.83317 8.77647 8.83317 8.50033C8.83317 8.22418 8.60931 8.00033 8.33317 8.00033H7.6665Z" fill="#020F4C"/>
<path d="M11.9998 8.00033C11.7237 8.00033 11.4998 8.22418 11.4998 8.50033C11.4998 8.77647 11.7237 9.00033 11.9998 9.00033H12.6665C12.9426 9.00033 13.1665 8.77647 13.1665 8.50033C13.1665 8.22418 12.9426 8.00033 12.6665 8.00033H11.9998Z" fill="#020F4C"/>
<path d="M7.6665 11.3337C7.39036 11.3337 7.1665 11.5575 7.1665 11.8337C7.1665 12.1098 7.39036 12.3337 7.6665 12.3337H8.33317C8.60931 12.3337 8.83317 12.1098 8.83317 11.8337C8.83317 11.5575 8.60931 11.3337 8.33317 11.3337H7.6665Z" fill="#020F4C"/>
</svg>
