<svg width="25" height="25" viewBox="0 0 25 25" fill="none" xmlns="http://www.w3.org/2000/svg">
<path d="M10.168 3.64941C11.1846 2.83305 12.778 2.78692 13.8799 3.50684L14.0938 3.66113L20.6387 8.89648V8.89746C21.0166 9.20556 21.3446 9.68882 21.5557 10.2412C21.7657 10.7911 21.8439 11.3673 21.7715 11.8477L20.5127 19.3848C20.2636 20.8182 18.8685 22 17.4248 22H6.8252C5.452 22 4.16809 20.9867 3.80762 19.6641L3.74805 19.3955L2.48828 11.8574V11.8564L2.46484 11.6709C2.42672 11.2279 2.50561 10.7244 2.68945 10.2422C2.87329 9.7601 3.14965 9.33066 3.47461 9.02441L3.61719 8.90039L10.168 3.65039V3.64941ZM12.125 14.25C11.4389 14.25 10.875 14.8139 10.875 15.5V18.5C10.875 19.1861 11.4389 19.75 12.125 19.75C12.8111 19.75 13.375 19.1861 13.375 18.5V15.5C13.375 14.8139 12.8111 14.25 12.125 14.25Z" fill="#009990" stroke="#009990"/>
</svg>
