<svg width="20" height="20" viewBox="0 0 20 20" fill="none" xmlns="http://www.w3.org/2000/svg">
<path d="M1.75 1C1.75 0.585786 1.41421 0.25 1 0.25C0.585788 0.25 0.25 0.585786 0.25 1V12.0557C0.249983 13.6583 0.249969 14.9373 0.38483 15.9404C0.524152 16.9767 0.819657 17.8301 1.4948 18.5052C2.16994 19.1803 3.02335 19.4758 4.05961 19.6152C5.0627 19.75 6.34166 19.75 7.94426 19.75H19C19.4142 19.75 19.75 19.4142 19.75 19C19.75 18.5858 19.4142 18.25 19 18.25H8C6.32888 18.25 5.15099 18.2484 4.25949 18.1285C4.11739 18.1094 3.98559 18.0877 3.86298 18.0631L6.14748 14.6871C6.37962 14.344 6.28971 13.8778 5.94666 13.6456C5.60361 13.4135 5.13732 13.5034 4.90518 13.8464L2.50549 17.3927C2.18466 17.0467 1.98274 16.5683 1.87145 15.7405C1.75159 14.849 1.75 13.6711 1.75 12V1Z" fill="#161616"/>
<path d="M19.6381 2.39432C19.8558 2.04194 19.7466 1.57978 19.3942 1.36206C19.0418 1.14435 18.5797 1.25351 18.362 1.60589L16.5084 4.60589C16.2907 4.95827 16.3999 5.42043 16.7523 5.63814C17.1046 5.85586 17.5668 5.7467 17.7845 5.39432L19.6381 2.39432Z" fill="#161616"/>
<path d="M16.3429 7.72765C16.5606 7.37527 16.4514 6.91311 16.099 6.6954C15.7467 6.47768 15.2845 6.58684 15.0668 6.93922L12.193 11.5904C12.1239 11.7023 12.0614 11.8078 12.0024 11.9074C11.8473 12.1693 11.7164 12.3903 11.5526 12.5792C11.3482 12.8149 11.2568 12.805 11.2049 12.7958C11.0211 12.7635 10.807 12.5911 10.429 12.1018C10.387 12.0474 10.3417 11.9877 10.2942 11.925C10.1633 11.7522 10.0149 11.5563 9.86799 11.3848C9.66192 11.1443 9.40255 10.8816 9.07603 10.6942C8.49657 10.3616 7.91649 10.3788 7.42038 10.6433C6.99142 10.8719 6.67581 11.2591 6.45774 11.5596C6.21447 11.8949 6.28904 12.3639 6.62429 12.6071C6.95955 12.8504 7.42853 12.7758 7.67179 12.4406C7.86869 12.1692 8.01713 12.025 8.12592 11.967C8.16705 11.9451 8.18636 11.9445 8.19433 11.9447C8.20252 11.9448 8.24433 11.9464 8.32925 11.9951C8.43852 12.0578 8.56687 12.1717 8.72891 12.3608C8.84474 12.496 8.94997 12.6349 9.0697 12.793C9.12344 12.864 9.1801 12.9388 9.24194 13.0188C9.5787 13.4547 10.115 14.1271 10.9449 14.2731C11.755 14.4156 12.3323 13.9696 12.6858 13.5619C12.9477 13.26 13.1795 12.867 13.3482 12.5812C13.3932 12.5048 13.4337 12.4361 13.4691 12.3789L16.3429 7.72765Z" fill="#161616"/>
</svg>
