<svg width="16" height="16" viewBox="0 0 16 16" fill="none" xmlns="http://www.w3.org/2000/svg">
<path d="M8.00016 1.33334C4.32683 1.33334 1.3335 4.32667 1.3335 8C1.3335 11.6733 4.32683 14.6667 8.00016 14.6667C11.6735 14.6667 14.6668 11.6733 14.6668 8C14.6668 4.32667 11.6735 1.33334 8.00016 1.33334ZM7.50016 5.33334C7.50016 5.06 7.72683 4.83334 8.00016 4.83334C8.2735 4.83334 8.50016 5.06 8.50016 5.33334V8.66667C8.50016 8.94 8.2735 9.16667 8.00016 9.16667C7.72683 9.16667 7.50016 8.94 7.50016 8.66667V5.33334ZM8.6135 10.92C8.58016 11.0067 8.5335 11.0733 8.4735 11.14C8.40683 11.2 8.3335 11.2467 8.2535 11.28C8.1735 11.3133 8.08683 11.3333 8.00016 11.3333C7.9135 11.3333 7.82683 11.3133 7.74683 11.28C7.66683 11.2467 7.5935 11.2 7.52683 11.14C7.46683 11.0733 7.42016 11.0067 7.38683 10.92C7.3535 10.84 7.3335 10.7533 7.3335 10.6667C7.3335 10.58 7.3535 10.4933 7.38683 10.4133C7.42016 10.3333 7.46683 10.26 7.52683 10.1933C7.5935 10.1333 7.66683 10.0867 7.74683 10.0533C7.90683 9.98667 8.0935 9.98667 8.2535 10.0533C8.3335 10.0867 8.40683 10.1333 8.4735 10.1933C8.5335 10.26 8.58016 10.3333 8.6135 10.4133C8.64683 10.4933 8.66683 10.58 8.66683 10.6667C8.66683 10.7533 8.64683 10.84 8.6135 10.92Z" fill="#7F8B93"/>
</svg>
