<svg width="64" height="64" viewBox="0 0 64 64" fill="none" xmlns="http://www.w3.org/2000/svg">
<path d="M31.9999 5.33301C17.3066 5.33301 5.33325 17.3063 5.33325 31.9997C5.33325 46.693 17.3066 58.6663 31.9999 58.6663C46.6933 58.6663 58.6666 46.693 58.6666 31.9997C58.6666 17.3063 46.6933 5.33301 31.9999 5.33301ZM29.9999 21.333C29.9999 20.2397 30.9066 19.333 31.9999 19.333C33.0933 19.333 33.9999 20.2397 33.9999 21.333V34.6663C33.9999 35.7597 33.0933 36.6663 31.9999 36.6663C30.9066 36.6663 29.9999 35.7597 29.9999 34.6663V21.333ZM34.4533 43.6797C34.3199 44.0263 34.1333 44.293 33.8933 44.5597C33.6266 44.7997 33.3333 44.9863 33.0133 45.1197C32.6933 45.253 32.3466 45.333 31.9999 45.333C31.6533 45.333 31.3066 45.253 30.9866 45.1197C30.6666 44.9863 30.3733 44.7997 30.1066 44.5597C29.8666 44.293 29.6799 44.0263 29.5466 43.6797C29.4133 43.3597 29.3333 43.013 29.3333 42.6663C29.3333 42.3197 29.4133 41.973 29.5466 41.653C29.6799 41.333 29.8666 41.0397 30.1066 40.773C30.3733 40.533 30.6666 40.3463 30.9866 40.213C31.6266 39.9463 32.3733 39.9463 33.0133 40.213C33.3333 40.3463 33.6266 40.533 33.8933 40.773C34.1333 41.0397 34.3199 41.333 34.4533 41.653C34.5866 41.973 34.6666 42.3197 34.6666 42.6663C34.6666 43.013 34.5866 43.3597 34.4533 43.6797Z" fill="#FE9365"/>
</svg>
