<svg width="16" height="16" viewBox="0 0 16 16" fill="none" xmlns="http://www.w3.org/2000/svg">
<path d="M4.66671 1.33325H4.00004C2.00004 1.33325 1.33337 2.52659 1.33337 3.99992V4.66659V13.9999C1.33337 14.5533 1.96004 14.8666 2.40004 14.5333L3.54004 13.6799C3.80671 13.4799 4.18004 13.5066 4.42004 13.7466L5.52671 14.8599C5.78671 15.1199 6.21337 15.1199 6.47337 14.8599L7.59337 13.7399C7.82671 13.5066 8.20004 13.4799 8.46004 13.6799L9.60004 14.5333C10.04 14.8599 10.6667 14.5466 10.6667 13.9999V2.66659C10.6667 1.93325 11.2667 1.33325 12 1.33325H4.66671ZM7.50004 9.16659H4.50004C4.22671 9.16659 4.00004 8.93992 4.00004 8.66659C4.00004 8.39325 4.22671 8.16659 4.50004 8.16659H7.50004C7.77337 8.16659 8.00004 8.39325 8.00004 8.66659C8.00004 8.93992 7.77337 9.16659 7.50004 9.16659ZM8.00004 6.49992H4.00004C3.72671 6.49992 3.50004 6.27325 3.50004 5.99992C3.50004 5.72659 3.72671 5.49992 4.00004 5.49992H8.00004C8.27337 5.49992 8.50004 5.72659 8.50004 5.99992C8.50004 6.27325 8.27337 6.49992 8.00004 6.49992Z" fill="#7F8B93"/>
<path d="M12.0066 1.33325V2.33325C12.4466 2.33325 12.8666 2.51325 13.1733 2.81325C13.4933 3.13992 13.6666 3.55992 13.6666 3.99992V5.61325C13.6666 6.10659 13.4466 6.33325 12.9466 6.33325H11.6666V2.67325C11.6666 2.48659 11.82 2.33325 12.0066 2.33325V1.33325ZM12.0066 1.33325C11.2666 1.33325 10.6666 1.93325 10.6666 2.67325V7.33325H12.9466C14 7.33325 14.6666 6.66659 14.6666 5.61325V3.99992C14.6666 3.26659 14.3666 2.59992 13.8866 2.11325C13.4 1.63325 12.74 1.33992 12.0066 1.33325C12.0133 1.33325 12.0066 1.33325 12.0066 1.33325Z" fill="#7F8B93"/>
</svg>
