<svg width="14" height="16" viewBox="0 0 14 16" fill="none" xmlns="http://www.w3.org/2000/svg">
<path fill-rule="evenodd" clip-rule="evenodd" d="M4.65806 1.47966C5.65684 1.01761 6.30285 0.71875 7 0.71875C7.69715 0.71875 8.34316 1.01761 9.34194 1.47966L10.6241 2.07234C11.4655 2.46125 12.1486 2.77696 12.6167 3.08215C13.0851 3.38751 13.5 3.78503 13.5 4.38542C13.5 4.98581 13.0851 5.38333 12.6167 5.68868C12.1485 5.99388 11.4655 6.30959 10.6241 6.6985L9.34195 7.29117C8.34317 7.75322 7.69715 8.05208 7 8.05208C6.30285 8.05208 5.65683 7.75322 4.65805 7.29117L3.37592 6.6985C2.53449 6.30959 1.85145 5.99388 1.3833 5.68868C0.914912 5.38333 0.5 4.98581 0.5 4.38542C0.5 3.78503 0.914912 3.38751 1.3833 3.08215C1.85145 2.77696 2.53449 2.46125 3.37592 2.07234L4.65806 1.47966ZM7 1.71875C6.54996 1.71875 6.11517 1.90782 4.97178 2.43634L3.83523 2.96169C2.9446 3.37337 2.32907 3.65932 1.92942 3.91986C1.52266 4.18504 1.5 4.32179 1.5 4.38542C1.5 4.44905 1.52266 4.5858 1.92942 4.85097C2.32907 5.11151 2.94461 5.39747 3.83523 5.80915L4.97178 6.3345C6.11517 6.86301 6.54996 7.05208 7 7.05208C7.45004 7.05208 7.88483 6.86301 9.02822 6.33449L10.1648 5.80914C11.0554 5.39747 11.6709 5.11151 12.0706 4.85097C12.4773 4.5858 12.5 4.44905 12.5 4.38542C12.5 4.32179 12.4773 4.18504 12.0706 3.91986C11.6709 3.65932 11.0554 3.37337 10.1648 2.96169L9.02822 2.43634C7.88483 1.90782 7.45004 1.71875 7 1.71875Z" fill="#1570EF"/>
<path d="M1.43109 6.87608C1.65613 7.03611 1.70884 7.34828 1.54882 7.57332C1.50845 7.63009 1.5 7.66843 1.5 7.70605C1.5 7.76153 1.51797 7.89458 1.92668 8.15723C2.32645 8.41414 2.94218 8.69611 3.83276 9.10191L4.96931 9.61978C6.11204 10.1405 6.54816 10.3276 7 10.3276C7.45184 10.3276 7.88796 10.1405 9.03069 9.61978L10.1672 9.10191C11.0578 8.69611 11.6736 8.41414 12.0733 8.15723C12.482 7.89458 12.5 7.76153 12.5 7.70605C12.5 7.66843 12.4915 7.63009 12.4512 7.57332C12.2912 7.34828 12.3439 7.03611 12.5689 6.87609C12.794 6.71606 13.1061 6.76877 13.2662 6.99382C13.4142 7.20206 13.5 7.43992 13.5 7.70605C13.5 8.30513 13.0804 8.69874 12.614 8.9985C12.1459 9.29928 11.463 9.61041 10.6215 9.99382L9.34062 10.5775C8.34065 11.0335 7.69568 11.3276 7 11.3276C6.30432 11.3276 5.65935 11.0335 4.65936 10.5775L3.37848 9.99383C2.53697 9.61042 1.85409 9.29928 1.38605 8.9985C0.919606 8.69874 0.5 8.30513 0.5 7.70605C0.5 7.43992 0.585771 7.20206 0.73385 6.99382C0.893876 6.76877 1.20604 6.71606 1.43109 6.87608Z" fill="#1570EF"/>
<path d="M1.72707 11.1206C1.94307 10.9486 1.9787 10.634 1.80666 10.418C1.63462 10.202 1.32005 10.1664 1.10405 10.3384C0.766531 10.6072 0.5 10.956 0.5 11.4305C0.5 12.0296 0.919606 12.4232 1.38605 12.723C1.85409 13.0237 2.53697 13.3349 3.37848 13.7183L4.65936 14.302C5.65935 14.758 6.30432 15.0521 7 15.0521C7.69568 15.0521 8.34065 14.758 9.34063 14.302L10.6215 13.7183C11.463 13.3349 12.1459 13.0237 12.614 12.723C13.0804 12.4232 13.5 12.0296 13.5 11.4305C13.5 10.956 13.2335 10.6072 12.896 10.3384C12.68 10.1664 12.3654 10.202 12.1933 10.418C12.0213 10.634 12.0569 10.9486 12.2729 11.1206C12.4895 11.2931 12.5 11.3842 12.5 11.4305C12.5 11.486 12.482 11.619 12.0733 11.8817C11.6736 12.1386 11.0578 12.4206 10.1672 12.8264L9.03069 13.3442C7.88796 13.8649 7.45184 14.0521 7 14.0521C6.54816 14.0521 6.11204 13.8649 4.96931 13.3442L3.83276 12.8264C2.94218 12.4206 2.32645 12.1386 1.92668 11.8817C1.51797 11.619 1.5 11.486 1.5 11.4305C1.5 11.3842 1.51051 11.2931 1.72707 11.1206Z" fill="#1570EF"/>
</svg>
