<svg width="16" height="17" viewBox="0 0 16 17" fill="none" xmlns="http://www.w3.org/2000/svg">
<path d="M8.67318 2.83164L12.6065 4.57831C13.7399 5.07831 13.7399 5.90497 12.6065 6.40497L8.67318 8.15164C8.22652 8.35164 7.49318 8.35164 7.04652 8.15164L3.11318 6.40497C1.97985 5.90497 1.97985 5.07831 3.11318 4.57831L7.04652 2.83164C7.49318 2.63164 8.22652 2.63164 8.67318 2.83164Z" stroke="#8AD0CC" stroke-width="1.2" stroke-linecap="round" stroke-linejoin="round"/>
<path d="M2 8.21875C2 8.77875 2.42 9.42542 2.93333 9.65208L7.46 11.6654C7.80667 11.8188 8.2 11.8188 8.54 11.6654L13.0667 9.65208C13.58 9.42542 14 8.77875 14 8.21875" stroke="#8AD0CC" stroke-width="1.2" stroke-linecap="round" stroke-linejoin="round"/>
<path d="M2 11.5508C2 12.1708 2.36667 12.7308 2.93333 12.9841L7.46 14.9974C7.80667 15.1508 8.2 15.1508 8.54 14.9974L13.0667 12.9841C13.6333 12.7308 14 12.1708 14 11.5508" stroke="#8AD0CC" stroke-width="1.2" stroke-linecap="round" stroke-linejoin="round"/>
</svg>
