<svg width="16" height="16" viewBox="0 0 16 16" fill="none" xmlns="http://www.w3.org/2000/svg">
<path d="M13.7467 5.63334C13.0467 2.55334 10.3601 1.16667 8.00006 1.16667C8.00006 1.16667 8.00006 1.16667 7.9934 1.16667C5.64006 1.16667 2.94673 2.54667 2.24673 5.62667C1.46673 9.06667 3.5734 11.98 5.48006 13.8133C6.18673 14.4933 7.0934 14.8333 8.00006 14.8333C8.90673 14.8333 9.8134 14.4933 10.5134 13.8133C12.4201 11.98 14.5267 9.07334 13.7467 5.63334ZM8.00006 8.97334C6.84006 8.97334 5.90006 8.03334 5.90006 6.87334C5.90006 5.71334 6.84006 4.77334 8.00006 4.77334C9.16006 4.77334 10.1001 5.71334 10.1001 6.87334C10.1001 8.03334 9.16006 8.97334 8.00006 8.97334Z" fill="#6F51F8"/>
</svg>
