<svg width="16" height="16" viewBox="0 0 16 16" fill="none" xmlns="http://www.w3.org/2000/svg">
<path d="M5.08661 2.37995C5.2062 2.31472 5.33328 2.41508 5.33328 2.5513V11.5732C5.33328 11.7311 5.22521 11.8644 5.08661 11.94L3.51994 12.8333C2.42661 13.46 1.52661 12.94 1.52661 11.6733V5.18662C1.52661 4.76662 1.82661 4.24662 2.19994 4.03329L5.08661 2.37995Z" fill="#F15F31"/>
<path d="M9.7219 4.02236C9.89223 4.10672 10 4.28035 10 4.47043V12.8704C10 13.2389 9.61495 13.4808 9.28298 13.3209L6.78298 12.1164C6.60998 12.0331 6.5 11.858 6.5 11.666V3.23233C6.5 2.86147 6.88956 2.61968 7.2219 2.78427L9.7219 4.02236Z" fill="#F15F31"/>
<path d="M14.6666 4.32655V10.8132C14.6666 11.2332 14.3666 11.7532 13.9933 11.9665L11.9152 13.1575C11.5819 13.3485 11.1666 13.1079 11.1666 12.7237V4.31687C11.1666 4.13735 11.2629 3.97162 11.4188 3.88263L12.6733 3.16655C13.7666 2.53988 14.6666 3.05988 14.6666 4.32655Z" fill="#F15F31"/>
</svg>
