<svg width="16" height="16" viewBox="0 0 16 16" fill="none" xmlns="http://www.w3.org/2000/svg">
<path d="M13.3333 4.49992C14.3459 4.49992 15.1667 3.67911 15.1667 2.66659C15.1667 1.65406 14.3459 0.833252 13.3333 0.833252C12.3208 0.833252 11.5 1.65406 11.5 2.66659C11.5 3.67911 12.3208 4.49992 13.3333 4.49992Z" fill="#6F51F8"/>
<path d="M12.6933 5.43325C11.6466 5.20659 10.7933 4.35325 10.5666 3.30659C10.4799 2.89992 10.4733 2.50659 10.5466 2.13325C10.6333 1.71992 10.3266 1.33325 9.89992 1.33325H4.66659C2.82659 1.33325 1.33325 2.82659 1.33325 4.66659V9.29992C1.33325 11.1399 2.82659 12.6333 4.66659 12.6333H5.66659C5.85325 12.6333 6.09325 12.7533 6.19992 12.8999L7.19992 14.2266C7.63992 14.8133 8.35992 14.8133 8.79992 14.2266L9.79992 12.8999C9.92659 12.7333 10.1199 12.6333 10.3333 12.6333H11.3399C13.1799 12.6333 14.6666 11.1466 14.6666 9.30659V6.09992C14.6666 5.67992 14.2799 5.37325 13.8666 5.45325C13.4933 5.51992 13.0999 5.51992 12.6933 5.43325ZM5.33325 7.99992C4.95992 7.99992 4.66659 7.69992 4.66659 7.33325C4.66659 6.96659 4.95992 6.66659 5.33325 6.66659C5.69992 6.66659 5.99992 6.96659 5.99992 7.33325C5.99992 7.69992 5.70659 7.99992 5.33325 7.99992ZM7.99992 7.99992C7.62659 7.99992 7.33325 7.69992 7.33325 7.33325C7.33325 6.96659 7.62659 6.66659 7.99992 6.66659C8.36659 6.66659 8.66659 6.96659 8.66659 7.33325C8.66659 7.69992 8.37325 7.99992 7.99992 7.99992ZM10.6666 7.99992C10.2933 7.99992 9.99992 7.69992 9.99992 7.33325C9.99992 6.96659 10.2933 6.66659 10.6666 6.66659C11.0333 6.66659 11.3333 6.96659 11.3333 7.33325C11.3333 7.69992 11.0399 7.99992 10.6666 7.99992Z" fill="#6F51F8"/>
</svg>
