<svg width="16" height="16" viewBox="0 0 16 16" fill="none" xmlns="http://www.w3.org/2000/svg">
<path d="M11.3333 1.33301H4.66665C2.82665 1.33301 1.33331 2.81967 1.33331 4.65301V8.63967V9.30634C1.33331 11.1397 2.82665 12.6263 4.66665 12.6263H5.66665C5.84665 12.6263 6.08665 12.7463 6.19998 12.893L7.19998 14.2197C7.63998 14.8063 8.35998 14.8063 8.79998 14.2197L9.79998 12.893C9.92665 12.7263 10.1266 12.6263 10.3333 12.6263H11.3333C13.1733 12.6263 14.6666 11.1397 14.6666 9.30634V4.65301C14.6666 2.81967 13.1733 1.33301 11.3333 1.33301ZM5.33331 7.99967C4.95998 7.99967 4.66665 7.69967 4.66665 7.33301C4.66665 6.96634 4.96665 6.66634 5.33331 6.66634C5.69998 6.66634 5.99998 6.96634 5.99998 7.33301C5.99998 7.69967 5.70665 7.99967 5.33331 7.99967ZM7.99998 7.99967C7.62665 7.99967 7.33331 7.69967 7.33331 7.33301C7.33331 6.96634 7.63331 6.66634 7.99998 6.66634C8.36665 6.66634 8.66665 6.96634 8.66665 7.33301C8.66665 7.69967 8.37331 7.99967 7.99998 7.99967ZM10.6666 7.99967C10.2933 7.99967 9.99998 7.69967 9.99998 7.33301C9.99998 6.96634 10.3 6.66634 10.6666 6.66634C11.0333 6.66634 11.3333 6.96634 11.3333 7.33301C11.3333 7.69967 11.04 7.99967 10.6666 7.99967Z" fill="#6F51F8"/>
</svg>
