<svg width="24" height="24" viewBox="0 0 24 24" fill="none" xmlns="http://www.w3.org/2000/svg">
<path opacity="0.4" d="M4.93971 16.8517L4.92442 16.8483L4.90895 16.8458C4.69926 16.8123 4.49154 16.7525 4.29292 16.6804C3.63689 16.4351 3.12837 16.0373 2.77797 15.4694C2.42382 14.8956 2.20996 14.113 2.20996 13.0695V7.91949C2.20996 6.47479 2.62022 5.52516 3.26018 4.93091C3.90686 4.33043 4.8666 4.01953 6.10995 4.01953H14.9C15.9543 4.01953 16.8071 4.24363 17.4345 4.67713C18.0498 5.10232 18.4949 5.76069 18.6884 6.73129C18.7546 7.11065 18.8 7.4889 18.8 7.91949V13.0695C18.8 14.5142 18.3897 15.4639 17.7497 16.0581C17.1031 16.6586 16.1433 16.9695 14.9 16.9695H6.10995C5.68867 16.9695 5.29648 16.932 4.93971 16.8517Z" fill="#2B6C9F" stroke="#2B6C9F"/>
<path d="M7.29741 19.6822L7.29742 19.6821L7.29349 19.6807C6.47499 19.3781 5.86452 18.8256 5.52244 17.9468C5.71581 17.9623 5.91201 17.9696 6.11008 17.9696H14.9001C16.2967 17.9696 17.537 17.6205 18.4303 16.791C19.3303 15.9553 19.8001 14.7049 19.8001 13.0696V7.91962C19.8001 7.71931 19.7932 7.5262 19.7793 7.3391C20.3064 7.55099 20.7342 7.86496 21.0568 8.28274C21.5147 8.87557 21.8001 9.72856 21.8001 10.9196V16.0696C21.8001 17.5143 21.3898 18.464 20.7499 19.0582C20.1032 19.6587 19.1434 19.9696 17.9001 19.9696H9.11008C8.41279 19.9696 7.80616 19.8751 7.29741 19.6822Z" fill="#2B6C9F" stroke="#2B6C9F"/>
<path d="M12.6399 10.5004C12.6399 11.6823 11.6818 12.6404 10.4999 12.6404C9.31799 12.6404 8.35986 11.6823 8.35986 10.5004C8.35986 9.31848 9.31799 8.36035 10.4999 8.36035C11.6818 8.36035 12.6399 9.31848 12.6399 10.5004Z" fill="#2B6C9F" stroke="#2B6C9F"/>
<path d="M4.77979 8.25C4.36979 8.25 4.02979 8.59 4.02979 9V12C4.02979 12.41 4.36979 12.75 4.77979 12.75C5.18979 12.75 5.52979 12.41 5.52979 12V9C5.52979 8.59 5.19979 8.25 4.77979 8.25Z" fill="#2B6C9F"/>
<path d="M16.21 8.25C15.8 8.25 15.46 8.59 15.46 9V12C15.46 12.41 15.8 12.75 16.21 12.75C16.62 12.75 16.96 12.41 16.96 12V9C16.96 8.59 16.63 8.25 16.21 8.25Z" fill="#2B6C9F"/>
</svg>
