<svg width="24" height="24" viewBox="0 0 24 24" fill="none" xmlns="http://www.w3.org/2000/svg">
<path opacity="0.4" d="M6.11035 4.01953H14.9004C15.9545 4.01959 16.8073 4.24336 17.4346 4.67676C18.051 5.10268 18.4965 5.76296 18.6895 6.73633C18.7552 7.11399 18.7998 7.49124 18.7998 7.91992V13.0693C18.7998 14.5137 18.3897 15.4633 17.75 16.0576C17.1034 16.658 16.1435 16.9697 14.9004 16.9697H6.11035C5.68906 16.9697 5.29622 16.9318 4.93945 16.8516L4.9248 16.8486L4.90918 16.8457L4.75195 16.8154C4.59621 16.7812 4.44251 16.7346 4.29395 16.6807H4.29492C3.63814 16.4354 3.12905 16.0379 2.77832 15.4697C2.42417 14.8958 2.20996 14.1128 2.20996 13.0693V7.91992C2.20996 6.4753 2.61986 5.52492 3.25977 4.93066C3.90644 4.33019 4.867 4.01953 6.11035 4.01953Z" fill="#175CD3" stroke="#175CD3"/>
<path d="M19.7764 7.3418C20.3043 7.5537 20.7336 7.86588 21.0566 8.28418C21.5144 8.877 21.7998 9.72997 21.7998 10.9209V16.0703C21.7998 17.515 21.39 18.4653 20.75 19.0596C20.1034 19.6599 19.1435 19.9707 17.9004 19.9707H9.11035C8.41331 19.9707 7.80649 19.8764 7.29785 19.6836L7.29395 19.6816L7.10645 19.6064C6.38076 19.2907 5.83678 18.7567 5.52148 17.9443C5.71525 17.96 5.91187 17.9707 6.11035 17.9707H14.9004C16.2969 17.9707 17.5374 17.6214 18.4307 16.792C19.3306 15.9563 19.7998 14.7055 19.7998 13.0703V7.9209C19.7998 7.72112 19.7902 7.52843 19.7764 7.3418Z" fill="#175CD3" stroke="#175CD3"/>
<path d="M10.4995 8.35938C11.6813 8.35938 12.6399 9.3173 12.6401 10.499C12.6401 11.6809 11.6814 12.6396 10.4995 12.6396C9.31779 12.6395 8.35986 11.6808 8.35986 10.499C8.36006 9.31742 9.31791 8.35957 10.4995 8.35938Z" fill="#175CD3" stroke="#175CD3"/>
<path d="M4.77979 8.25C4.36979 8.25 4.02979 8.59 4.02979 9V12C4.02979 12.41 4.36979 12.75 4.77979 12.75C5.18979 12.75 5.52979 12.41 5.52979 12V9C5.52979 8.59 5.19979 8.25 4.77979 8.25Z" fill="#175CD3"/>
<path d="M16.21 8.25C15.8 8.25 15.46 8.59 15.46 9V12C15.46 12.41 15.8 12.75 16.21 12.75C16.62 12.75 16.96 12.41 16.96 12V9C16.96 8.59 16.63 8.25 16.21 8.25Z" fill="#175CD3"/>
</svg>
