<svg width="32" height="32" viewBox="0 0 32 32" fill="none" xmlns="http://www.w3.org/2000/svg">
<path d="M25.0806 8.33331H26.8939C26.6406 7.97331 26.3739 7.63997 26.0939 7.30664L25.0806 8.33331Z" fill="white"/>
<path d="M24.6937 5.89326C24.3603 5.61326 24.027 5.3466 23.667 5.09326V6.90659L24.6937 5.89326Z" fill="white"/>
<path d="M26.1072 7.30659L30.0405 3.37326C30.4272 2.98659 30.4272 2.34659 30.0405 1.95992C29.6538 1.57326 29.0138 1.57326 28.6272 1.95992L24.6938 5.89326C25.2005 6.33326 25.6672 6.81326 26.1072 7.30659Z" fill="white"/>
<path d="M23.6673 4C23.6673 3.45333 23.214 3 22.6673 3C22.134 3 21.7073 3.42667 21.6807 3.94667C22.374 4.28 23.0407 4.65333 23.6673 5.09333V4Z" fill="white"/>
<path d="M29.0007 9.33325C29.0007 8.78659 28.5474 8.33325 28.0007 8.33325H26.894C27.334 8.95992 27.7207 9.62659 28.0407 10.3199C28.574 10.2933 29.0007 9.86659 29.0007 9.33325Z" fill="white"/>
<path d="M17.0005 19.6666H17.4005C17.9205 19.6666 18.3338 19.1999 18.3338 18.6266C18.3338 17.9066 18.1338 17.7999 17.6805 17.6399L17.0005 17.3999V19.6666Z" fill="white"/>
<path d="M28.0537 10.3201C28.0403 10.3201 28.027 10.3334 28.0003 10.3334H22.667C22.5337 10.3334 22.4137 10.3067 22.2803 10.2534C22.0403 10.1467 21.8403 9.96008 21.7337 9.70675C21.6937 9.58675 21.667 9.46675 21.667 9.33342V4.00008C21.667 3.98675 21.6803 3.97341 21.6803 3.94675C19.947 3.13341 18.027 2.66675 16.0003 2.66675C8.64033 2.66675 2.66699 8.64008 2.66699 16.0001C2.66699 23.3601 8.64033 29.3334 16.0003 29.3334C23.3603 29.3334 29.3337 23.3601 29.3337 16.0001C29.3337 13.9734 28.867 12.0534 28.0537 10.3201ZM18.3337 15.7601C19.187 16.0534 20.3337 16.6801 20.3337 18.6401C20.3337 20.3067 19.0137 21.6801 17.4003 21.6801H17.0003V22.0134C17.0003 22.5601 16.547 23.0134 16.0003 23.0134C15.4537 23.0134 15.0003 22.5601 15.0003 22.0134V21.6801H14.8937C13.1203 21.6801 11.667 20.1867 11.667 18.3467C11.667 17.7867 12.1203 17.3334 12.667 17.3334C13.2137 17.3334 13.667 17.7867 13.667 18.3334C13.667 19.0667 14.2137 19.6667 14.8937 19.6667H15.0003V16.7067L13.667 16.2401C12.8137 15.9467 11.667 15.3201 11.667 13.3601C11.667 11.6934 12.987 10.3201 14.6003 10.3201H15.0003V10.0001C15.0003 9.45341 15.4537 9.00008 16.0003 9.00008C16.547 9.00008 17.0003 9.45341 17.0003 10.0001V10.3334H17.107C18.8803 10.3334 20.3337 11.8267 20.3337 13.6667C20.3337 14.2134 19.8803 14.6667 19.3337 14.6667C18.787 14.6667 18.3337 14.2134 18.3337 13.6667C18.3337 12.9334 17.787 12.3334 17.107 12.3334H17.0003V15.2934L18.3337 15.7601Z" fill="white"/>
<path d="M13.667 13.3733C13.667 14.0933 13.867 14.1999 14.3203 14.3599L15.0003 14.5999V12.3333H14.6003C14.0937 12.3333 13.667 12.7999 13.667 13.3733Z" fill="white"/>
</svg>
