<svg width="33" height="32" viewBox="0 0 33 32" fill="none" xmlns="http://www.w3.org/2000/svg">
<path d="M13.6685 13.3733C13.6685 14.0933 13.8685 14.1999 14.3218 14.3599L15.0018 14.5999V12.3333H14.6018C14.0951 12.3333 13.6685 12.7999 13.6685 13.3733Z" fill="white"/>
<path d="M17.002 19.6666H17.402C17.922 19.6666 18.3353 19.1999 18.3353 18.6266C18.3353 17.9066 18.1353 17.7999 17.682 17.6399L17.002 17.3999V19.6666Z" fill="white"/>
<path d="M26.1085 7.30675L23.3751 10.0401C23.1751 10.2401 22.9218 10.3334 22.6685 10.3334C22.4151 10.3334 22.1618 10.2401 21.9618 10.0401C21.5751 9.65342 21.5751 9.01341 21.9618 8.62675L24.6951 5.89341C22.3485 3.89341 19.3218 2.66675 16.0018 2.66675C8.64179 2.66675 2.66846 8.64008 2.66846 16.0001C2.66846 23.3601 8.64179 29.3334 16.0018 29.3334C23.3618 29.3334 29.3351 23.3601 29.3351 16.0001C29.3351 12.6801 28.1085 9.65341 26.1085 7.30675ZM18.3351 15.7601C19.1885 16.0667 20.3351 16.6801 20.3351 18.6401C20.3351 20.3067 19.0151 21.6801 17.4018 21.6801H17.0018V22.0134C17.0018 22.5601 16.5485 23.0134 16.0018 23.0134C15.4551 23.0134 15.0018 22.5601 15.0018 22.0134V21.6801H14.8951C13.1218 21.6801 11.6685 20.1867 11.6685 18.3467C11.6685 17.7867 12.1218 17.3334 12.6685 17.3334C13.2151 17.3334 13.6685 17.7867 13.6685 18.3334C13.6685 19.0667 14.2151 19.6667 14.8951 19.6667H15.0018V16.7067L13.6685 16.2401C12.8151 15.9334 11.6685 15.3201 11.6685 13.3601C11.6685 11.6934 12.9885 10.3201 14.6018 10.3201H15.0018V10.0001C15.0018 9.45341 15.4551 9.00008 16.0018 9.00008C16.5485 9.00008 17.0018 9.45341 17.0018 10.0001V10.3334H17.1085C18.8818 10.3334 20.3351 11.8267 20.3351 13.6667C20.3351 14.2134 19.8818 14.6667 19.3351 14.6667C18.7885 14.6667 18.3351 14.2134 18.3351 13.6667C18.3351 12.9334 17.7885 12.3334 17.1085 12.3334H17.0018V15.2934L18.3351 15.7601Z" fill="white"/>
<path d="M30.2553 2.28008C30.1486 2.04008 29.962 1.84008 29.7086 1.73341C29.5886 1.69341 29.4686 1.66675 29.3353 1.66675H24.002C23.4553 1.66675 23.002 2.12008 23.002 2.66675C23.002 3.21341 23.4553 3.66675 24.002 3.66675H26.922L24.6953 5.89341C25.202 6.33342 25.6686 6.80008 26.1086 7.30675L28.3353 5.08008V8.00008C28.3353 8.54675 28.7886 9.00008 29.3353 9.00008C29.882 9.00008 30.3353 8.54675 30.3353 8.00008V2.66675C30.3353 2.53341 30.3086 2.41341 30.2553 2.28008Z" fill="white"/>
</svg>
