<svg width="32" height="32" viewBox="0 0 32 32" fill="none" xmlns="http://www.w3.org/2000/svg">
<path d="M16 2.6665C8.65329 2.6665 2.66663 8.65317 2.66663 15.9998C2.66663 23.3465 8.65329 29.3332 16 29.3332C23.3466 29.3332 29.3333 23.3465 29.3333 15.9998C29.3333 8.65317 23.3466 2.6665 16 2.6665ZM10.6666 17.3332C9.91996 17.3332 9.33329 16.7332 9.33329 15.9998C9.33329 15.2665 9.93329 14.6665 10.6666 14.6665C11.4 14.6665 12 15.2665 12 15.9998C12 16.7332 11.4133 17.3332 10.6666 17.3332ZM16 17.3332C15.2533 17.3332 14.6666 16.7332 14.6666 15.9998C14.6666 15.2665 15.2666 14.6665 16 14.6665C16.7333 14.6665 17.3333 15.2665 17.3333 15.9998C17.3333 16.7332 16.7466 17.3332 16 17.3332ZM21.3333 17.3332C20.5866 17.3332 20 16.7332 20 15.9998C20 15.2665 20.6 14.6665 21.3333 14.6665C22.0666 14.6665 22.6666 15.2665 22.6666 15.9998C22.6666 16.7332 22.08 17.3332 21.3333 17.3332Z" fill="#7F8B93"/>
</svg>
