<svg width="14" height="15" viewBox="0 0 14 15" fill="none" xmlns="http://www.w3.org/2000/svg">
<path d="M5.34349 6.84116C5.28516 6.83533 5.21516 6.83533 5.15099 6.84116C3.76266 6.79449 2.66016 5.65699 2.66016 4.25699C2.66016 2.82783 3.81516 1.66699 5.25016 1.66699C6.67932 1.66699 7.84016 2.82783 7.84016 4.25699C7.83432 5.65699 6.73182 6.79449 5.34349 6.84116Z" stroke="#009990" stroke-width="1.2" stroke-linecap="round" stroke-linejoin="round"/>
<path d="M9.57241 2.83301C10.7041 2.83301 11.6141 3.74884 11.6141 4.87467C11.6141 5.97717 10.7391 6.87551 9.64825 6.91634C9.60158 6.91051 9.54908 6.91051 9.49658 6.91634" stroke="#009990" stroke-width="1.2" stroke-linecap="round" stroke-linejoin="round"/>
<path d="M2.42643 8.99301C1.01476 9.93801 1.01476 11.478 2.42643 12.4172C4.03059 13.4905 6.66143 13.4905 8.26559 12.4172C9.67726 11.4722 9.67726 9.93217 8.26559 8.99301C6.66726 7.92551 4.03643 7.92551 2.42643 8.99301Z" stroke="#009990" stroke-width="1.2" stroke-linecap="round" stroke-linejoin="round"/>
<path d="M10.6982 12.167C11.1182 12.0795 11.5149 11.9103 11.8416 11.6595C12.7516 10.977 12.7516 9.85116 11.8416 9.16866C11.5207 8.92366 11.1299 8.76033 10.7157 8.66699" stroke="#009990" stroke-width="1.2" stroke-linecap="round" stroke-linejoin="round"/>
</svg>
