<svg width="25" height="26" viewBox="0 0 25 26" fill="none" xmlns="http://www.w3.org/2000/svg">
<rect x="3.73242" y="-0.249023" width="20.7282" height="20.7282" rx="2.59102" transform="rotate(6.58209 3.73242 -0.249023)" fill="#097867"/>
<rect x="0.161939" y="4.71077" width="20.3259" height="20.3259" rx="2.42908" fill="#097867"/>
<rect x="0.161939" y="4.71077" width="20.3259" height="20.3259" rx="2.42908" stroke="white" stroke-width="0.323878"/>
<path d="M11.6082 14.8693C11.6082 15.1059 11.8024 15.2979 12.039 15.2979C12.2755 15.2979 12.4675 15.1059 12.4675 14.8693C12.4675 14.6327 12.2755 14.4407 12.039 14.4407H12.0347C11.7981 14.4407 11.6082 14.6327 11.6082 14.8693Z" fill="white"/>
<path d="M9.89651 14.8693C9.89651 15.1059 10.0885 15.2979 10.3251 15.2979C10.5617 15.2979 10.7537 15.1059 10.7537 14.8693C10.7537 14.6327 10.5617 14.4407 10.3251 14.4407C10.0881 14.4407 9.89651 14.6327 9.89651 14.8693Z" fill="white"/>
<path d="M8.18394 14.8693C8.18394 15.1059 8.37808 15.2979 8.61465 15.2979C8.85122 15.2979 9.04322 15.1059 9.04322 14.8693C9.04322 14.6327 8.85122 14.4407 8.61465 14.4407H8.61038C8.37381 14.4407 8.18394 14.6327 8.18394 14.8693Z" fill="white"/>
<path fill-rule="evenodd" clip-rule="evenodd" d="M6.88841 19.2621C6.91198 19.2629 6.93512 19.263 6.95826 19.263L6.95738 19.2638C7.46138 19.2638 7.88955 19.1283 8.26327 18.8502L8.2898 18.8314C8.29736 18.826 8.30493 18.8207 8.31248 18.8154C8.34989 18.789 8.38651 18.7631 8.4154 18.7435C8.45335 18.7578 8.50309 18.7782 8.5538 18.799C8.56265 18.8027 8.57153 18.8063 8.58039 18.8099L8.63312 18.8318C8.86069 18.9256 9.1238 18.9857 9.37195 19.0011C9.99295 19.0448 10.6517 19.0448 11.2765 19.0011C13.2248 18.8704 14.7887 17.2859 14.9142 15.3141C14.9365 14.9429 14.9365 14.5666 14.9142 14.1942C14.7891 12.2232 13.2248 10.6388 11.2752 10.5081C10.6517 10.4687 9.99423 10.4687 9.37366 10.5081C7.42538 10.6384 5.86152 12.2232 5.73595 14.1951C5.71367 14.5662 5.71367 14.9425 5.73595 15.315C5.77624 15.942 6.02053 16.5934 6.46239 17.2516C6.59525 17.5092 6.4551 17.8799 6.31239 18.1478L6.30469 18.1624C6.13029 18.491 6.00425 18.7285 6.14866 18.9865C6.14995 18.9887 6.15124 18.9909 6.15253 18.9932C6.15383 18.9954 6.15512 18.9976 6.1564 18.9998C6.30898 19.2441 6.56225 19.2522 6.85497 19.2612L6.88841 19.2621ZM6.84754 18.6176C6.82923 18.6171 6.81074 18.6166 6.79282 18.6158C6.81724 18.5674 6.84555 18.5133 6.87255 18.4628L6.88025 18.4487C7.1991 17.85 7.24583 17.3386 7.01911 16.9289C7.0144 16.9203 7.00923 16.9122 7.00409 16.9045C6.62137 16.3375 6.41009 15.7885 6.37709 15.2738C6.35652 14.9335 6.35652 14.5731 6.37709 14.2336C6.48209 12.5836 7.78883 11.2572 9.41526 11.1483C10.0084 11.1111 10.6375 11.1111 11.2337 11.1483C12.861 11.2576 14.1677 12.5841 14.2727 14.2328C14.2933 14.5731 14.2933 14.9335 14.2727 15.2729C14.1673 16.9225 12.861 18.2494 11.2333 18.3582H11.2324C10.6367 18.4002 10.0088 18.4002 9.41438 18.3582C9.23524 18.3471 9.04024 18.3029 8.87867 18.2361L8.8264 18.2146C8.58655 18.1157 8.46592 18.0659 8.32626 18.0874C8.19876 18.107 8.10499 18.1737 7.91877 18.3061L7.91782 18.3068L7.88869 18.3274C7.88762 18.328 7.88664 18.3288 7.88567 18.3295C7.8847 18.3303 7.88373 18.331 7.88266 18.3317C7.60323 18.5399 7.30026 18.6278 6.9064 18.6192L6.8751 18.6184C6.86602 18.6181 6.8568 18.6179 6.84754 18.6176Z" fill="white"/>
</svg>
