<svg width="14" height="12" viewBox="0 0 14 12" fill="none" xmlns="http://www.w3.org/2000/svg">
<path fill-rule="evenodd" clip-rule="evenodd" d="M5.24968 0.604492C3.71939 0.604492 2.47885 1.84504 2.47885 3.37533C2.47885 4.90561 3.71939 6.14616 5.24968 6.14616C6.77997 6.14616 8.02052 4.90561 8.02052 3.37533C8.02052 1.84504 6.77997 0.604492 5.24968 0.604492ZM3.35385 3.37533C3.35385 2.32829 4.20264 1.47949 5.24968 1.47949C6.29672 1.47949 7.14552 2.32829 7.14552 3.37533C7.14552 4.42237 6.29672 5.27116 5.24968 5.27116C4.20264 5.27116 3.35385 4.42237 3.35385 3.37533Z" fill="#1570EF"/>
<path fill-rule="evenodd" clip-rule="evenodd" d="M8.09224 8.0129C6.35042 7.07947 4.14894 7.07947 2.40713 8.0129C2.35283 8.042 2.2849 8.07647 2.2074 8.11579C1.86183 8.29113 1.32591 8.56304 0.958499 8.88671C0.731998 9.08624 0.489264 9.37114 0.444367 9.74081C0.395206 10.1456 0.596194 10.5018 0.936339 10.7934C1.51671 11.2911 2.21193 11.6878 3.10636 11.6878H7.39301C8.28743 11.6878 8.98266 11.2911 9.56303 10.7934C9.90317 10.5018 10.1042 10.1456 10.055 9.74081C10.0101 9.37114 9.76737 9.08624 9.54087 8.88671C9.17346 8.56304 8.63756 8.29114 8.29199 8.1158C8.21448 8.07647 8.14655 8.042 8.09224 8.0129ZM1.50589 10.1292C1.29973 9.95243 1.31109 9.86149 1.31291 9.84687C1.31872 9.79906 1.36391 9.69566 1.5369 9.54328C1.81066 9.3021 2.20368 9.10133 2.54925 8.92479C2.64438 8.87619 2.73598 8.8294 2.82043 8.78414C4.30408 7.98905 6.19529 7.98905 7.67893 8.78414C7.76341 8.82941 7.85496 8.87618 7.95012 8.92479C8.29569 9.10133 8.6887 9.3021 8.96247 9.54328C9.13545 9.69566 9.18058 9.7985 9.18638 9.84631C9.18821 9.86093 9.19963 9.95243 8.99347 10.1292C8.50085 10.5516 8.00104 10.8128 7.39301 10.8128H3.10636C2.49833 10.8128 1.99852 10.5516 1.50589 10.1292Z" fill="#1570EF"/>
<path d="M9.12639 2.38625C9.23087 2.36552 9.33992 2.35449 9.45237 2.35449C10.3119 2.35449 10.9371 2.97986 10.9371 3.66699C10.9371 4.35412 10.3119 4.97949 9.45237 4.97949C9.33992 4.97949 9.23087 4.96846 9.12639 4.94774C8.88938 4.90073 8.65914 5.05475 8.61212 5.29175C8.56511 5.52876 8.71913 5.759 8.95614 5.80602C9.11656 5.83784 9.28262 5.85449 9.45237 5.85449C10.7161 5.85449 11.8121 4.91286 11.8121 3.66699C11.8121 2.42113 10.7161 1.47949 9.45237 1.47949C9.28262 1.47949 9.11656 1.49615 8.95614 1.52797C8.71913 1.57498 8.56511 1.80522 8.61212 2.04223C8.65913 2.27924 8.88938 2.43326 9.12639 2.38625Z" fill="#1570EF"/>
<path d="M10.2079 7.31283C9.9663 7.31283 9.77043 7.5087 9.77043 7.75033C9.77043 7.99195 9.9663 8.18783 10.2079 8.18783C10.3889 8.18783 10.7028 8.24253 11.0708 8.35673C11.4323 8.46887 11.8098 8.62719 12.1159 8.81046C12.4383 9.00356 12.6132 9.18388 12.669 9.31088C12.6907 9.36045 12.6894 9.3897 12.6828 9.414C12.6746 9.44425 12.6451 9.51113 12.537 9.60759C12.1004 9.99707 11.6666 10.2295 11.1449 10.2295H10.859C10.6174 10.2295 10.4215 10.4254 10.4215 10.667C10.4215 10.9086 10.6174 11.1045 10.859 11.1045H11.1449C11.9647 11.1045 12.598 10.7257 13.1194 10.2605C13.3155 10.0856 13.4628 9.88071 13.5273 9.64312C13.5934 9.39958 13.5606 9.16494 13.47 8.95889C13.3012 8.57467 12.928 8.2769 12.5654 8.05976C12.1863 7.83279 11.7417 7.64871 11.3301 7.52103C10.9252 7.39539 10.5153 7.31283 10.2079 7.31283Z" fill="#1570EF"/>
</svg>
