<svg width="16" height="16" viewBox="0 0 16 16" fill="none" xmlns="http://www.w3.org/2000/svg">
<path d="M10.6668 2.83334C10.6668 3.66 9.9935 4.33334 9.16683 4.33334H6.8335C6.42016 4.33334 6.04683 4.16667 5.7735 3.89334C5.50016 3.62 5.3335 3.24667 5.3335 2.83334C5.3335 2.00667 6.00683 1.33334 6.8335 1.33334H9.16683C9.58016 1.33334 9.9535 1.5 10.2268 1.77334C10.5002 2.04667 10.6668 2.42 10.6668 2.83334Z" fill="#7F8B93"/>
<path d="M12.5532 3.35333C12.3998 3.22666 12.2265 3.12666 12.0398 3.05333C11.8465 2.98 11.6532 3.13333 11.6132 3.33333C11.3865 4.47333 10.3798 5.33333 9.1665 5.33333H6.83317C6.1665 5.33333 5.53984 5.07333 5.0665 4.6C4.71984 4.25333 4.47984 3.81333 4.3865 3.34C4.3465 3.14 4.1465 2.98 3.95317 3.06C3.17984 3.37333 2.6665 4.08 2.6665 5.5V12C2.6665 14 3.85984 14.6667 5.33317 14.6667H10.6665C12.1398 14.6667 13.3332 14 13.3332 12V5.5C13.3332 4.41333 13.0332 3.74666 12.5532 3.35333ZM5.33317 8.16666H7.99984C8.27317 8.16666 8.49984 8.39333 8.49984 8.66666C8.49984 8.94 8.27317 9.16666 7.99984 9.16666H5.33317C5.05984 9.16666 4.83317 8.94 4.83317 8.66666C4.83317 8.39333 5.05984 8.16666 5.33317 8.16666ZM10.6665 11.8333H5.33317C5.05984 11.8333 4.83317 11.6067 4.83317 11.3333C4.83317 11.06 5.05984 10.8333 5.33317 10.8333H10.6665C10.9398 10.8333 11.1665 11.06 11.1665 11.3333C11.1665 11.6067 10.9398 11.8333 10.6665 11.8333Z" fill="#7F8B93"/>
</svg>
