<svg width="25" height="24" viewBox="0 0 25 24" fill="none" xmlns="http://www.w3.org/2000/svg">
<path d="M12.645 2.91016C9.33497 2.91016 6.64497 5.60016 6.64497 8.91016V11.8002C6.64497 12.4102 6.38497 13.3402 6.07497 13.8602L4.92497 15.7702C4.21497 16.9502 4.70497 18.2602 6.00497 18.7002C10.315 20.1402 14.965 20.1402 19.275 18.7002C20.485 18.3002 21.015 16.8702 20.355 15.7702L19.205 13.8602C18.905 13.3402 18.645 12.4102 18.645 11.8002V8.91016C18.645 5.61016 15.945 2.91016 12.645 2.91016Z" stroke="#8F8F8F" stroke-width="1.5" stroke-miterlimit="10" stroke-linecap="round"/>
<path d="M14.495 3.20043C14.185 3.11043 13.865 3.04043 13.535 3.00043C12.575 2.88043 11.655 2.95043 10.795 3.20043C11.085 2.46043 11.805 1.94043 12.645 1.94043C13.485 1.94043 14.205 2.46043 14.495 3.20043Z" stroke="#8F8F8F" stroke-width="1.5" stroke-miterlimit="10" stroke-linecap="round" stroke-linejoin="round"/>
<path d="M15.645 19.0596C15.645 20.7096 14.295 22.0596 12.645 22.0596C11.825 22.0596 11.065 21.7196 10.525 21.1796C9.98502 20.6396 9.64502 19.8796 9.64502 19.0596" stroke="#8F8F8F" stroke-width="1.5" stroke-miterlimit="10"/>
</svg>
