<svg width="30" height="30" viewBox="0 0 30 30" fill="none" xmlns="http://www.w3.org/2000/svg">
<path d="M22.2496 18.4735L21.6011 16.3781C21.4562 15.9202 21.4312 15.1005 21.5458 14.6344L21.9922 12.8185C22.8588 9.29345 20.6983 5.72449 17.183 4.86028C13.6556 4.00339 10.089 6.15412 9.22241 9.67916L8.77837 11.4854C8.66378 11.9515 8.26154 12.6661 7.9306 13.007L6.38445 14.5629C5.79261 15.1691 5.49736 15.9512 5.58766 16.7149C5.67558 17.4882 6.12948 18.1971 6.84428 18.6405C7.80711 19.248 8.80352 19.7607 9.83606 20.2102C9.93811 20.2558 10.0425 20.2918 10.1446 20.3375C10.2758 20.3903 10.4166 20.4456 10.5575 20.5008C10.8005 20.6017 11.0458 20.6929 11.3032 20.7768C11.9007 20.9855 12.515 21.1674 13.1365 21.3202C13.7483 21.4706 14.3672 21.5918 14.9836 21.6816C15.2117 21.7171 15.4399 21.7526 15.6607 21.776C15.8402 21.7995 16.0198 21.8231 16.2018 21.8369C16.311 21.8535 16.4226 21.8603 16.5342 21.8671C17.6648 21.9597 18.8095 21.9528 19.9442 21.861C20.754 21.7924 21.4654 21.37 21.914 20.7182C22.3649 20.0568 22.483 19.2414 22.2496 18.4735ZM15.994 12.7547C15.8937 13.1625 15.4824 13.4115 15.0745 13.3113C14.6667 13.211 14.4177 12.7997 14.5179 12.3918L15.258 9.38145C15.3583 8.97359 15.7696 8.72459 16.1775 8.82486C16.5853 8.92513 16.8343 9.33646 16.7341 9.74432L15.994 12.7547Z" fill="#292D32"/>
<path d="M15.6241 22.9718C14.9394 23.998 13.6633 24.539 12.4009 24.2287C11.6337 24.0401 10.9527 23.5431 10.5547 22.8583C10.3155 22.4906 10.178 22.0448 10.1399 21.6133C10.2614 21.6637 10.3852 21.7045 10.5164 21.7573C10.7326 21.8414 10.9585 21.9278 11.1868 22.0045C11.7283 22.1891 12.2844 22.3567 12.8476 22.4952C13.4012 22.6313 13.9618 22.7382 14.5176 22.8234C14.7263 22.8541 14.9326 22.8945 15.134 22.9131C15.2941 22.9319 15.4543 22.9507 15.6241 22.9718Z" fill="#292D32"/>
</svg>
