<svg width="16" height="16" viewBox="0 0 16 16" fill="none" xmlns="http://www.w3.org/2000/svg">
<path d="M12.8667 5.27999V8.71334C12.8667 10.7667 11.6933 11.6466 9.93335 11.6466H4.07334C3.77334 11.6466 3.48668 11.62 3.22001 11.56C3.05334 11.5334 2.89335 11.4867 2.74668 11.4333C1.74668 11.06 1.14001 10.1933 1.14001 8.71334V5.27999C1.14001 3.22666 2.31334 2.34668 4.07334 2.34668H9.93335C11.4267 2.34668 12.5 2.98001 12.7867 4.42668C12.8333 4.69334 12.8667 4.96666 12.8667 5.27999Z" stroke="#2B6C9F" stroke-miterlimit="10" stroke-linecap="round" stroke-linejoin="round"/>
<path d="M14.8674 7.28007V10.7134C14.8674 12.7668 13.694 13.6467 11.934 13.6467H6.07404C5.5807 13.6467 5.13404 13.5801 4.74738 13.4334C3.95404 13.1401 3.41404 12.5334 3.2207 11.5601C3.48737 11.6201 3.77404 11.6467 4.07404 11.6467H9.93404C11.694 11.6467 12.8674 10.7668 12.8674 8.71342V5.28007C12.8674 4.96674 12.8407 4.68676 12.7874 4.42676C14.054 4.69342 14.8674 5.58674 14.8674 7.28007Z" stroke="#2B6C9F" stroke-miterlimit="10" stroke-linecap="round" stroke-linejoin="round"/>
<path d="M6.99902 8.76025C7.97104 8.76025 8.75903 7.97227 8.75903 7.00024C8.75903 6.02822 7.97104 5.24023 6.99902 5.24023C6.027 5.24023 5.23901 6.02822 5.23901 7.00024C5.23901 7.97227 6.027 8.76025 6.99902 8.76025Z" stroke="#2B6C9F" stroke-miterlimit="10" stroke-linecap="round" stroke-linejoin="round"/>
<path d="M3.18665 5.5332V8.46655" stroke="#2B6C9F" stroke-miterlimit="10" stroke-linecap="round" stroke-linejoin="round"/>
<path d="M10.8145 5.5332V8.46655" stroke="#2B6C9F" stroke-miterlimit="10" stroke-linecap="round" stroke-linejoin="round"/>
</svg>
