<svg width="16" height="16" viewBox="0 0 16 16" fill="none" xmlns="http://www.w3.org/2000/svg">
<path d="M12 4.77301C11.96 4.76634 11.9133 4.76634 11.8733 4.77301C10.9533 4.73968 10.22 3.98634 10.22 3.05301C10.22 2.09968 10.9866 1.33301 11.94 1.33301C12.8933 1.33301 13.66 2.10634 13.66 3.05301C13.6533 3.98634 12.92 4.73968 12 4.77301Z" stroke="#2B6C9F" stroke-linecap="round" stroke-linejoin="round"/>
<path d="M11.3133 9.62645C12.2267 9.77978 13.2333 9.61978 13.94 9.14645C14.88 8.51978 14.88 7.49312 13.94 6.86645C13.2267 6.39312 12.2067 6.23311 11.2933 6.39311" stroke="#2B6C9F" stroke-linecap="round" stroke-linejoin="round"/>
<path d="M3.97995 4.77301C4.01995 4.76634 4.06661 4.76634 4.10661 4.77301C5.02661 4.73968 5.75995 3.98634 5.75995 3.05301C5.75995 2.09968 4.99328 1.33301 4.03995 1.33301C3.08661 1.33301 2.31995 2.10634 2.31995 3.05301C2.32661 3.98634 3.05995 4.73968 3.97995 4.77301Z" stroke="#2B6C9F" stroke-linecap="round" stroke-linejoin="round"/>
<path d="M4.66663 9.62645C3.75329 9.77978 2.74663 9.61978 2.03996 9.14645C1.09996 8.51978 1.09996 7.49312 2.03996 6.86645C2.75329 6.39312 3.77329 6.23311 4.68663 6.39311" stroke="#2B6C9F" stroke-linecap="round" stroke-linejoin="round"/>
<path d="M7.99997 9.75348C7.95997 9.74681 7.9133 9.74681 7.8733 9.75348C6.9533 9.72015 6.21997 8.96681 6.21997 8.03348C6.21997 7.08014 6.98664 6.31348 7.93997 6.31348C8.8933 6.31348 9.65997 7.08681 9.65997 8.03348C9.6533 8.96681 8.91997 9.72681 7.99997 9.75348Z" stroke="#2B6C9F" stroke-linecap="round" stroke-linejoin="round"/>
<path d="M6.05998 11.8532C5.11998 12.4799 5.11998 13.5066 6.05998 14.1332C7.12665 14.8466 8.87331 14.8466 9.93998 14.1332C10.88 13.5066 10.88 12.4799 9.93998 11.8532C8.87998 11.1466 7.12665 11.1466 6.05998 11.8532Z" stroke="#2B6C9F" stroke-linecap="round" stroke-linejoin="round"/>
</svg>
