<svg width="20" height="20" viewBox="0 0 20 20" fill="none" xmlns="http://www.w3.org/2000/svg">
<path d="M7.1416 12.7254L12.5916 7.27539" stroke="#009990" stroke-width="1.2" stroke-linecap="round" stroke-linejoin="round"/>
<path d="M7.48351 8.64179C8.0496 8.64179 8.50849 8.1829 8.50849 7.61681C8.50849 7.05071 8.0496 6.5918 7.48351 6.5918C6.91741 6.5918 6.4585 7.05071 6.4585 7.61681C6.4585 8.1829 6.91741 8.64179 7.48351 8.64179Z" stroke="#009990" stroke-width="1.2" stroke-linecap="round" stroke-linejoin="round"/>
<path d="M12.9332 13.4074C13.4993 13.4074 13.9582 12.9485 13.9582 12.3824C13.9582 11.8163 13.4993 11.3574 12.9332 11.3574C12.3671 11.3574 11.9082 11.8163 11.9082 12.3824C11.9082 12.9485 12.3671 13.4074 12.9332 13.4074Z" stroke="#009990" stroke-width="1.2" stroke-linecap="round" stroke-linejoin="round"/>
<path d="M9.99984 18.3327C14.6022 18.3327 18.3332 14.6017 18.3332 9.99935C18.3332 5.39698 14.6022 1.66602 9.99984 1.66602C5.39746 1.66602 1.6665 5.39698 1.6665 9.99935C1.6665 14.6017 5.39746 18.3327 9.99984 18.3327Z" stroke="#009990" stroke-width="1.2" stroke-linecap="round" stroke-linejoin="round"/>
</svg>
