<svg width="20" height="23" viewBox="0 0 20 23" fill="none" xmlns="http://www.w3.org/2000/svg">
<path d="M19.0453 7.3967V20.5349C19.0453 21.7583 18.0536 22.75 16.8302 22.75H3.16971C1.94632 22.75 0.95459 21.7583 0.95459 20.5349V2.46513C0.954543 1.24173 1.94628 0.25 3.16971 0.25H12.3192L19.0453 7.3967Z" fill="#D92D20"/>
<path d="M19.0452 7.3967H13.7958C12.9803 7.3967 12.3191 6.73553 12.3191 5.91995V0.25L19.0452 7.3967Z" fill="#D92D20" fill-opacity="0.1"/>
<path d="M5.4874 16.0753V17.5722H4.42456V13.1621H6.18397C6.52142 13.1621 6.81997 13.2241 7.07956 13.3482C7.33915 13.4722 7.53959 13.6496 7.68237 13.8789C7.8237 14.1082 7.89579 14.3678 7.89579 14.6591C7.89579 15.0888 7.74148 15.4321 7.43286 15.6902C7.12569 15.9469 6.70311 16.0753 6.16522 16.0753H5.4874ZM5.4874 15.2547H6.18397C6.39022 15.2547 6.54739 15.2042 6.65553 15.1003C6.76367 14.998 6.81706 14.8523 6.81706 14.6648C6.81706 14.4586 6.76081 14.2942 6.64976 14.1702C6.53872 14.0476 6.38731 13.9856 6.1955 13.9827H5.4874V15.2547ZM9.524 16.0753V17.5722H8.46115V13.1621H10.2206C10.558 13.1621 10.8566 13.2241 11.1162 13.3482C11.3757 13.4722 11.5762 13.6496 11.719 13.8789C11.8603 14.1082 11.9324 14.3678 11.9324 14.6591C11.9324 15.0888 11.7781 15.4321 11.4695 15.6902C11.1623 15.9469 10.7397 16.0753 10.2018 16.0753H9.524ZM9.524 15.2547H10.2206C10.4268 15.2547 10.584 15.2042 10.6921 15.1003C10.8003 14.998 10.8537 14.8523 10.8537 14.6648C10.8537 14.4586 10.7974 14.2942 10.6864 14.1702C10.5753 14.0476 10.4239 13.9856 10.2321 13.9827H9.524V15.2547ZM15.9603 13.9827H14.6379V17.5722H13.5736V13.9827H12.2757V13.1621H15.9604V13.9827H15.9603Z" fill="white"/>
</svg>
