<svg width="32" height="32" viewBox="0 0 32 32" fill="none" xmlns="http://www.w3.org/2000/svg">
<path d="M9.33325 6.6665C9.33325 4.45317 11.1199 2.6665 13.3333 2.6665H18.6666C20.8799 2.6665 22.6666 4.45317 22.6666 6.6665C22.6666 7.39984 22.0666 7.99984 21.3333 7.99984H10.6666C9.93325 7.99984 9.33325 7.39984 9.33325 6.6665Z" fill="#616161"/>
<path d="M23.6666 20C23.6666 20.5467 23.2133 21 22.6666 21H21.3333V25.3333C21.3333 27.5467 19.5466 29.3333 17.3333 29.3333H14.6666C12.4533 29.3333 10.6666 27.5467 10.6666 25.3333V21H9.33325C8.78659 21 8.33325 20.5467 8.33325 20C8.33325 19.4533 8.78659 19 9.33325 19H22.6666C23.2133 19 23.6666 19.4533 23.6666 20Z" fill="#616161"/>
<path d="M24 9.3335H8C5.33333 9.3335 4 10.6668 4 13.3335V20.0002C4 22.6668 5.33333 24.0002 8 24.0002H8.53333C8.97516 24.0002 9.33333 23.642 9.33333 23.2002V23.1335C9.33333 22.6917 8.96466 22.3465 8.54915 22.1963C7.64994 21.8712 7 21.0056 7 20.0002C7 18.7202 8.05333 17.6668 9.33333 17.6668H22.6667C23.9467 17.6668 25 18.7202 25 20.0002C25 21.0056 24.3501 21.8712 23.4509 22.1963C23.0353 22.3465 22.6667 22.6917 22.6667 23.1335V23.2002C22.6667 23.642 23.0248 24.0002 23.4667 24.0002H24C26.6667 24.0002 28 22.6668 28 20.0002V13.3335C28 10.6668 26.6667 9.3335 24 9.3335ZM13.3333 15.6668H9.33333C8.78667 15.6668 8.33333 15.2135 8.33333 14.6668C8.33333 14.1202 8.78667 13.6668 9.33333 13.6668H13.3333C13.88 13.6668 14.3333 14.1202 14.3333 14.6668C14.3333 15.2135 13.88 15.6668 13.3333 15.6668Z" fill="#616161"/>
</svg>
