<svg width="16" height="16" viewBox="0 0 16 16" fill="none" xmlns="http://www.w3.org/2000/svg">
<path d="M14.44 6.96033L13.7866 9.747C13.2266 12.1537 12.12 13.127 10.04 12.927C9.70664 12.9003 9.34664 12.8403 8.95998 12.747L7.83998 12.4803C5.05998 11.8203 4.19998 10.447 4.85331 7.66033L5.50664 4.867C5.63998 4.30033 5.79998 3.807 5.99998 3.40033C6.77998 1.787 8.10664 1.35366 10.3333 1.88033L11.4466 2.14033C14.24 2.79366 15.0933 4.17366 14.44 6.96033Z" stroke="#2B6C9F" stroke-linecap="round" stroke-linejoin="round"/>
<path d="M10.04 12.9271C9.62665 13.2071 9.10665 13.4404 8.47332 13.6471L7.41998 13.9937C4.77332 14.8471 3.37998 14.1337 2.51998 11.4871L1.66665 8.85372C0.813317 6.20706 1.51998 4.80706 4.16665 3.95372L5.21998 3.60706C5.49332 3.52039 5.75332 3.44706 5.99998 3.40039C5.79998 3.80706 5.63998 4.30039 5.50665 4.86706L4.85332 7.66039C4.19998 10.4471 5.05998 11.8204 7.83998 12.4804L8.95998 12.7471C9.34665 12.8404 9.70665 12.9004 10.04 12.9271Z" stroke="#2B6C9F" stroke-linecap="round" stroke-linejoin="round"/>
<path d="M8.4267 5.68652L11.66 6.50652" stroke="#2B6C9F" stroke-linecap="round" stroke-linejoin="round"/>
<path d="M7.77332 8.2666L9.70665 8.75994" stroke="#2B6C9F" stroke-linecap="round" stroke-linejoin="round"/>
</svg>
