<svg width="16" height="16" viewBox="0 0 16 16" fill="none" xmlns="http://www.w3.org/2000/svg">
<path d="M8 1.33301C4.31999 1.33301 1.33333 4.31967 1.33333 7.99967C1.33333 11.6797 4.31999 14.6663 8 14.6663C11.68 14.6663 14.6667 11.6797 14.6667 7.99967C14.6667 4.31967 11.68 1.33301 8 1.33301ZM4.39999 7.48634C4.51333 6.69301 4.86666 5.97967 5.42 5.41967C6.75333 4.09301 8.85333 4.01967 10.28 5.17967V4.54634C10.28 4.27301 10.5067 4.04634 10.78 4.04634C11.0533 4.04634 11.28 4.27301 11.28 4.54634V6.32634C11.28 6.59967 11.0533 6.82634 10.78 6.82634H9C8.72666 6.82634 8.5 6.59967 8.5 6.32634C8.5 6.05301 8.72666 5.82634 9 5.82634H9.5C8.46666 5.10634 7.04 5.20634 6.12 6.12634C5.72 6.52634 5.46666 7.04634 5.37999 7.62634C5.34666 7.87301 5.13333 8.05301 4.88666 8.05301C4.85999 8.05301 4.83999 8.05301 4.81333 8.04634C4.55333 8.01301 4.35999 7.75967 4.39999 7.48634ZM10.58 10.5797C9.86666 11.293 8.93333 11.6463 8 11.6463C7.18666 11.6463 6.37999 11.3597 5.71333 10.8197V11.4463C5.71333 11.7197 5.48666 11.9463 5.21333 11.9463C4.94 11.9463 4.71333 11.7197 4.71333 11.4463V9.66634C4.71333 9.39301 4.94 9.16634 5.21333 9.16634H6.99333C7.26666 9.16634 7.49333 9.39301 7.49333 9.66634C7.49333 9.93967 7.26666 10.1663 6.99333 10.1663H6.49333C7.52666 10.8863 8.95333 10.7863 9.87333 9.86634C10.2733 9.46634 10.5267 8.94634 10.6133 8.36634C10.6533 8.09301 10.9 7.89967 11.18 7.93967C11.4533 7.97967 11.64 8.23301 11.6067 8.50634C11.4867 9.31301 11.1333 10.0263 10.58 10.5797Z" fill="#A6840A"/>
</svg>
