<svg width="32" height="32" viewBox="0 0 32 32" fill="none" xmlns="http://www.w3.org/2000/svg">
<path d="M21.5867 2.66602H10.4133C5.56 2.66602 2.66667 5.55935 2.66667 10.4127V21.5727C2.66667 26.4394 5.56 29.3327 10.4133 29.3327H21.5733C26.4267 29.3327 29.32 26.4394 29.32 21.586V10.4127C29.3333 5.55935 26.44 2.66602 21.5867 2.66602ZM16 24.3327C13.6133 24.3327 11.7467 23.146 10.48 21.9727V22.9193C10.48 23.466 10.0267 23.9193 9.48001 23.9193C8.93334 23.9193 8.48001 23.466 8.48001 22.9193V19.2527C8.48001 18.706 8.93334 18.2527 9.48001 18.2527H12.7867C13.3333 18.2527 13.7867 18.706 13.7867 19.2527C13.7867 19.7993 13.3333 20.2527 12.7867 20.2527H11.5867C12.5733 21.2393 14.1067 22.3327 16 22.3327C19.4933 22.3327 22.3333 19.4927 22.3333 15.9993C22.3333 15.4527 22.7867 14.9993 23.3333 14.9993C23.88 14.9993 24.3333 15.4527 24.3333 15.9993C24.3333 20.5993 20.6 24.3327 16 24.3327ZM24.3333 12.7193C24.3333 12.7593 24.3333 12.7993 24.3333 12.826C24.32 12.9727 24.28 13.106 24.2133 13.226C24.1467 13.346 24.0533 13.4527 23.9333 13.546C23.84 13.6127 23.7333 13.666 23.6133 13.706C23.52 13.7327 23.4267 13.746 23.3333 13.746H20.0933C19.5467 13.746 19.0933 13.2927 19.0933 12.746C19.0933 12.1993 19.5467 11.746 20.0933 11.746H21.2C20.1333 10.7593 18.4133 9.66602 16.0267 9.66602C12.5333 9.66602 9.69334 12.506 9.69334 15.9993C9.69334 16.546 9.24001 16.9993 8.69334 16.9993C8.14667 16.9993 7.66667 16.546 7.66667 15.9993C7.66667 11.3993 11.4 7.66602 16 7.66602C18.8667 7.66602 20.9733 8.90602 22.3333 10.0927V9.07935C22.3333 8.53268 22.7867 8.07935 23.3333 8.07935C23.88 8.07935 24.3333 8.53268 24.3333 9.07935V12.7193Z" fill="#FE9365"/>
</svg>
