<svg width="25" height="24" viewBox="0 0 25 24" fill="none" xmlns="http://www.w3.org/2000/svg">
<path d="M4.395 5.97C3.125 7.65 2.375 9.74 2.375 12C2.375 17.52 6.855 22 12.375 22C17.895 22 22.375 17.52 22.375 12C22.375 6.48 17.895 2 12.375 2" stroke="#8F8F8F" stroke-width="1.5" stroke-linecap="round" stroke-linejoin="round"/>
<path d="M5.375 12C5.375 15.87 8.505 19 12.375 19C16.245 19 19.375 15.87 19.375 12C19.375 8.13 16.245 5 12.375 5" stroke="#8F8F8F" stroke-width="1.5" stroke-linecap="round" stroke-linejoin="round"/>
<path d="M12.375 16C14.585 16 16.375 14.21 16.375 12C16.375 9.79 14.585 8 12.375 8" stroke="#8F8F8F" stroke-width="1.5" stroke-linecap="round" stroke-linejoin="round"/>
</svg>
