<svg width="10" height="10" viewBox="0 0 10 10" fill="none" xmlns="http://www.w3.org/2000/svg">
<path d="M6.66488 2.91699C6.66488 2.68687 6.85142 2.50033 7.08154 2.50033H7.08528C7.3154 2.50033 7.50195 2.68687 7.50195 2.91699C7.50195 3.14711 7.3154 3.33366 7.08528 3.33366H7.08154C6.85142 3.33366 6.66488 3.14711 6.66488 2.91699Z" fill="#020F4C"/>
<path fill-rule="evenodd" clip-rule="evenodd" d="M8.59165 0.74006C8.75768 0.76102 8.91175 0.81965 9.04611 0.95401C9.18047 1.08837 9.2391 1.24244 9.26006 1.40846C9.27777 1.5488 9.26967 1.71366 9.26133 1.88317L9.2603 1.90426C9.21054 2.92131 8.90372 3.91718 8.13584 4.68506L7.51685 5.30405C7.24672 5.57419 7.12769 5.69835 7.06891 5.81313C7.02815 5.89274 7.00821 5.98509 7.05348 6.2233L7.05575 6.23236C7.10543 6.43087 7.1654 6.67048 7.16584 6.90258C7.16633 7.15825 7.09547 7.4246 6.8699 7.65018C6.65467 7.86541 6.40161 8.02112 6.10647 8.02112C5.81132 8.02111 5.55827 7.8654 5.34305 7.65018L2.34994 4.65707C2.13472 4.44185 1.97901 4.1888 1.979 3.89365C1.979 3.59851 2.13471 3.34545 2.34994 3.13022C2.57552 2.90465 2.84187 2.83379 3.09754 2.83428C3.32964 2.83472 3.56925 2.89469 3.76776 2.94437L3.77682 2.94664C4.01503 2.99191 4.10738 2.97197 4.18699 2.93121C4.30177 2.87243 4.42593 2.7534 4.69607 2.48327L5.31506 1.86428C6.08294 1.09639 7.07881 0.789574 8.09586 0.73982L8.11694 0.738785C8.28645 0.73045 8.45132 0.722344 8.59165 0.74006ZM8.51337 1.36014C8.43407 1.35013 8.32512 1.35435 8.1264 1.36407C7.21211 1.4088 6.38305 1.68017 5.757 2.30622L5.10706 2.95617C4.88075 3.1827 4.68554 3.37809 4.47185 3.48751C4.21421 3.61944 3.95879 3.61847 3.65003 3.55871C3.64452 3.55764 3.63905 3.55643 3.63361 3.55507C3.41306 3.49993 3.24428 3.45956 3.09635 3.45928C2.96514 3.45903 2.87343 3.49062 2.79188 3.57216C2.63456 3.72949 2.604 3.83261 2.604 3.89365C2.604 3.95469 2.63456 4.05781 2.79188 4.21513L5.78499 7.20824C5.94231 7.36556 6.04543 7.39612 6.10647 7.39612C6.16751 7.39612 6.27063 7.36556 6.42795 7.20824C6.5095 7.12669 6.54109 7.03498 6.54084 6.90377C6.54056 6.75584 6.50019 6.58706 6.44505 6.36651C6.44369 6.36107 6.44247 6.35559 6.44141 6.35009C6.38165 6.04133 6.38068 5.78591 6.51261 5.52826C6.62203 5.31458 6.81742 5.11937 7.04394 4.89306L7.6939 4.24312C8.31995 3.61707 8.59132 2.788 8.63605 1.87372C8.64577 1.675 8.64999 1.56605 8.63998 1.48675C8.63248 1.42732 8.6204 1.41219 8.60417 1.39595C8.58793 1.37971 8.5728 1.36764 8.51337 1.36014Z" fill="#020F4C"/>
<path d="M3.34581 7.0963C3.46785 6.97426 3.46785 6.77639 3.34581 6.65436C3.22377 6.53232 3.02591 6.53232 2.90387 6.65436L0.820533 8.73769C0.698494 8.85973 0.698494 9.05759 0.820533 9.17963C0.942572 9.30167 1.14044 9.30167 1.26247 9.17963L3.34581 7.0963Z" fill="#020F4C"/>
<path d="M4.59581 7.90435C4.71785 8.02639 4.71785 8.22426 4.59581 8.3463L3.76247 9.17963C3.64044 9.30167 3.44257 9.30167 3.32053 9.17963C3.19849 9.05759 3.19849 8.85973 3.32053 8.73769L4.15387 7.90435C4.2759 7.78232 4.47377 7.78232 4.59581 7.90435Z" fill="#020F4C"/>
<path d="M2.09581 5.8463C2.21785 5.72426 2.21785 5.52639 2.09581 5.40436C1.97377 5.28232 1.77591 5.28232 1.65387 5.40436L0.820533 6.23769C0.698494 6.35973 0.698494 6.55759 0.820533 6.67963C0.942572 6.80167 1.14044 6.80167 1.26247 6.67963L2.09581 5.8463Z" fill="#020F4C"/>
</svg>
