<svg width="126" height="130" viewBox="0 0 126 130" fill="none" xmlns="http://www.w3.org/2000/svg">
<path d="M13.4195 95.6605C8.22949 90.2422 1.55049 83.27 0.835999 73.9474C0.0417737 63.5871 6.99563 55.3111 11.1369 51.3433C12.5042 50.033 14.0461 48.9199 15.7249 48.0447C18.9381 46.3695 22.7882 43.6709 25.5067 39.3059C28.8378 33.957 27.8093 30.3764 29.6461 25.2172C34.3961 11.8751 51.5514 6.95567 52.6608 6.6533C65.4394 3.1719 76.2915 7.80114 82.0227 11.1977C84.3082 12.5521 86.279 14.3702 87.8794 16.4918C89.2527 18.3126 91.1501 20.3416 93.7232 22.0679C98.9719 25.59 102.694 24.943 107.466 26.709C115.83 29.8042 121.95 38.2882 124.189 46.2674C127.028 56.3883 123.496 65.2423 120.996 69.8249C119.552 72.4715 118.706 75.3998 118.526 78.4101C118.45 79.6812 118.399 81.0735 118.394 82.5666C118.364 90.1467 119.524 91.8862 119.222 95.495C118.334 106.1 106.487 112.993 105.479 113.562C96.6553 118.542 87.8462 117.269 84.0045 116.35C82.0943 115.893 80.1297 115.699 78.1695 115.821C76.9541 115.897 75.612 116.064 74.1855 116.38C67.9118 117.767 65.5116 120.795 61.4363 122.844C53.7536 126.707 43.101 125.591 35.6068 120.855C30.1851 117.428 27.1452 112.567 25.477 108.826C24.1293 105.804 22.0459 103.176 19.4475 101.129C17.5632 99.6459 15.5038 97.8367 13.4195 95.6605Z" fill="#E6F5F4"/>
<path d="M40.6525 9.30114C40.0916 6.95601 38.5666 5.41846 35.9028 4.83468C35.6871 4.78741 35.6677 4.48848 35.8765 4.41648C38.3277 3.57039 39.8864 2.14772 40.5531 0.148472C40.6247 -0.066259 40.9299 -0.0415309 40.9733 0.1804C41.4117 2.41442 43.0183 3.74224 45.4726 4.41273C45.6968 4.47408 45.6852 4.79023 45.4576 4.8375C43.0846 5.32987 41.6713 6.86836 41.0756 9.29708C41.0212 9.51932 40.706 9.5237 40.6525 9.30114Z" fill="#E6F5F4"/>
<path d="M6.91159 39.8573C6.08907 36.8455 3.97646 34.8538 0.347451 34.0602C-0.00180952 33.9836 -0.0204101 33.5231 0.317484 33.4094C3.64528 32.2894 5.79199 30.4489 6.75711 27.8889C6.88059 27.5611 7.37142 27.5918 7.44995 27.9318C8.10972 30.785 10.3102 32.5114 13.6411 33.4104C13.9996 33.5075 13.9893 33.9889 13.6256 34.067C10.4119 34.7533 8.46673 36.7426 7.60753 39.8475C7.5135 40.1851 7.00355 40.1958 6.91159 39.8573Z" fill="#054699"/>
<path d="M111.334 14.9637C110.594 11.952 108.692 9.96027 105.426 9.16661C105.112 9.09002 105.095 8.62953 105.399 8.51587C108.394 7.39587 110.326 5.55537 111.195 2.99535C111.306 2.66754 111.748 2.69828 111.819 3.03828C112.412 5.89147 114.393 7.61782 117.391 8.51685C117.713 8.61392 117.704 9.09539 117.377 9.17344C114.484 9.85978 112.734 11.8491 111.96 14.954C111.876 15.2915 111.417 15.3023 111.334 14.9637Z" fill="#009990"/>
<path d="M117.043 51.2951C116.545 49.3625 115.267 48.0845 113.07 47.5752C112.859 47.526 112.848 47.2306 113.052 47.1576C115.066 46.4389 116.366 45.2579 116.95 43.6152C117.024 43.4048 117.321 43.4246 117.369 43.6427C117.768 45.4736 119.1 46.5814 121.116 47.1582C121.333 47.2205 121.327 47.5295 121.107 47.5796C119.162 48.02 117.984 49.2965 117.464 51.2888C117.407 51.5055 117.099 51.512 117.043 51.2951Z" fill="#054699"/>
<path d="M117.671 129.84C117.173 127.908 115.895 126.63 113.698 126.12C113.487 126.071 113.476 125.776 113.68 125.703C115.694 124.984 116.994 123.803 117.578 122.16C117.652 121.95 117.949 121.97 117.997 122.188C118.396 124.019 119.728 125.126 121.744 125.703C121.961 125.765 121.955 126.075 121.734 126.125C119.79 126.565 118.612 127.842 118.092 129.834C118.035 130.051 117.727 130.057 117.671 129.84Z" fill="#E6F5F4"/>
<path d="M8.35959 119.705C7.86179 117.773 6.58321 116.495 4.3869 115.985C4.17552 115.936 4.16426 115.641 4.36876 115.568C6.38278 114.849 7.68199 113.668 8.26609 112.025C8.34083 111.815 8.63788 111.835 8.68541 112.053C9.08471 113.884 10.4164 114.992 12.4323 115.568C12.6493 115.631 12.6431 115.94 12.423 115.99C10.478 116.43 9.30078 117.707 8.78078 119.699C8.72387 119.915 8.41525 119.922 8.35959 119.705Z" fill="#E6F5F4"/>
<path d="M61.8334 86.0003C74.0757 86.0003 84.0001 76.076 84.0001 63.8337C84.0001 51.5913 74.0757 41.667 61.8334 41.667C49.5911 41.667 39.6667 51.5913 39.6667 63.8337C39.6667 76.076 49.5911 86.0003 61.8334 86.0003Z" stroke="#009990" stroke-width="3.5" stroke-linecap="round" stroke-linejoin="round"/>
<path d="M86.3334 88.3337L81.6667 83.667" stroke="#009990" stroke-width="3.5" stroke-linecap="round" stroke-linejoin="round"/>
</svg>
