<svg width="16" height="16" viewBox="0 0 16 16" fill="none" xmlns="http://www.w3.org/2000/svg">
<path d="M6.99331 1.48703L3.66665 2.73369C2.89998 3.02036 2.27332 3.92702 2.27332 4.74702V9.70035C2.27332 10.487 2.79332 11.5204 3.42666 11.9937L6.29331 14.1337C7.23331 14.8404 8.77997 14.8404 9.71997 14.1337L12.5866 11.9937C13.22 11.5204 13.74 10.487 13.74 9.70035V4.74702C13.74 3.92702 13.1133 3.02036 12.3466 2.73369L9.01998 1.48703C8.45331 1.28036 7.54664 1.28036 6.99331 1.48703Z" stroke="#2B6C9F" stroke-linecap="round" stroke-linejoin="round"/>
<path d="M7.99996 7.28027C7.97329 7.28027 7.93996 7.28027 7.91329 7.28027C7.28662 7.26027 6.78662 6.74027 6.78662 6.10693C6.78662 5.46027 7.31329 4.93359 7.95996 4.93359C8.60663 4.93359 9.1333 5.46027 9.1333 6.10693C9.12663 6.74693 8.62663 7.26027 7.99996 7.28027Z" stroke="#2B6C9F" stroke-linecap="round" stroke-linejoin="round"/>
<path d="M6.67336 9.14723C6.03336 9.57389 6.03336 10.2739 6.67336 10.7006C7.40003 11.1872 8.59336 11.1872 9.32003 10.7006C9.96003 10.2739 9.96003 9.57389 9.32003 9.14723C8.60003 8.66056 7.40669 8.66056 6.67336 9.14723Z" stroke="#2B6C9F" stroke-linecap="round" stroke-linejoin="round"/>
</svg>
