<svg width="16" height="16" viewBox="0 0 16 16" fill="none" xmlns="http://www.w3.org/2000/svg">
<path d="M13.3333 2.33334H3.66661C3.45995 2.33334 3.25996 2.43334 3.13329 2.6L2.13329 3.93334C1.80662 4.37334 2.11995 5 2.66661 5H12.3333C12.5399 5 12.7399 4.9 12.8666 4.73334L13.8666 3.4C14.1933 2.96 13.8799 2.33334 13.3333 2.33334Z" fill="#6F51F8"/>
<path d="M2.66661 6.66666H12.3333C12.5399 6.66666 12.7399 6.76666 12.8666 6.93333L13.8666 8.26666C14.1933 8.70666 13.8799 9.33333 13.3333 9.33333H3.66661C3.45995 9.33333 3.25996 9.23333 3.13329 9.06666L2.13329 7.73333C1.80662 7.29333 2.11995 6.66666 2.66661 6.66666Z" fill="#6F51F8"/>
<path d="M13.3333 11H3.66661C3.45995 11 3.25996 11.1 3.13329 11.2667L2.13329 12.6C1.80662 13.04 2.11995 13.6667 2.66661 13.6667H12.3333C12.5399 13.6667 12.7399 13.5667 12.8666 13.4L13.8666 12.0667C14.1933 11.6267 13.8799 11 13.3333 11Z" fill="#6F51F8"/>
</svg>
