<svg width="14" height="14" viewBox="0 0 14 14" fill="none" xmlns="http://www.w3.org/2000/svg">
<path d="M1.37376 2.79047C1.4607 2.69264 1.57103 2.53905 1.67255 2.39767L1.69628 2.36462C1.74089 2.30247 1.78671 2.23864 1.83335 2.17459V5C1.83335 5.27614 2.05721 5.5 2.33335 5.5C2.60949 5.5 2.83335 5.27614 2.83335 5V2.17459C2.88 2.23865 2.9258 2.30246 2.97042 2.36462L2.99415 2.39767C3.09567 2.53905 3.206 2.69264 3.29294 2.79047C3.47637 2.99688 3.79241 3.01551 3.99882 2.83208C4.20523 2.64865 4.22386 2.33261 4.04043 2.1262C3.99629 2.07653 3.9211 1.97409 3.8064 1.81437L3.78122 1.77929C3.67996 1.6382 3.56035 1.47153 3.43702 1.31233C3.30521 1.14219 3.15517 0.962115 3.00318 0.820528C2.92714 0.749696 2.83823 0.676728 2.73969 0.619047C2.646 0.56421 2.50457 0.5 2.33335 0.5C2.16213 0.5 2.0207 0.56421 1.92701 0.619047C1.82847 0.676728 1.73956 0.749696 1.66352 0.820528C1.51153 0.962115 1.36149 1.14219 1.22968 1.31233C1.10635 1.47153 0.986732 1.6382 0.885474 1.7793L0.8603 1.81437C0.745601 1.97409 0.670408 2.07653 0.626271 2.1262C0.442837 2.33261 0.461466 2.64865 0.66788 2.83208C0.874294 3.01551 1.19033 2.99688 1.37376 2.79047Z" fill="#9DA4AE"/>
<path d="M6.33334 2.5C6.0572 2.5 5.83334 2.72386 5.83334 3C5.83334 3.27614 6.0572 3.5 6.33334 3.5H13C13.2762 3.5 13.5 3.27614 13.5 3C13.5 2.72386 13.2762 2.5 13 2.5H6.33334Z" fill="#9DA4AE"/>
<path d="M6.33334 5.16667C6.0572 5.16667 5.83334 5.39052 5.83334 5.66667C5.83334 5.94281 6.05719 6.16667 6.33334 6.16667L11 6.1667C11.2761 6.16671 11.5 5.94285 11.5 5.66671C11.5 5.39056 11.2762 5.16671 11 5.1667L6.33334 5.16667Z" fill="#9DA4AE"/>
<path d="M6.33334 7.83333C6.0572 7.83333 5.83334 8.05719 5.83334 8.33333C5.83334 8.60948 6.0572 8.83333 6.33334 8.83333H9.66668C9.94282 8.83333 10.1667 8.60948 10.1667 8.33333C10.1667 8.05719 9.94282 7.83333 9.66668 7.83333H6.33334Z" fill="#9DA4AE"/>
<path d="M5.83334 11C5.83334 10.7239 6.0572 10.5 6.33334 10.5H8.33334C8.60949 10.5 8.83334 10.7239 8.83334 11C8.83334 11.2761 8.60949 11.5 8.33334 11.5H6.33334C6.0572 11.5 5.83334 11.2761 5.83334 11Z" fill="#9DA4AE"/>
<path d="M2.99414 11.6023C3.09566 11.461 3.20599 11.3074 3.29293 11.2095C3.47636 11.0031 3.79239 10.9845 3.99881 11.1679C4.20522 11.3514 4.22385 11.6674 4.04042 11.8738C3.99628 11.9235 3.92109 12.0259 3.80639 12.1856L3.78121 12.2207C3.67996 12.3618 3.56034 12.5285 3.43701 12.6877C3.3052 12.8578 3.15516 13.0379 3.00317 13.1795C2.92713 13.2503 2.83822 13.3233 2.73967 13.381C2.64599 13.4358 2.50456 13.5 2.33334 13.5C2.16211 13.5 2.02069 13.4358 1.927 13.381C1.82846 13.3233 1.73955 13.2503 1.66351 13.1795C1.51152 13.0379 1.36148 12.8578 1.22967 12.6877C1.10634 12.5285 0.986725 12.3618 0.885468 12.2207L0.860289 12.1856C0.74559 12.0259 0.670397 11.9235 0.62626 11.8738C0.442826 11.6674 0.461456 11.3514 0.66787 11.1679C0.874283 10.9845 1.19032 11.0031 1.37375 11.2095C1.46069 11.3074 1.57102 11.461 1.67254 11.6023L1.69627 11.6354C1.74086 11.6975 1.78671 11.7614 1.83334 11.8254L1.83334 9C1.83334 8.72386 2.0572 8.5 2.33334 8.5C2.60948 8.5 2.83334 8.72386 2.83334 9L2.83334 11.8254C2.87991 11.7615 2.92564 11.6978 2.97018 11.6357L2.99414 11.6023Z" fill="#9DA4AE"/>
</svg>
