<svg width="10" height="10" viewBox="0 0 10 10" fill="none" xmlns="http://www.w3.org/2000/svg">
<path d="M5.00016 1.14551C2.87157 1.14551 1.146 2.87108 1.146 4.99967C1.146 7.12827 2.87157 8.85384 5.00016 8.85384C7.12876 8.85384 8.85433 7.12827 8.85433 4.99967C8.85433 4.5963 8.79247 4.20796 8.67794 3.84331C8.62622 3.67866 8.71778 3.50325 8.88244 3.45153C9.0471 3.39982 9.2225 3.49138 9.27422 3.65603C9.40756 4.08059 9.47933 4.53204 9.47933 4.99967C9.47933 7.47345 7.47394 9.47884 5.00016 9.47884C2.52639 9.47884 0.520996 7.47345 0.520996 4.99967C0.520996 2.5259 2.52639 0.520508 5.00016 0.520508C5.48946 0.520508 5.96103 0.599078 6.40258 0.74453C6.56651 0.798528 6.65562 0.975189 6.60162 1.13911C6.54763 1.30304 6.37096 1.39215 6.20704 1.33815C5.8278 1.21323 5.4222 1.14551 5.00016 1.14551Z" fill="#020F4C"/>
<path d="M5.00016 3.22884C4.02216 3.22884 3.22933 4.02167 3.22933 4.99967C3.22933 5.97768 4.02216 6.77051 5.00016 6.77051C5.97817 6.77051 6.771 5.97768 6.771 4.99967C6.771 4.82709 6.91091 4.68717 7.0835 4.68717C7.25609 4.68717 7.396 4.82709 7.396 4.99967C7.396 6.32286 6.32335 7.39551 5.00016 7.39551C3.67698 7.39551 2.60433 6.32286 2.60433 4.99967C2.60433 3.67649 3.67698 2.60384 5.00016 2.60384C5.17275 2.60384 5.31266 2.74375 5.31266 2.91634C5.31266 3.08893 5.17275 3.22884 5.00016 3.22884Z" fill="#020F4C"/>
<path d="M8.43766 0.833008C8.43766 0.660419 8.29775 0.520508 8.12516 0.520508C7.95257 0.520508 7.81266 0.660419 7.81266 0.833008V1.74523L4.77919 4.77871C4.65715 4.90075 4.65715 5.09861 4.77919 5.22065C4.90123 5.34269 5.0991 5.34269 5.22113 5.22065L8.25461 2.18717H9.16683C9.33942 2.18717 9.47933 2.04726 9.47933 1.87467C9.47933 1.70209 9.33942 1.56217 9.16683 1.56217H8.43766V0.833008Z" fill="#020F4C"/>
</svg>
