<svg width="40" height="40" viewBox="0 0 40 40" fill="none" xmlns="http://www.w3.org/2000/svg">
<rect width="40" height="40" rx="8" fill="#020F4C"/>
<path d="M26.0001 15.16C25.9401 15.15 25.8701 15.15 25.8101 15.16C24.4301 15.11 23.3301 13.98 23.3301 12.58C23.3301 11.15 24.4801 10 25.9101 10C27.3401 10 28.4901 11.16 28.4901 12.58C28.4801 13.98 27.3801 15.11 26.0001 15.16Z" stroke="white" stroke-width="1.5" stroke-linecap="round" stroke-linejoin="round"/>
<path d="M24.9699 22.4402C26.3399 22.6702 27.8499 22.4302 28.9099 21.7202C30.3199 20.7802 30.3199 19.2402 28.9099 18.3002C27.8399 17.5902 26.3099 17.3502 24.9399 17.5902" stroke="white" stroke-width="1.5" stroke-linecap="round" stroke-linejoin="round"/>
<path d="M13.97 15.16C14.03 15.15 14.1 15.15 14.16 15.16C15.54 15.11 16.64 13.98 16.64 12.58C16.64 11.15 15.49 10 14.06 10C12.63 10 11.48 11.16 11.48 12.58C11.49 13.98 12.59 15.11 13.97 15.16Z" stroke="white" stroke-width="1.5" stroke-linecap="round" stroke-linejoin="round"/>
<path d="M14.9999 22.4402C13.6299 22.6702 12.1199 22.4302 11.0599 21.7202C9.64994 20.7802 9.64994 19.2402 11.0599 18.3002C12.1299 17.5902 13.6599 17.3502 15.0299 17.5902" stroke="white" stroke-width="1.5" stroke-linecap="round" stroke-linejoin="round"/>
<path d="M20.0001 22.6297C19.9401 22.6197 19.8701 22.6197 19.8101 22.6297C18.4301 22.5797 17.3301 21.4497 17.3301 20.0497C17.3301 18.6197 18.4801 17.4697 19.9101 17.4697C21.3401 17.4697 22.4901 18.6297 22.4901 20.0497C22.4801 21.4497 21.3801 22.5897 20.0001 22.6297Z" stroke="white" stroke-width="1.5" stroke-linecap="round" stroke-linejoin="round"/>
<path d="M17.0902 25.7794C15.6802 26.7194 15.6802 28.2594 17.0902 29.1994C18.6902 30.2694 21.3102 30.2694 22.9102 29.1994C24.3202 28.2594 24.3202 26.7194 22.9102 25.7794C21.3202 24.7194 18.6902 24.7194 17.0902 25.7794Z" stroke="white" stroke-width="1.5" stroke-linecap="round" stroke-linejoin="round"/>
</svg>
