<svg width="16" height="16" viewBox="0 0 16 16" fill="none" xmlns="http://www.w3.org/2000/svg">
<path d="M7.06659 2.76666C7.06659 2.89333 6.95992 2.99999 6.83325 2.99999H6.07992C4.63992 2.99999 3.46659 4.17333 3.46659 5.61333V11.7667C3.46659 11.8933 3.35992 12 3.23325 12H2.76659C1.97325 12 1.33325 11.36 1.33325 10.5667V2.76666C1.33325 1.97333 1.97325 1.33333 2.76659 1.33333H5.63325C6.42659 1.33333 7.06659 1.97333 7.06659 2.76666Z" fill="#209370"/>
<path d="M14.6667 2.76666V10.5667C14.6667 11.36 14.0267 12 13.2334 12H12.8133C12.6867 12 12.58 11.8933 12.58 11.7667V5.61333C12.58 4.17333 11.4067 2.99999 9.96668 2.99999H9.16668C9.04002 2.99999 8.93335 2.89333 8.93335 2.76666C8.93335 1.97333 9.57335 1.33333 10.3667 1.33333H13.2334C14.0267 1.33333 14.6667 1.97333 14.6667 2.76666Z" fill="#209370"/>
<path d="M9.96655 4H6.07989C5.18655 4 4.46655 4.72 4.46655 5.61333V13.0533C4.46655 13.9467 5.18655 14.6667 6.07989 14.6667H7.16655C7.35322 14.6667 7.49989 14.52 7.49989 14.3333V12.6667C7.49989 12.3933 7.72655 12.1667 7.99989 12.1667C8.27322 12.1667 8.49989 12.3933 8.49989 12.6667V14.3333C8.49989 14.52 8.64655 14.6667 8.83322 14.6667H9.97322C10.8599 14.6667 11.5799 13.9467 11.5799 13.06V5.61333C11.5799 4.72 10.8599 4 9.96655 4ZM9.33322 9.83333H6.66655C6.39322 9.83333 6.16655 9.60667 6.16655 9.33333C6.16655 9.06 6.39322 8.83333 6.66655 8.83333H9.33322C9.60655 8.83333 9.83322 9.06 9.83322 9.33333C9.83322 9.60667 9.60655 9.83333 9.33322 9.83333ZM9.33322 7.83333H6.66655C6.39322 7.83333 6.16655 7.60667 6.16655 7.33333C6.16655 7.06 6.39322 6.83333 6.66655 6.83333H9.33322C9.60655 6.83333 9.83322 7.06 9.83322 7.33333C9.83322 7.60667 9.60655 7.83333 9.33322 7.83333Z" fill="#209370"/>
</svg>
