<svg width="25" height="26" viewBox="0 0 25 26" fill="none" xmlns="http://www.w3.org/2000/svg">
<rect x="3.73242" y="-0.249023" width="20.7282" height="20.7282" rx="2.59102" transform="rotate(6.58209 3.73242 -0.249023)" fill="#DC6803"/>
<rect x="0.161939" y="4.71077" width="20.3259" height="20.3259" rx="2.42908" fill="#DC6803"/>
<rect x="0.161939" y="4.71077" width="20.3259" height="20.3259" rx="2.42908" stroke="white" stroke-width="0.323878"/>
<path d="M9.89648 15.7309C9.89648 15.4942 10.0884 15.3023 10.3251 15.3023H10.3289C10.5656 15.3023 10.7575 15.4942 10.7575 15.7309C10.7575 15.9676 10.5656 16.1595 10.3289 16.1595H10.3251C10.0884 16.1595 9.89648 15.9676 9.89648 15.7309Z" fill="white"/>
<path fill-rule="evenodd" clip-rule="evenodd" d="M9.70374 10.6865C9.82689 10.4922 10.0163 10.2666 10.325 10.2666C10.6336 10.2666 10.8231 10.4922 10.9462 10.6865C11.0726 10.886 11.203 11.1732 11.3577 11.5142L11.7603 12.4012C11.8511 12.6011 11.9127 12.7364 11.9674 12.8379C12.0208 12.9371 12.0564 12.982 12.0857 13.0092C12.1771 13.094 12.2869 13.1376 12.396 13.1405C12.4268 13.1413 12.4739 13.1355 12.57 13.1014C12.6695 13.0661 12.7947 13.0107 12.9837 12.9267L12.9974 12.9206C13.1942 12.8331 13.3614 12.7588 13.4958 12.7127C13.6237 12.6688 13.7927 12.6232 13.9623 12.6717C14.2318 12.7488 14.4236 12.9727 14.4866 13.2346C14.5248 13.3937 14.4915 13.557 14.4524 13.6975C14.412 13.8428 14.3462 14.0249 14.2668 14.2444L13.5416 16.2516C13.3937 16.661 13.2743 16.9913 13.1507 17.2477C13.0227 17.5131 12.8765 17.7296 12.6589 17.8922C12.4388 18.0566 12.1953 18.129 11.915 18.163C11.6489 18.1952 11.3224 18.1952 10.9256 18.1952H9.72439C9.32752 18.1952 9.00106 18.1952 8.73493 18.163C8.45467 18.129 8.21113 18.0566 7.99109 17.8922C7.77344 17.7296 7.62727 17.5131 7.49929 17.2477C7.37564 16.9913 7.25628 16.661 7.1084 16.2517L6.38312 14.2444C6.30379 14.0249 6.238 13.8428 6.19758 13.6975C6.15848 13.557 6.12512 13.3937 6.16338 13.2346C6.22635 12.9727 6.41814 12.7488 6.68762 12.6717C6.85729 12.6232 7.02622 12.6688 7.15411 12.7127C7.28858 12.7588 7.4557 12.8331 7.65253 12.9206L7.66626 12.9267C7.85529 13.0107 7.98046 13.0661 8.07992 13.1014C8.17605 13.1355 8.22313 13.1413 8.25394 13.1405C8.36304 13.1376 8.47282 13.094 8.56426 13.0092C8.59355 12.982 8.62915 12.9371 8.68258 12.8379C8.73724 12.7364 8.79883 12.6011 8.88961 12.4012L9.29224 11.5142C9.44698 11.1732 9.57737 10.886 9.70374 10.6865ZM10.2468 11.0306C10.1474 11.1874 10.0352 11.4328 9.86706 11.8031L9.47044 12.6769C9.38535 12.8643 9.31482 13.0197 9.24855 13.1427C9.17987 13.2702 9.10469 13.3848 9.00135 13.4806C8.80074 13.6666 8.5434 13.776 8.27086 13.7831C8.12836 13.7869 7.99655 13.754 7.8649 13.7072C7.73921 13.6626 7.59126 13.5969 7.41619 13.5191L7.40517 13.5142C7.19088 13.4189 7.04984 13.3566 6.94537 13.3207C6.89313 13.3028 6.8643 13.2969 6.8518 13.2948C6.82933 13.3063 6.80158 13.3332 6.78905 13.3824L6.7891 13.3836C6.78923 13.3905 6.78989 13.4281 6.81691 13.5252C6.85002 13.6442 6.90725 13.8033 6.99222 14.0384L7.70709 16.0169C7.86227 16.4464 7.97074 16.7454 8.07833 16.9685C8.18325 17.1861 8.27353 17.3007 8.37585 17.3772C8.4758 17.4519 8.59899 17.4989 8.81222 17.5248C9.03522 17.5518 9.32265 17.5523 9.74394 17.5523H10.906C11.3273 17.5523 11.6147 17.5518 11.8377 17.5248C12.051 17.4989 12.1742 17.4519 12.2741 17.3772C12.3764 17.3007 12.4667 17.1861 12.5716 16.9685C12.6792 16.7454 12.7877 16.4464 12.9429 16.0169L13.6577 14.0384C13.7427 13.8033 13.7999 13.6442 13.833 13.5252C13.8601 13.4281 13.8607 13.3905 13.8608 13.3836L13.8609 13.3824C13.8484 13.3332 13.8206 13.3063 13.7982 13.2948C13.7857 13.2969 13.7568 13.3028 13.7046 13.3207C13.6001 13.3566 13.4591 13.4189 13.2448 13.5142L13.2338 13.5191C13.0587 13.5969 12.9107 13.6626 12.785 13.7072C12.6534 13.754 12.5216 13.7869 12.3791 13.7831C12.1066 13.776 11.8492 13.6666 11.6486 13.4806C11.5453 13.3848 11.4701 13.2702 11.4014 13.1427C11.3351 13.0197 11.2646 12.8643 11.1795 12.6769L10.7829 11.8031C10.6148 11.4328 10.5026 11.1874 10.4032 11.0306C10.368 10.975 10.342 10.9431 10.325 10.9251C10.3079 10.9431 10.282 10.975 10.2468 11.0306ZM10.3501 10.9039C10.3501 10.9041 10.3488 10.9049 10.3463 10.906C10.3488 10.9042 10.3501 10.9037 10.3501 10.9039ZM10.3037 10.906C10.3012 10.9049 10.2999 10.9041 10.2999 10.9039C10.2999 10.9037 10.3011 10.9042 10.3037 10.906Z" fill="white"/>
<path d="M8.1822 18.838C8.00468 18.838 7.86077 18.9819 7.86077 19.1595C7.86077 19.337 8.00468 19.4809 8.1822 19.4809H12.4679C12.6454 19.4809 12.7893 19.337 12.7893 19.1595C12.7893 18.9819 12.6454 18.838 12.4679 18.838H8.1822Z" fill="white"/>
</svg>
