<svg width="25" height="26" viewBox="0 0 25 26" fill="none" xmlns="http://www.w3.org/2000/svg">
<rect x="3.73242" y="-0.249023" width="20.7282" height="20.7282" rx="2.59102" transform="rotate(6.58209 3.73242 -0.249023)" fill="#020F4C"/>
<rect x="0.161939" y="4.71077" width="20.3259" height="20.3259" rx="2.42908" fill="#020F4C"/>
<rect x="0.161939" y="4.71077" width="20.3259" height="20.3259" rx="2.42908" stroke="white" stroke-width="0.323878"/>
<path fill-rule="evenodd" clip-rule="evenodd" d="M9.01179 10.786C9.02057 10.9633 8.88397 11.1142 8.70666 11.1229C7.8157 11.1671 7.36529 11.299 7.05798 11.6063C6.75067 11.9136 6.61876 12.364 6.5746 13.255C6.56581 13.4323 6.41496 13.5689 6.23765 13.5601C6.06035 13.5513 5.92374 13.4005 5.93253 13.2232C5.97757 12.3144 6.11249 11.6427 6.60341 11.1518C7.09434 10.6608 7.76604 10.5259 8.67484 10.4809C8.85214 10.4721 9.003 10.6087 9.01179 10.786ZM11.6382 10.786C11.647 10.6087 11.7978 10.4721 11.9751 10.4809C12.8839 10.5259 13.5557 10.6608 14.0466 11.1518C14.5375 11.6427 14.6724 12.3144 14.7175 13.2232C14.7262 13.4005 14.5896 13.5513 14.4123 13.5601C14.235 13.5689 14.0842 13.4323 14.0754 13.255C14.0312 12.364 13.8993 11.9136 13.592 11.6063C13.2847 11.299 12.8343 11.1671 11.9433 11.1229C11.766 11.1142 11.6294 10.9633 11.6382 10.786ZM6.23765 16.1865C6.41496 16.1778 6.56581 16.3144 6.5746 16.4917C6.61876 17.3826 6.75067 17.833 7.05798 18.1403C7.36529 18.4477 7.8157 18.5796 8.70666 18.6237C8.88396 18.6325 9.02057 18.7834 9.01178 18.9607C9.003 19.138 8.85214 19.2746 8.67484 19.2658C7.76604 19.2208 7.09434 19.0858 6.60341 18.5949C6.11249 18.104 5.97757 17.4323 5.93253 16.5235C5.92374 16.3462 6.06035 16.1953 6.23765 16.1865ZM14.4123 16.1865C14.5896 16.1953 14.7262 16.3462 14.7175 16.5235C14.6724 17.4323 14.5375 18.104 14.0466 18.5949C13.5557 19.0858 12.8839 19.2208 11.9751 19.2658C11.7978 19.2746 11.647 19.138 11.6382 18.9607C11.6294 18.7834 11.766 18.6325 11.9433 18.6237C12.8343 18.5796 13.2847 18.4477 13.592 18.1403C13.8993 17.833 14.0312 17.3826 14.0754 16.4917C14.0842 16.3144 14.235 16.1778 14.4123 16.1865ZM8.44542 13.6995C7.92103 14.065 7.52687 14.5024 7.30392 14.7816C7.27703 14.8152 7.2574 14.8399 7.24122 14.8614L7.23236 14.8733L7.24122 14.8853C7.2574 14.9068 7.27703 14.9314 7.30392 14.9651C7.52688 15.2442 7.92103 15.6816 8.44542 16.0471C8.96973 16.4126 9.60735 16.6948 10.325 16.6948C11.0426 16.6948 11.6802 16.4126 12.2046 16.0471C12.7289 15.6816 13.1231 15.2442 13.3461 14.9651C13.3729 14.9314 13.3926 14.9068 13.4088 14.8853L13.4176 14.8733L13.4088 14.8614C13.3926 14.8399 13.3729 14.8152 13.3461 14.7816C13.1231 14.5024 12.7289 14.065 12.2046 13.6995C11.6802 13.334 11.0426 13.0519 10.325 13.0519C9.60735 13.0519 8.96973 13.334 8.44542 13.6995ZM8.07781 13.1721C8.67058 12.7589 9.43489 12.409 10.325 12.409C11.2151 12.409 11.9794 12.7589 12.5722 13.1721C13.1649 13.5853 13.6029 14.0731 13.8484 14.3804C13.8547 14.3883 13.8614 14.3965 13.8684 14.4052L13.8687 14.4055L13.8687 14.4055C13.9517 14.5077 14.075 14.6595 14.075 14.8733C14.075 15.0871 13.9517 15.239 13.8687 15.3411C13.8616 15.3499 13.8548 15.3583 13.8484 15.3663C13.6029 15.6735 13.1649 16.1614 12.5722 16.5745C11.9794 16.9877 11.2151 17.3376 10.325 17.3376C9.43489 17.3376 8.67058 16.9877 8.07781 16.5745C7.48512 16.1614 7.04703 15.6735 6.80162 15.3663C6.79521 15.3583 6.78841 15.3499 6.78131 15.3411C6.69832 15.239 6.57499 15.0871 6.57499 14.8733C6.57499 14.6595 6.69832 14.5077 6.78131 14.4055L6.78134 14.4055C6.78843 14.3967 6.79522 14.3884 6.80162 14.3804C7.04703 14.0731 7.48512 13.5853 8.07781 13.1721ZM9.78927 14.8733C9.78927 15.1692 10.0291 15.409 10.325 15.409C10.6209 15.409 10.8607 15.1692 10.8607 14.8733C10.8607 14.5775 10.6209 14.3376 10.325 14.3376C10.0291 14.3376 9.78927 14.5775 9.78927 14.8733ZM10.325 16.0519C9.67408 16.0519 9.14641 15.5242 9.14641 14.8733C9.14641 14.2224 9.67408 13.6948 10.325 13.6948C10.9759 13.6948 11.5036 14.2224 11.5036 14.8733C11.5036 15.5242 10.9759 16.0519 10.325 16.0519Z" fill="white"/>
</svg>
